<mxfile host="app.diagrams.net" agent="Mozilla/5.0 (Windows NT 10.0; Win64; x64) AppleWebKit/537.36 (KHTML, like Gecko) Chrome/127.0.0.0 Safari/537.36" version="24.7.6">
  <diagram name="Page-1" id="q5UZDmLvF7Gd6RCT4N3Q">
    <mxGraphModel dx="6850" dy="2957" grid="1" gridSize="10" guides="1" tooltips="1" connect="1" arrows="1" fold="1" page="1" pageScale="1" pageWidth="850" pageHeight="1100" math="0" shadow="0">
      <root>
        <mxCell id="0" />
        <mxCell id="1" parent="0" />
        <UserObject label="" plantUmlData="{&#xa;  &quot;data&quot;: &quot;@startuml\nclass MyApp1 {\n    - JTextArea outputTextArea\n    - JButton stopButton\n    - Process process\n    - CombinedDisplay combinedDisplay\n    - Timer timer\n    + MyApp1()\n    + launchSimulator() : void\n    + main(String[] args) : void\n}\n\nclass MyApp2 extends JFrame {\n    - JTextArea outputTextArea\n    - JButton stopButton\n    - Process process\n    - CombinedDisplay combinedDisplay\n    + MyApp2()\n    + actionPerformed(ActionEvent e) : void\n    + main(String[] args) : void\n}\n\nclass MyApp3 extends JFrame {\n    - JTextArea outputArea\n    - JButton startButton\n    - JButton stopButton\n    - Process process\n    - ExecutorService executor\n    - CombinedDisplay combinedDisplay\n    + MyApp3()\n    + actionPerformed(ActionEvent e) : void\n    + startProcess() : void\n    + stopProcess() : void\n    + main(String[] args) : void\n}\n\nclass CombinedDisplay {\n    - List&lt;Advertisement&gt; advertisements\n    - JPanel adPanel\n    - JLabel adImageLabel\n    - JLabel adTitleLabel\n    - JLabel temperatureLabel\n    - JLabel conditionLabel\n    - JTextPane newsTextPane\n    - JLabel breakingNewsLabel\n    - int currentAdIndex\n    - Timer adTimer\n    - Timer mapTimer\n    - int adDisplayTime\n    - int mapDisplayTime\n    - boolean showingAds\n    - JPanel simulationPanel\n    - JPanel mapPanel\n    - TrainStationDisplay stationDisplay\n    - JSplitPane mainSplitPane\n    - JSplitPane adNewsSplitPane\n    + CombinedDisplay()\n}\n\nclass MapPanel {\n    - Map&lt;String, List&lt;Station&gt;&gt; subwayLines\n    - List&lt;Train&gt; trains\n    + MapPanel(Map&lt;String, List&lt;Station&gt;&gt;, List&lt;Train&gt;)\n    + paintComponent(Graphics)\n}\n\nclass StationParser {\n    + Map&lt;String, StationInfo&gt; parseCSV(String)\n}\n\nclass SubwayLine {\n    - List&lt;Point&gt; points\n    - Color color\n    + SubwayLine(List&lt;Point&gt;, Color)\n    + List&lt;Point&gt; getPoints()\n    + Color getColor()\n}\n\nclass Station {\n    - String row\n    - String line\n    - int stationNumber\n    - String stationCode\n    - String stationName\n    - double x\n    - double y\n    + Station(String, String, int, String, String, double, double)\n}\n\nclass SubwayParser {\n    + Map&lt;String, List&lt;Station&gt;&gt; parseSubway(String)\n}\n\nclass SubwaySimulator {\n    - List&lt;Train&gt; trains\n    - Map&lt;String, List&lt;Station&gt;&gt; subwayLines\n    - Timer timer\n    - MapPanel mapPanel\n    + SubwaySimulator(List&lt;Train&gt;, Map&lt;String, List&lt;Station&gt;&gt;, MapPanel)\n    + startSimulation()\n}\n\nclass TrainInitializer {\n    + List&lt;Train&gt; initializeTrains(Map&lt;String, List&lt;Station&gt;&gt;)\n}\n\nclass Train {\n    - String line\n    - Station currentStation\n    - int direction\n    + Train(String, Station, int)\n    + move(Map&lt;String, List&lt;Station&gt;&gt;)\n}\n\nclass TrainStationDisplay {\n    - List&lt;String&gt; stations\n    - int currentStationIndex\n    + TrainStationDisplay(String)\n    + List&lt;String&gt; loadStationNames(String)\n}\n\nclass AdvertisementDisplay {\n    - Advertisement advertisement\n    - JPanel displayPanel\n    + AdvertisementDisplay(Advertisement)\n    + display()\n}\n\nclass DatabaseConnection {\n    - Connection connection\n    + DatabaseConnection()\n    + getConnection(): Connection\n}\n\nclass Advertisement {\n    - int id\n    - String title\n    - String imagePath\n    + Advertisement(int, String, String)\n    + int getId()\n    + String getTitle()\n    + String getImagePath()\n}\n\nclass AdvertisementDAO {\n    + List&lt;Advertisement&gt; getAllAdvertisements()\n}\n\nclass SubwayMapPanel {\n    - Map&lt;String, List&lt;Station&gt;&gt; subwayLines\n    - List&lt;Train&gt; trains\n    + SubwayMapPanel(Map&lt;String, List&lt;Station&gt;&gt;, List&lt;Train&gt;)\n    + paintComponent(Graphics)\n}\n\nclass SubwaySimulation {\n    - List&lt;Train&gt; trains\n    - Map&lt;String, List&lt;Station&gt;&gt; subwayLines\n    - Timer timer\n    - MapPanel mapPanel\n    + SubwaySimulation(List&lt;Train&gt;, Map&lt;String, List&lt;Station&gt;&gt;, MapPanel)\n    + startSimulation()\n}\n\nclass WeatherFetcher {\n    + String[] fetchWeather()\n}\n\nclass NewsFetcher {\n    + String[] fetchNews()\n}\n\nclass SubwayDataLoader {\n    + List&lt;double[]&gt; loadCoordinates(String)\n}\n\nclass SubwayMap {\n    - List&lt;Point&gt; blueLine\n    - List&lt;Point&gt; redLine\n    - List&lt;Point&gt; greenLine\n    - List&lt;Station&gt; stations\n    - int blueTrainPos\n    - int redTrainPos\n    - int greenTrainPos\n    + SubwayMap()\n}\n\nCombinedDisplay --&gt; TrainStationDisplay\nCombinedDisplay --&gt; MapPanel\nCombinedDisplay --&gt; AdvertisementDisplay\nCombinedDisplay --&gt; DatabaseConnection\nCombinedDisplay --&gt; WeatherFetcher\nCombinedDisplay --&gt; NewsFetcher\nMapPanel --&gt; Station\nMapPanel --&gt; Train\nStationParser --&gt; Station\nSubwayParser --&gt; Station\nSubwaySimulator --&gt; MapPanel\nSubwaySimulator --&gt; Train\nTrainInitializer --&gt; Train\nTrain --&gt; Station\nAdvertisementDisplay --&gt; Advertisement\nDatabaseConnection --&gt; AdvertisementDAO\nAdvertisementDAO --&gt; Advertisement\nSubwayMapPanel --&gt; Station\nSubwayMapPanel --&gt; Train\nSubwaySimulation --&gt; MapPanel\nSubwaySimulation --&gt; Train\nWeatherFetcher --&gt; CombinedDisplay\nNewsFetcher --&gt; CombinedDisplay\nSubwayDataLoader --&gt; SubwayMap\nMyApp1 --&gt; CombinedDisplay\nMyApp2 --&gt; CombinedDisplay\nMyApp3 --&gt; CombinedDisplay\n\n@enduml\n&quot;,&#xa;  &quot;format&quot;: &quot;svg&quot;&#xa;}" id="vZ1VGe8fYw2AWuHncTMF-1">
          <mxCell style="shape=image;noLabel=1;verticalAlign=top;aspect=fixed;imageAspect=0;image=data:image/svg+xml,PD94bWwgdmVyc2lvbj0iMS4wIiBlbmNvZGluZz0idXMtYXNjaWkiIHN0YW5kYWxvbmU9Im5vIj8+PHN2ZyB4bWxucz0iaHR0cDovL3d3dy53My5vcmcvMjAwMC9zdmciIHhtbG5zOnhsaW5rPSJodHRwOi8vd3d3LnczLm9yZy8xOTk5L3hsaW5rIiBjb250ZW50U3R5bGVUeXBlPSJ0ZXh0L2NzcyIgaGVpZ2h0PSIxMzk2cHgiIHByZXNlcnZlQXNwZWN0UmF0aW89Im5vbmUiIHN0eWxlPSJ3aWR0aDoyNTcxcHg7aGVpZ2h0OjEzOTZweDtiYWNrZ3JvdW5kOiNGRkZGRkY7IiB2ZXJzaW9uPSIxLjEiIHZpZXdCb3g9IjAgMCAyNTcxIDEzOTYiIHdpZHRoPSIyNTcxcHgiIHpvb21BbmRQYW49Im1hZ25pZnkiPjxkZWZzLz48Zz48IS0tY2xhc3MgTXlBcHAxLS0+PGcgaWQ9ImVsZW1fTXlBcHAxIj48cmVjdCBjb2RlTGluZT0iMSIgZmlsbD0iI0YxRjFGMSIgaGVpZ2h0PSIxNjcuODc1IiBpZD0iTXlBcHAxIiByeD0iMi41IiByeT0iMi41IiBzdHlsZT0ic3Ryb2tlOiMxODE4MTg7c3Ryb2tlLXdpZHRoOjAuNTsiIHdpZHRoPSIyNDUiIHg9IjMyMy41IiB5PSIyMTIuNSIvPjxlbGxpcHNlIGN4PSI0MjAuNzUiIGN5PSIyMjguNSIgZmlsbD0iI0FERDFCMiIgcng9IjExIiByeT0iMTEiIHN0eWxlPSJzdHJva2U6IzE4MTgxODtzdHJva2Utd2lkdGg6MS4wOyIvPjxwYXRoIGQ9Ik00MTguMzc1LDIzMi43NSBMNDE4LjM3NSwyMzQuNSBMNDIzLjMxMjUsMjM0LjUgTDQyMy4zMTI1LDIzMi43NSBMNDE4LjM3NSwyMzIuNzUgWiBNNDE5LjA2MjUsMjMzLjQzNzUgUTQxOS4wNjI1LDIzMy40Mzc1IDQxOS4wNjI1LDIyNC4yNSBMNDE3LjMxMjUsMjI0LjI1IFE0MTcuMzEyNSwyMjQuMjUgNDE3LjMxMjUsMjMzLjQzNzUgTDQxOS4wNjI1LDIzMy40Mzc1IFogTTQyMi42MjUsMjMzLjQzNzUgTDQyNC4zNzUsMjMzLjQzNzUgUTQyNC4zNzUsMjMzLjQzNzUgNDI0LjM3NSwyMzAuNjI1IEw0MjIuNjI1LDIzMC42MjUgUTQyMi42MjUsMjMwLjYyNSA0MjIuNjI1LDIzMy40Mzc1IFogTTQyMi42MjUsMjI0LjI1IFE0MjIuNjI1LDIyNC4yNSA0MjIuNjI1LDIyNy4wNjI1IEw0MjQuMzc1LDIyNy4wNjI1IFE0MjQuMzc1LDIyNy4wNjI1IDQyNC4zNzUsMjI0LjI1IEw0MjIuNjI1LDIyNC4yNSBaIE00MTguMzc1LDIyNC45Mzc1IEw0MjMuMzEyNSwyMjQuOTM3NSBMNDIzLjMxMjUsMjIzLjE4NzUgTDQxOC4zNzUsMjIzLjE4NzUgTDQxOC4zNzUsMjI0LjkzNzUgWiAiIGZpbGw9IiMwMDAwMDAiLz48dGV4dCBmaWxsPSIjMDAwMDAwIiBmb250LWZhbWlseT0ic2Fucy1zZXJpZiIgZm9udC1zaXplPSIxNCIgbGVuZ3RoQWRqdXN0PSJzcGFjaW5nIiB0ZXh0TGVuZ3RoPSI0MiIgeD0iNDQxLjI1IiB5PSIyMzQuMjQyMiI+TXlBcHAxPC90ZXh0PjxsaW5lIHN0eWxlPSJzdHJva2U6IzE4MTgxODtzdHJva2Utd2lkdGg6MC41OyIgeDE9IjMyNC41IiB4Mj0iNTY3LjUiIHkxPSIyNDQuNSIgeTI9IjI0NC41Ii8+PHJlY3QgZmlsbD0ibm9uZSIgaGVpZ2h0PSI2IiBzdHlsZT0ic3Ryb2tlOiNDODI5MzA7c3Ryb2tlLXdpZHRoOjEuMDsiIHdpZHRoPSI2IiB4PSIzMzEuNSIgeT0iMjU0LjQ5MjIiLz48dGV4dCBmaWxsPSIjMDAwMDAwIiBmb250LWZhbWlseT0ic2Fucy1zZXJpZiIgZm9udC1zaXplPSIxNCIgbGVuZ3RoQWRqdXN0PSJzcGFjaW5nIiB0ZXh0TGVuZ3RoPSIxNjkiIHg9IjM0My41IiB5PSIyNjEuNzM0NCI+SlRleHRBcmVhIG91dHB1dFRleHRBcmVhPC90ZXh0PjxyZWN0IGZpbGw9Im5vbmUiIGhlaWdodD0iNiIgc3R5bGU9InN0cm9rZTojQzgyOTMwO3N0cm9rZS13aWR0aDoxLjA7IiB3aWR0aD0iNiIgeD0iMzMxLjUiIHk9IjI2OS40NzY2Ii8+PHRleHQgZmlsbD0iIzAwMDAwMCIgZm9udC1mYW1pbHk9InNhbnMtc2VyaWYiIGZvbnQtc2l6ZT0iMTQiIGxlbmd0aEFkanVzdD0ic3BhY2luZyIgdGV4dExlbmd0aD0iMTI3IiB4PSIzNDMuNSIgeT0iMjc2LjcxODgiPkpCdXR0b24gc3RvcEJ1dHRvbjwvdGV4dD48cmVjdCBmaWxsPSJub25lIiBoZWlnaHQ9IjYiIHN0eWxlPSJzdHJva2U6I0M4MjkzMDtzdHJva2Utd2lkdGg6MS4wOyIgd2lkdGg9IjYiIHg9IjMzMS41IiB5PSIyODQuNDYwOSIvPjx0ZXh0IGZpbGw9IiMwMDAwMDAiIGZvbnQtZmFtaWx5PSJzYW5zLXNlcmlmIiBmb250LXNpemU9IjE0IiBsZW5ndGhBZGp1c3Q9InNwYWNpbmciIHRleHRMZW5ndGg9IjEwNSIgeD0iMzQzLjUiIHk9IjI5MS43MDMxIj5Qcm9jZXNzIHByb2Nlc3M8L3RleHQ+PHJlY3QgZmlsbD0ibm9uZSIgaGVpZ2h0PSI2IiBzdHlsZT0ic3Ryb2tlOiNDODI5MzA7c3Ryb2tlLXdpZHRoOjEuMDsiIHdpZHRoPSI2IiB4PSIzMzEuNSIgeT0iMjk5LjQ0NTMiLz48dGV4dCBmaWxsPSIjMDAwMDAwIiBmb250LWZhbWlseT0ic2Fucy1zZXJpZiIgZm9udC1zaXplPSIxNCIgbGVuZ3RoQWRqdXN0PSJzcGFjaW5nIiB0ZXh0TGVuZ3RoPSIyMTkiIHg9IjM0My41IiB5PSIzMDYuNjg3NSI+Q29tYmluZWREaXNwbGF5IGNvbWJpbmVkRGlzcGxheTwvdGV4dD48cmVjdCBmaWxsPSJub25lIiBoZWlnaHQ9IjYiIHN0eWxlPSJzdHJva2U6I0M4MjkzMDtzdHJva2Utd2lkdGg6MS4wOyIgd2lkdGg9IjYiIHg9IjMzMS41IiB5PSIzMTQuNDI5NyIvPjx0ZXh0IGZpbGw9IiMwMDAwMDAiIGZvbnQtZmFtaWx5PSJzYW5zLXNlcmlmIiBmb250LXNpemU9IjE0IiBsZW5ndGhBZGp1c3Q9InNwYWNpbmciIHRleHRMZW5ndGg9Ijc5IiB4PSIzNDMuNSIgeT0iMzIxLjY3MTkiPlRpbWVyIHRpbWVyPC90ZXh0PjxsaW5lIHN0eWxlPSJzdHJva2U6IzE4MTgxODtzdHJva2Utd2lkdGg6MC41OyIgeDE9IjMyNC41IiB4Mj0iNTY3LjUiIHkxPSIzMjcuNDIxOSIgeTI9IjMyNy40MjE5Ii8+PGVsbGlwc2UgY3g9IjMzNC41IiBjeT0iMzQwLjQxNDEiIGZpbGw9IiM4NEJFODQiIHJ4PSIzIiByeT0iMyIgc3R5bGU9InN0cm9rZTojMDM4MDQ4O3N0cm9rZS13aWR0aDoxLjA7Ii8+PHRleHQgZmlsbD0iIzAwMDAwMCIgZm9udC1mYW1pbHk9InNhbnMtc2VyaWYiIGZvbnQtc2l6ZT0iMTQiIGxlbmd0aEFkanVzdD0ic3BhY2luZyIgdGV4dExlbmd0aD0iNTgiIHg9IjM0My41IiB5PSIzNDQuNjU2MyI+TXlBcHAxKCk8L3RleHQ+PGVsbGlwc2UgY3g9IjMzNC41IiBjeT0iMzU1LjM5ODQiIGZpbGw9IiM4NEJFODQiIHJ4PSIzIiByeT0iMyIgc3R5bGU9InN0cm9rZTojMDM4MDQ4O3N0cm9rZS13aWR0aDoxLjA7Ii8+PHRleHQgZmlsbD0iIzAwMDAwMCIgZm9udC1mYW1pbHk9InNhbnMtc2VyaWYiIGZvbnQtc2l6ZT0iMTQiIGxlbmd0aEFkanVzdD0ic3BhY2luZyIgdGV4dExlbmd0aD0iMTcxIiB4PSIzNDMuNSIgeT0iMzU5LjY0MDYiPmxhdW5jaFNpbXVsYXRvcigpIDogdm9pZDwvdGV4dD48ZWxsaXBzZSBjeD0iMzM0LjUiIGN5PSIzNzAuMzgyOCIgZmlsbD0iIzg0QkU4NCIgcng9IjMiIHJ5PSIzIiBzdHlsZT0ic3Ryb2tlOiMwMzgwNDg7c3Ryb2tlLXdpZHRoOjEuMDsiLz48dGV4dCBmaWxsPSIjMDAwMDAwIiBmb250LWZhbWlseT0ic2Fucy1zZXJpZiIgZm9udC1zaXplPSIxNCIgbGVuZ3RoQWRqdXN0PSJzcGFjaW5nIiB0ZXh0TGVuZ3RoPSIxODUiIHg9IjM0My41IiB5PSIzNzQuNjI1Ij5tYWluKFN0cmluZ1tdIGFyZ3MpIDogdm9pZDwvdGV4dD48L2c+PCEtLWNsYXNzIE15QXBwMi0tPjxnIGlkPSJlbGVtX015QXBwMiI+PHJlY3QgY29kZUxpbmU9IjEyIiBmaWxsPSIjRjFGMUYxIiBoZWlnaHQ9IjE1Mi44OTA2IiBpZD0iTXlBcHAyIiByeD0iMi41IiByeT0iMi41IiBzdHlsZT0ic3Ryb2tlOiMxODE4MTg7c3Ryb2tlLXdpZHRoOjAuNTsiIHdpZHRoPSIyODgiIHg9IjYwNCIgeT0iMjIwIi8+PGVsbGlwc2UgY3g9IjcyMi43NSIgY3k9IjIzNiIgZmlsbD0iI0FERDFCMiIgcng9IjExIiByeT0iMTEiIHN0eWxlPSJzdHJva2U6IzE4MTgxODtzdHJva2Utd2lkdGg6MS4wOyIvPjxwYXRoIGQ9Ik03MjAuMzc1LDI0MC4yNSBMNzIwLjM3NSwyNDIgTDcyNS4zMTI1LDI0MiBMNzI1LjMxMjUsMjQwLjI1IEw3MjAuMzc1LDI0MC4yNSBaIE03MjEuMDYyNSwyNDAuOTM3NSBRNzIxLjA2MjUsMjQwLjkzNzUgNzIxLjA2MjUsMjMxLjc1IEw3MTkuMzEyNSwyMzEuNzUgUTcxOS4zMTI1LDIzMS43NSA3MTkuMzEyNSwyNDAuOTM3NSBMNzIxLjA2MjUsMjQwLjkzNzUgWiBNNzI0LjYyNSwyNDAuOTM3NSBMNzI2LjM3NSwyNDAuOTM3NSBRNzI2LjM3NSwyNDAuOTM3NSA3MjYuMzc1LDIzOC4xMjUgTDcyNC42MjUsMjM4LjEyNSBRNzI0LjYyNSwyMzguMTI1IDcyNC42MjUsMjQwLjkzNzUgWiBNNzI0LjYyNSwyMzEuNzUgUTcyNC42MjUsMjMxLjc1IDcyNC42MjUsMjM0LjU2MjUgTDcyNi4zNzUsMjM0LjU2MjUgUTcyNi4zNzUsMjM0LjU2MjUgNzI2LjM3NSwyMzEuNzUgTDcyNC42MjUsMjMxLjc1IFogTTcyMC4zNzUsMjMyLjQzNzUgTDcyNS4zMTI1LDIzMi40Mzc1IEw3MjUuMzEyNSwyMzAuNjg3NSBMNzIwLjM3NSwyMzAuNjg3NSBMNzIwLjM3NSwyMzIuNDM3NSBaICIgZmlsbD0iIzAwMDAwMCIvPjx0ZXh0IGZpbGw9IiMwMDAwMDAiIGZvbnQtZmFtaWx5PSJzYW5zLXNlcmlmIiBmb250LXNpemU9IjE0IiBsZW5ndGhBZGp1c3Q9InNwYWNpbmciIHRleHRMZW5ndGg9IjQyIiB4PSI3NDMuMjUiIHk9IjI0MS43NDIyIj5NeUFwcDI8L3RleHQ+PGxpbmUgc3R5bGU9InN0cm9rZTojMTgxODE4O3N0cm9rZS13aWR0aDowLjU7IiB4MT0iNjA1IiB4Mj0iODkxIiB5MT0iMjUyIiB5Mj0iMjUyIi8+PHJlY3QgZmlsbD0ibm9uZSIgaGVpZ2h0PSI2IiBzdHlsZT0ic3Ryb2tlOiNDODI5MzA7c3Ryb2tlLXdpZHRoOjEuMDsiIHdpZHRoPSI2IiB4PSI2MTIiIHk9IjI2MS45OTIyIi8+PHRleHQgZmlsbD0iIzAwMDAwMCIgZm9udC1mYW1pbHk9InNhbnMtc2VyaWYiIGZvbnQtc2l6ZT0iMTQiIGxlbmd0aEFkanVzdD0ic3BhY2luZyIgdGV4dExlbmd0aD0iMTY5IiB4PSI2MjQiIHk9IjI2OS4yMzQ0Ij5KVGV4dEFyZWEgb3V0cHV0VGV4dEFyZWE8L3RleHQ+PHJlY3QgZmlsbD0ibm9uZSIgaGVpZ2h0PSI2IiBzdHlsZT0ic3Ryb2tlOiNDODI5MzA7c3Ryb2tlLXdpZHRoOjEuMDsiIHdpZHRoPSI2IiB4PSI2MTIiIHk9IjI3Ni45NzY2Ii8+PHRleHQgZmlsbD0iIzAwMDAwMCIgZm9udC1mYW1pbHk9InNhbnMtc2VyaWYiIGZvbnQtc2l6ZT0iMTQiIGxlbmd0aEFkanVzdD0ic3BhY2luZyIgdGV4dExlbmd0aD0iMTI3IiB4PSI2MjQiIHk9IjI4NC4yMTg4Ij5KQnV0dG9uIHN0b3BCdXR0b248L3RleHQ+PHJlY3QgZmlsbD0ibm9uZSIgaGVpZ2h0PSI2IiBzdHlsZT0ic3Ryb2tlOiNDODI5MzA7c3Ryb2tlLXdpZHRoOjEuMDsiIHdpZHRoPSI2IiB4PSI2MTIiIHk9IjI5MS45NjA5Ii8+PHRleHQgZmlsbD0iIzAwMDAwMCIgZm9udC1mYW1pbHk9InNhbnMtc2VyaWYiIGZvbnQtc2l6ZT0iMTQiIGxlbmd0aEFkanVzdD0ic3BhY2luZyIgdGV4dExlbmd0aD0iMTA1IiB4PSI2MjQiIHk9IjI5OS4yMDMxIj5Qcm9jZXNzIHByb2Nlc3M8L3RleHQ+PHJlY3QgZmlsbD0ibm9uZSIgaGVpZ2h0PSI2IiBzdHlsZT0ic3Ryb2tlOiNDODI5MzA7c3Ryb2tlLXdpZHRoOjEuMDsiIHdpZHRoPSI2IiB4PSI2MTIiIHk9IjMwNi45NDUzIi8+PHRleHQgZmlsbD0iIzAwMDAwMCIgZm9udC1mYW1pbHk9InNhbnMtc2VyaWYiIGZvbnQtc2l6ZT0iMTQiIGxlbmd0aEFkanVzdD0ic3BhY2luZyIgdGV4dExlbmd0aD0iMjE5IiB4PSI2MjQiIHk9IjMxNC4xODc1Ij5Db21iaW5lZERpc3BsYXkgY29tYmluZWREaXNwbGF5PC90ZXh0PjxsaW5lIHN0eWxlPSJzdHJva2U6IzE4MTgxODtzdHJva2Utd2lkdGg6MC41OyIgeDE9IjYwNSIgeDI9Ijg5MSIgeTE9IjMxOS45Mzc1IiB5Mj0iMzE5LjkzNzUiLz48ZWxsaXBzZSBjeD0iNjE1IiBjeT0iMzMyLjkyOTciIGZpbGw9IiM4NEJFODQiIHJ4PSIzIiByeT0iMyIgc3R5bGU9InN0cm9rZTojMDM4MDQ4O3N0cm9rZS13aWR0aDoxLjA7Ii8+PHRleHQgZmlsbD0iIzAwMDAwMCIgZm9udC1mYW1pbHk9InNhbnMtc2VyaWYiIGZvbnQtc2l6ZT0iMTQiIGxlbmd0aEFkanVzdD0ic3BhY2luZyIgdGV4dExlbmd0aD0iNTgiIHg9IjYyNCIgeT0iMzM3LjE3MTkiPk15QXBwMigpPC90ZXh0PjxlbGxpcHNlIGN4PSI2MTUiIGN5PSIzNDcuOTE0MSIgZmlsbD0iIzg0QkU4NCIgcng9IjMiIHJ5PSIzIiBzdHlsZT0ic3Ryb2tlOiMwMzgwNDg7c3Ryb2tlLXdpZHRoOjEuMDsiLz48dGV4dCBmaWxsPSIjMDAwMDAwIiBmb250LWZhbWlseT0ic2Fucy1zZXJpZiIgZm9udC1zaXplPSIxNCIgbGVuZ3RoQWRqdXN0PSJzcGFjaW5nIiB0ZXh0TGVuZ3RoPSIyNjIiIHg9IjYyNCIgeT0iMzUyLjE1NjMiPmFjdGlvblBlcmZvcm1lZChBY3Rpb25FdmVudCBlKSA6IHZvaWQ8L3RleHQ+PGVsbGlwc2UgY3g9IjYxNSIgY3k9IjM2Mi44OTg0IiBmaWxsPSIjODRCRTg0IiByeD0iMyIgcnk9IjMiIHN0eWxlPSJzdHJva2U6IzAzODA0ODtzdHJva2Utd2lkdGg6MS4wOyIvPjx0ZXh0IGZpbGw9IiMwMDAwMDAiIGZvbnQtZmFtaWx5PSJzYW5zLXNlcmlmIiBmb250LXNpemU9IjE0IiBsZW5ndGhBZGp1c3Q9InNwYWNpbmciIHRleHRMZW5ndGg9IjE4NSIgeD0iNjI0IiB5PSIzNjcuMTQwNiI+bWFpbihTdHJpbmdbXSBhcmdzKSA6IHZvaWQ8L3RleHQ+PC9nPjwhLS1jbGFzcyBKRnJhbWUtLT48ZyBpZD0iZWxlbV9KRnJhbWUiPjxyZWN0IGZpbGw9IiNGMUYxRjEiIGhlaWdodD0iNDgiIGlkPSJKRnJhbWUiIHJ4PSIyLjUiIHJ5PSIyLjUiIHN0eWxlPSJzdHJva2U6IzE4MTgxODtzdHJva2Utd2lkdGg6MC41OyIgd2lkdGg9Ijc2IiB4PSI3NjMiIHk9IjQ0LjUiLz48ZWxsaXBzZSBjeD0iNzc4IiBjeT0iNjAuNSIgZmlsbD0iI0FERDFCMiIgcng9IjExIiByeT0iMTEiIHN0eWxlPSJzdHJva2U6IzE4MTgxODtzdHJva2Utd2lkdGg6MS4wOyIvPjxwYXRoIGQ9Ik03NzUuNjI1LDY0Ljc1IEw3NzUuNjI1LDY2LjUgTDc4MC41NjI1LDY2LjUgTDc4MC41NjI1LDY0Ljc1IEw3NzUuNjI1LDY0Ljc1IFogTTc3Ni4zMTI1LDY1LjQzNzUgUTc3Ni4zMTI1LDY1LjQzNzUgNzc2LjMxMjUsNTYuMjUgTDc3NC41NjI1LDU2LjI1IFE3NzQuNTYyNSw1Ni4yNSA3NzQuNTYyNSw2NS40Mzc1IEw3NzYuMzEyNSw2NS40Mzc1IFogTTc3OS44NzUsNjUuNDM3NSBMNzgxLjYyNSw2NS40Mzc1IFE3ODEuNjI1LDY1LjQzNzUgNzgxLjYyNSw2Mi42MjUgTDc3OS44NzUsNjIuNjI1IFE3NzkuODc1LDYyLjYyNSA3NzkuODc1LDY1LjQzNzUgWiBNNzc5Ljg3NSw1Ni4yNSBRNzc5Ljg3NSw1Ni4yNSA3NzkuODc1LDU5LjA2MjUgTDc4MS42MjUsNTkuMDYyNSBRNzgxLjYyNSw1OS4wNjI1IDc4MS42MjUsNTYuMjUgTDc3OS44NzUsNTYuMjUgWiBNNzc1LjYyNSw1Ni45Mzc1IEw3ODAuNTYyNSw1Ni45Mzc1IEw3ODAuNTYyNSw1NS4xODc1IEw3NzUuNjI1LDU1LjE4NzUgTDc3NS42MjUsNTYuOTM3NSBaICIgZmlsbD0iIzAwMDAwMCIvPjx0ZXh0IGZpbGw9IiMwMDAwMDAiIGZvbnQtZmFtaWx5PSJzYW5zLXNlcmlmIiBmb250LXNpemU9IjE0IiBsZW5ndGhBZGp1c3Q9InNwYWNpbmciIHRleHRMZW5ndGg9IjQ0IiB4PSI3OTIiIHk9IjY2LjI0MjIiPkpGcmFtZTwvdGV4dD48bGluZSBzdHlsZT0ic3Ryb2tlOiMxODE4MTg7c3Ryb2tlLXdpZHRoOjAuNTsiIHgxPSI3NjQiIHgyPSI4MzgiIHkxPSI3Ni41IiB5Mj0iNzYuNSIvPjxsaW5lIHN0eWxlPSJzdHJva2U6IzE4MTgxODtzdHJva2Utd2lkdGg6MC41OyIgeDE9Ijc2NCIgeDI9IjgzOCIgeTE9Ijg0LjUiIHkyPSI4NC41Ii8+PC9nPjwhLS1jbGFzcyBNeUFwcDMtLT48ZyBpZD0iZWxlbV9NeUFwcDMiPjxyZWN0IGNvZGVMaW5lPSIyMiIgZmlsbD0iI0YxRjFGMSIgaGVpZ2h0PSIyMTIuODI4MSIgaWQ9Ik15QXBwMyIgcng9IjIuNSIgcnk9IjIuNSIgc3R5bGU9InN0cm9rZTojMTgxODE4O3N0cm9rZS13aWR0aDowLjU7IiB3aWR0aD0iMjg4IiB4PSI5MjciIHk9IjE5MCIvPjxlbGxpcHNlIGN4PSIxMDQ1Ljc1IiBjeT0iMjA2IiBmaWxsPSIjQUREMUIyIiByeD0iMTEiIHJ5PSIxMSIgc3R5bGU9InN0cm9rZTojMTgxODE4O3N0cm9rZS13aWR0aDoxLjA7Ii8+PHBhdGggZD0iTTEwNDMuMzc1LDIxMC4yNSBMMTA0My4zNzUsMjEyIEwxMDQ4LjMxMjUsMjEyIEwxMDQ4LjMxMjUsMjEwLjI1IEwxMDQzLjM3NSwyMTAuMjUgWiBNMTA0NC4wNjI1LDIxMC45Mzc1IFExMDQ0LjA2MjUsMjEwLjkzNzUgMTA0NC4wNjI1LDIwMS43NSBMMTA0Mi4zMTI1LDIwMS43NSBRMTA0Mi4zMTI1LDIwMS43NSAxMDQyLjMxMjUsMjEwLjkzNzUgTDEwNDQuMDYyNSwyMTAuOTM3NSBaIE0xMDQ3LjYyNSwyMTAuOTM3NSBMMTA0OS4zNzUsMjEwLjkzNzUgUTEwNDkuMzc1LDIxMC45Mzc1IDEwNDkuMzc1LDIwOC4xMjUgTDEwNDcuNjI1LDIwOC4xMjUgUTEwNDcuNjI1LDIwOC4xMjUgMTA0Ny42MjUsMjEwLjkzNzUgWiBNMTA0Ny42MjUsMjAxLjc1IFExMDQ3LjYyNSwyMDEuNzUgMTA0Ny42MjUsMjA0LjU2MjUgTDEwNDkuMzc1LDIwNC41NjI1IFExMDQ5LjM3NSwyMDQuNTYyNSAxMDQ5LjM3NSwyMDEuNzUgTDEwNDcuNjI1LDIwMS43NSBaIE0xMDQzLjM3NSwyMDIuNDM3NSBMMTA0OC4zMTI1LDIwMi40Mzc1IEwxMDQ4LjMxMjUsMjAwLjY4NzUgTDEwNDMuMzc1LDIwMC42ODc1IEwxMDQzLjM3NSwyMDIuNDM3NSBaICIgZmlsbD0iIzAwMDAwMCIvPjx0ZXh0IGZpbGw9IiMwMDAwMDAiIGZvbnQtZmFtaWx5PSJzYW5zLXNlcmlmIiBmb250LXNpemU9IjE0IiBsZW5ndGhBZGp1c3Q9InNwYWNpbmciIHRleHRMZW5ndGg9IjQyIiB4PSIxMDY2LjI1IiB5PSIyMTEuNzQyMiI+TXlBcHAzPC90ZXh0PjxsaW5lIHN0eWxlPSJzdHJva2U6IzE4MTgxODtzdHJva2Utd2lkdGg6MC41OyIgeDE9IjkyOCIgeDI9IjEyMTQiIHkxPSIyMjIiIHkyPSIyMjIiLz48cmVjdCBmaWxsPSJub25lIiBoZWlnaHQ9IjYiIHN0eWxlPSJzdHJva2U6I0M4MjkzMDtzdHJva2Utd2lkdGg6MS4wOyIgd2lkdGg9IjYiIHg9IjkzNSIgeT0iMjMxLjk5MjIiLz48dGV4dCBmaWxsPSIjMDAwMDAwIiBmb250LWZhbWlseT0ic2Fucy1zZXJpZiIgZm9udC1zaXplPSIxNCIgbGVuZ3RoQWRqdXN0PSJzcGFjaW5nIiB0ZXh0TGVuZ3RoPSIxNDEiIHg9Ijk0NyIgeT0iMjM5LjIzNDQiPkpUZXh0QXJlYSBvdXRwdXRBcmVhPC90ZXh0PjxyZWN0IGZpbGw9Im5vbmUiIGhlaWdodD0iNiIgc3R5bGU9InN0cm9rZTojQzgyOTMwO3N0cm9rZS13aWR0aDoxLjA7IiB3aWR0aD0iNiIgeD0iOTM1IiB5PSIyNDYuOTc2NiIvPjx0ZXh0IGZpbGw9IiMwMDAwMDAiIGZvbnQtZmFtaWx5PSJzYW5zLXNlcmlmIiBmb250LXNpemU9IjE0IiBsZW5ndGhBZGp1c3Q9InNwYWNpbmciIHRleHRMZW5ndGg9IjEzNCIgeD0iOTQ3IiB5PSIyNTQuMjE4OCI+SkJ1dHRvbiBzdGFydEJ1dHRvbjwvdGV4dD48cmVjdCBmaWxsPSJub25lIiBoZWlnaHQ9IjYiIHN0eWxlPSJzdHJva2U6I0M4MjkzMDtzdHJva2Utd2lkdGg6MS4wOyIgd2lkdGg9IjYiIHg9IjkzNSIgeT0iMjYxLjk2MDkiLz48dGV4dCBmaWxsPSIjMDAwMDAwIiBmb250LWZhbWlseT0ic2Fucy1zZXJpZiIgZm9udC1zaXplPSIxNCIgbGVuZ3RoQWRqdXN0PSJzcGFjaW5nIiB0ZXh0TGVuZ3RoPSIxMjciIHg9Ijk0NyIgeT0iMjY5LjIwMzEiPkpCdXR0b24gc3RvcEJ1dHRvbjwvdGV4dD48cmVjdCBmaWxsPSJub25lIiBoZWlnaHQ9IjYiIHN0eWxlPSJzdHJva2U6I0M4MjkzMDtzdHJva2Utd2lkdGg6MS4wOyIgd2lkdGg9IjYiIHg9IjkzNSIgeT0iMjc2Ljk0NTMiLz48dGV4dCBmaWxsPSIjMDAwMDAwIiBmb250LWZhbWlseT0ic2Fucy1zZXJpZiIgZm9udC1zaXplPSIxNCIgbGVuZ3RoQWRqdXN0PSJzcGFjaW5nIiB0ZXh0TGVuZ3RoPSIxMDUiIHg9Ijk0NyIgeT0iMjg0LjE4NzUiPlByb2Nlc3MgcHJvY2VzczwvdGV4dD48cmVjdCBmaWxsPSJub25lIiBoZWlnaHQ9IjYiIHN0eWxlPSJzdHJva2U6I0M4MjkzMDtzdHJva2Utd2lkdGg6MS4wOyIgd2lkdGg9IjYiIHg9IjkzNSIgeT0iMjkxLjkyOTciLz48dGV4dCBmaWxsPSIjMDAwMDAwIiBmb250LWZhbWlseT0ic2Fucy1zZXJpZiIgZm9udC1zaXplPSIxNCIgbGVuZ3RoQWRqdXN0PSJzcGFjaW5nIiB0ZXh0TGVuZ3RoPSIxNjgiIHg9Ijk0NyIgeT0iMjk5LjE3MTkiPkV4ZWN1dG9yU2VydmljZSBleGVjdXRvcjwvdGV4dD48cmVjdCBmaWxsPSJub25lIiBoZWlnaHQ9IjYiIHN0eWxlPSJzdHJva2U6I0M4MjkzMDtzdHJva2Utd2lkdGg6MS4wOyIgd2lkdGg9IjYiIHg9IjkzNSIgeT0iMzA2LjkxNDEiLz48dGV4dCBmaWxsPSIjMDAwMDAwIiBmb250LWZhbWlseT0ic2Fucy1zZXJpZiIgZm9udC1zaXplPSIxNCIgbGVuZ3RoQWRqdXN0PSJzcGFjaW5nIiB0ZXh0TGVuZ3RoPSIyMTkiIHg9Ijk0NyIgeT0iMzE0LjE1NjMiPkNvbWJpbmVkRGlzcGxheSBjb21iaW5lZERpc3BsYXk8L3RleHQ+PGxpbmUgc3R5bGU9InN0cm9rZTojMTgxODE4O3N0cm9rZS13aWR0aDowLjU7IiB4MT0iOTI4IiB4Mj0iMTIxNCIgeTE9IjMxOS45MDYzIiB5Mj0iMzE5LjkwNjMiLz48ZWxsaXBzZSBjeD0iOTM4IiBjeT0iMzMyLjg5ODQiIGZpbGw9IiM4NEJFODQiIHJ4PSIzIiByeT0iMyIgc3R5bGU9InN0cm9rZTojMDM4MDQ4O3N0cm9rZS13aWR0aDoxLjA7Ii8+PHRleHQgZmlsbD0iIzAwMDAwMCIgZm9udC1mYW1pbHk9InNhbnMtc2VyaWYiIGZvbnQtc2l6ZT0iMTQiIGxlbmd0aEFkanVzdD0ic3BhY2luZyIgdGV4dExlbmd0aD0iNTgiIHg9Ijk0NyIgeT0iMzM3LjE0MDYiPk15QXBwMygpPC90ZXh0PjxlbGxpcHNlIGN4PSI5MzgiIGN5PSIzNDcuODgyOCIgZmlsbD0iIzg0QkU4NCIgcng9IjMiIHJ5PSIzIiBzdHlsZT0ic3Ryb2tlOiMwMzgwNDg7c3Ryb2tlLXdpZHRoOjEuMDsiLz48dGV4dCBmaWxsPSIjMDAwMDAwIiBmb250LWZhbWlseT0ic2Fucy1zZXJpZiIgZm9udC1zaXplPSIxNCIgbGVuZ3RoQWRqdXN0PSJzcGFjaW5nIiB0ZXh0TGVuZ3RoPSIyNjIiIHg9Ijk0NyIgeT0iMzUyLjEyNSI+YWN0aW9uUGVyZm9ybWVkKEFjdGlvbkV2ZW50IGUpIDogdm9pZDwvdGV4dD48ZWxsaXBzZSBjeD0iOTM4IiBjeT0iMzYyLjg2NzIiIGZpbGw9IiM4NEJFODQiIHJ4PSIzIiByeT0iMyIgc3R5bGU9InN0cm9rZTojMDM4MDQ4O3N0cm9rZS13aWR0aDoxLjA7Ii8+PHRleHQgZmlsbD0iIzAwMDAwMCIgZm9udC1mYW1pbHk9InNhbnMtc2VyaWYiIGZvbnQtc2l6ZT0iMTQiIGxlbmd0aEFkanVzdD0ic3BhY2luZyIgdGV4dExlbmd0aD0iMTQ5IiB4PSI5NDciIHk9IjM2Ny4xMDk0Ij5zdGFydFByb2Nlc3MoKSA6IHZvaWQ8L3RleHQ+PGVsbGlwc2UgY3g9IjkzOCIgY3k9IjM3Ny44NTE2IiBmaWxsPSIjODRCRTg0IiByeD0iMyIgcnk9IjMiIHN0eWxlPSJzdHJva2U6IzAzODA0ODtzdHJva2Utd2lkdGg6MS4wOyIvPjx0ZXh0IGZpbGw9IiMwMDAwMDAiIGZvbnQtZmFtaWx5PSJzYW5zLXNlcmlmIiBmb250LXNpemU9IjE0IiBsZW5ndGhBZGp1c3Q9InNwYWNpbmciIHRleHRMZW5ndGg9IjE0MiIgeD0iOTQ3IiB5PSIzODIuMDkzOCI+c3RvcFByb2Nlc3MoKSA6IHZvaWQ8L3RleHQ+PGVsbGlwc2UgY3g9IjkzOCIgY3k9IjM5Mi44MzU5IiBmaWxsPSIjODRCRTg0IiByeD0iMyIgcnk9IjMiIHN0eWxlPSJzdHJva2U6IzAzODA0ODtzdHJva2Utd2lkdGg6MS4wOyIvPjx0ZXh0IGZpbGw9IiMwMDAwMDAiIGZvbnQtZmFtaWx5PSJzYW5zLXNlcmlmIiBmb250LXNpemU9IjE0IiBsZW5ndGhBZGp1c3Q9InNwYWNpbmciIHRleHRMZW5ndGg9IjE4NSIgeD0iOTQ3IiB5PSIzOTcuMDc4MSI+bWFpbihTdHJpbmdbXSBhcmdzKSA6IHZvaWQ8L3RleHQ+PC9nPjwhLS1jbGFzcyBDb21iaW5lZERpc3BsYXktLT48ZyBpZD0iZWxlbV9Db21iaW5lZERpc3BsYXkiPjxyZWN0IGNvZGVMaW5lPSIzNiIgZmlsbD0iI0YxRjFGMSIgaGVpZ2h0PSIzNDcuNjg3NSIgaWQ9IkNvbWJpbmVkRGlzcGxheSIgcng9IjIuNSIgcnk9IjIuNSIgc3R5bGU9InN0cm9rZTojMTgxODE4O3N0cm9rZS13aWR0aDowLjU7IiB3aWR0aD0iMjY2IiB4PSI2MTUiIHk9IjQ2MyIvPjxlbGxpcHNlIGN4PSI2OTAuNzUiIGN5PSI0NzkiIGZpbGw9IiNBREQxQjIiIHJ4PSIxMSIgcnk9IjExIiBzdHlsZT0ic3Ryb2tlOiMxODE4MTg7c3Ryb2tlLXdpZHRoOjEuMDsiLz48cGF0aCBkPSJNNjg4LjM3NSw0ODMuMjUgTDY4OC4zNzUsNDg1IEw2OTMuMzEyNSw0ODUgTDY5My4zMTI1LDQ4My4yNSBMNjg4LjM3NSw0ODMuMjUgWiBNNjg5LjA2MjUsNDgzLjkzNzUgUTY4OS4wNjI1LDQ4My45Mzc1IDY4OS4wNjI1LDQ3NC43NSBMNjg3LjMxMjUsNDc0Ljc1IFE2ODcuMzEyNSw0NzQuNzUgNjg3LjMxMjUsNDgzLjkzNzUgTDY4OS4wNjI1LDQ4My45Mzc1IFogTTY5Mi42MjUsNDgzLjkzNzUgTDY5NC4zNzUsNDgzLjkzNzUgUTY5NC4zNzUsNDgzLjkzNzUgNjk0LjM3NSw0ODEuMTI1IEw2OTIuNjI1LDQ4MS4xMjUgUTY5Mi42MjUsNDgxLjEyNSA2OTIuNjI1LDQ4My45Mzc1IFogTTY5Mi42MjUsNDc0Ljc1IFE2OTIuNjI1LDQ3NC43NSA2OTIuNjI1LDQ3Ny41NjI1IEw2OTQuMzc1LDQ3Ny41NjI1IFE2OTQuMzc1LDQ3Ny41NjI1IDY5NC4zNzUsNDc0Ljc1IEw2OTIuNjI1LDQ3NC43NSBaIE02ODguMzc1LDQ3NS40Mzc1IEw2OTMuMzEyNSw0NzUuNDM3NSBMNjkzLjMxMjUsNDczLjY4NzUgTDY4OC4zNzUsNDczLjY4NzUgTDY4OC4zNzUsNDc1LjQzNzUgWiAiIGZpbGw9IiMwMDAwMDAiLz48dGV4dCBmaWxsPSIjMDAwMDAwIiBmb250LWZhbWlseT0ic2Fucy1zZXJpZiIgZm9udC1zaXplPSIxNCIgbGVuZ3RoQWRqdXN0PSJzcGFjaW5nIiB0ZXh0TGVuZ3RoPSIxMDYiIHg9IjcxMS4yNSIgeT0iNDg0Ljc0MjIiPkNvbWJpbmVkRGlzcGxheTwvdGV4dD48bGluZSBzdHlsZT0ic3Ryb2tlOiMxODE4MTg7c3Ryb2tlLXdpZHRoOjAuNTsiIHgxPSI2MTYiIHgyPSI4ODAiIHkxPSI0OTUiIHkyPSI0OTUiLz48cmVjdCBmaWxsPSJub25lIiBoZWlnaHQ9IjYiIHN0eWxlPSJzdHJva2U6I0M4MjkzMDtzdHJva2Utd2lkdGg6MS4wOyIgd2lkdGg9IjYiIHg9IjYyMyIgeT0iNTA0Ljk5MjIiLz48dGV4dCBmaWxsPSIjMDAwMDAwIiBmb250LWZhbWlseT0ic2Fucy1zZXJpZiIgZm9udC1zaXplPSIxNCIgbGVuZ3RoQWRqdXN0PSJzcGFjaW5nIiB0ZXh0TGVuZ3RoPSIyNDAiIHg9IjYzNSIgeT0iNTEyLjIzNDQiPkxpc3QmbHQ7QWR2ZXJ0aXNlbWVudCZndDsgYWR2ZXJ0aXNlbWVudHM8L3RleHQ+PHJlY3QgZmlsbD0ibm9uZSIgaGVpZ2h0PSI2IiBzdHlsZT0ic3Ryb2tlOiNDODI5MzA7c3Ryb2tlLXdpZHRoOjEuMDsiIHdpZHRoPSI2IiB4PSI2MjMiIHk9IjUxOS45NzY2Ii8+PHRleHQgZmlsbD0iIzAwMDAwMCIgZm9udC1mYW1pbHk9InNhbnMtc2VyaWYiIGZvbnQtc2l6ZT0iMTQiIGxlbmd0aEFkanVzdD0ic3BhY2luZyIgdGV4dExlbmd0aD0iOTkiIHg9IjYzNSIgeT0iNTI3LjIxODgiPkpQYW5lbCBhZFBhbmVsPC90ZXh0PjxyZWN0IGZpbGw9Im5vbmUiIGhlaWdodD0iNiIgc3R5bGU9InN0cm9rZTojQzgyOTMwO3N0cm9rZS13aWR0aDoxLjA7IiB3aWR0aD0iNiIgeD0iNjIzIiB5PSI1MzQuOTYwOSIvPjx0ZXh0IGZpbGw9IiMwMDAwMDAiIGZvbnQtZmFtaWx5PSJzYW5zLXNlcmlmIiBmb250LXNpemU9IjE0IiBsZW5ndGhBZGp1c3Q9InNwYWNpbmciIHRleHRMZW5ndGg9IjEzNSIgeD0iNjM1IiB5PSI1NDIuMjAzMSI+SkxhYmVsIGFkSW1hZ2VMYWJlbDwvdGV4dD48cmVjdCBmaWxsPSJub25lIiBoZWlnaHQ9IjYiIHN0eWxlPSJzdHJva2U6I0M4MjkzMDtzdHJva2Utd2lkdGg6MS4wOyIgd2lkdGg9IjYiIHg9IjYyMyIgeT0iNTQ5Ljk0NTMiLz48dGV4dCBmaWxsPSIjMDAwMDAwIiBmb250LWZhbWlseT0ic2Fucy1zZXJpZiIgZm9udC1zaXplPSIxNCIgbGVuZ3RoQWRqdXN0PSJzcGFjaW5nIiB0ZXh0TGVuZ3RoPSIxMzQiIHg9IjYzNSIgeT0iNTU3LjE4NzUiPkpMYWJlbCBhZFRpdGxlTGFiZWw8L3RleHQ+PHJlY3QgZmlsbD0ibm9uZSIgaGVpZ2h0PSI2IiBzdHlsZT0ic3Ryb2tlOiNDODI5MzA7c3Ryb2tlLXdpZHRoOjEuMDsiIHdpZHRoPSI2IiB4PSI2MjMiIHk9IjU2NC45Mjk3Ii8+PHRleHQgZmlsbD0iIzAwMDAwMCIgZm9udC1mYW1pbHk9InNhbnMtc2VyaWYiIGZvbnQtc2l6ZT0iMTQiIGxlbmd0aEFkanVzdD0ic3BhY2luZyIgdGV4dExlbmd0aD0iMTYzIiB4PSI2MzUiIHk9IjU3Mi4xNzE5Ij5KTGFiZWwgdGVtcGVyYXR1cmVMYWJlbDwvdGV4dD48cmVjdCBmaWxsPSJub25lIiBoZWlnaHQ9IjYiIHN0eWxlPSJzdHJva2U6I0M4MjkzMDtzdHJva2Utd2lkdGg6MS4wOyIgd2lkdGg9IjYiIHg9IjYyMyIgeT0iNTc5LjkxNDEiLz48dGV4dCBmaWxsPSIjMDAwMDAwIiBmb250LWZhbWlseT0ic2Fucy1zZXJpZiIgZm9udC1zaXplPSIxNCIgbGVuZ3RoQWRqdXN0PSJzcGFjaW5nIiB0ZXh0TGVuZ3RoPSIxNDgiIHg9IjYzNSIgeT0iNTg3LjE1NjMiPkpMYWJlbCBjb25kaXRpb25MYWJlbDwvdGV4dD48cmVjdCBmaWxsPSJub25lIiBoZWlnaHQ9IjYiIHN0eWxlPSJzdHJva2U6I0M4MjkzMDtzdHJva2Utd2lkdGg6MS4wOyIgd2lkdGg9IjYiIHg9IjYyMyIgeT0iNTk0Ljg5ODQiLz48dGV4dCBmaWxsPSIjMDAwMDAwIiBmb250LWZhbWlseT0ic2Fucy1zZXJpZiIgZm9udC1zaXplPSIxNCIgbGVuZ3RoQWRqdXN0PSJzcGFjaW5nIiB0ZXh0TGVuZ3RoPSIxNTYiIHg9IjYzNSIgeT0iNjAyLjE0MDYiPkpUZXh0UGFuZSBuZXdzVGV4dFBhbmU8L3RleHQ+PHJlY3QgZmlsbD0ibm9uZSIgaGVpZ2h0PSI2IiBzdHlsZT0ic3Ryb2tlOiNDODI5MzA7c3Ryb2tlLXdpZHRoOjEuMDsiIHdpZHRoPSI2IiB4PSI2MjMiIHk9IjYwOS44ODI4Ii8+PHRleHQgZmlsbD0iIzAwMDAwMCIgZm9udC1mYW1pbHk9InNhbnMtc2VyaWYiIGZvbnQtc2l6ZT0iMTQiIGxlbmd0aEFkanVzdD0ic3BhY2luZyIgdGV4dExlbmd0aD0iMTcwIiB4PSI2MzUiIHk9IjYxNy4xMjUiPkpMYWJlbCBicmVha2luZ05ld3NMYWJlbDwvdGV4dD48cmVjdCBmaWxsPSJub25lIiBoZWlnaHQ9IjYiIHN0eWxlPSJzdHJva2U6I0M4MjkzMDtzdHJva2Utd2lkdGg6MS4wOyIgd2lkdGg9IjYiIHg9IjYyMyIgeT0iNjI0Ljg2NzIiLz48dGV4dCBmaWxsPSIjMDAwMDAwIiBmb250LWZhbWlseT0ic2Fucy1zZXJpZiIgZm9udC1zaXplPSIxNCIgbGVuZ3RoQWRqdXN0PSJzcGFjaW5nIiB0ZXh0TGVuZ3RoPSIxMjYiIHg9IjYzNSIgeT0iNjMyLjEwOTQiPmludCBjdXJyZW50QWRJbmRleDwvdGV4dD48cmVjdCBmaWxsPSJub25lIiBoZWlnaHQ9IjYiIHN0eWxlPSJzdHJva2U6I0M4MjkzMDtzdHJva2Utd2lkdGg6MS4wOyIgd2lkdGg9IjYiIHg9IjYyMyIgeT0iNjM5Ljg1MTYiLz48dGV4dCBmaWxsPSIjMDAwMDAwIiBmb250LWZhbWlseT0ic2Fucy1zZXJpZiIgZm9udC1zaXplPSIxNCIgbGVuZ3RoQWRqdXN0PSJzcGFjaW5nIiB0ZXh0TGVuZ3RoPSI5MyIgeD0iNjM1IiB5PSI2NDcuMDkzOCI+VGltZXIgYWRUaW1lcjwvdGV4dD48cmVjdCBmaWxsPSJub25lIiBoZWlnaHQ9IjYiIHN0eWxlPSJzdHJva2U6I0M4MjkzMDtzdHJva2Utd2lkdGg6MS4wOyIgd2lkdGg9IjYiIHg9IjYyMyIgeT0iNjU0LjgzNTkiLz48dGV4dCBmaWxsPSIjMDAwMDAwIiBmb250LWZhbWlseT0ic2Fucy1zZXJpZiIgZm9udC1zaXplPSIxNCIgbGVuZ3RoQWRqdXN0PSJzcGFjaW5nIiB0ZXh0TGVuZ3RoPSIxMDEiIHg9IjYzNSIgeT0iNjYyLjA3ODEiPlRpbWVyIG1hcFRpbWVyPC90ZXh0PjxyZWN0IGZpbGw9Im5vbmUiIGhlaWdodD0iNiIgc3R5bGU9InN0cm9rZTojQzgyOTMwO3N0cm9rZS13aWR0aDoxLjA7IiB3aWR0aD0iNiIgeD0iNjIzIiB5PSI2NjkuODIwMyIvPjx0ZXh0IGZpbGw9IiMwMDAwMDAiIGZvbnQtZmFtaWx5PSJzYW5zLXNlcmlmIiBmb250LXNpemU9IjE0IiBsZW5ndGhBZGp1c3Q9InNwYWNpbmciIHRleHRMZW5ndGg9IjEyMCIgeD0iNjM1IiB5PSI2NzcuMDYyNSI+aW50IGFkRGlzcGxheVRpbWU8L3RleHQ+PHJlY3QgZmlsbD0ibm9uZSIgaGVpZ2h0PSI2IiBzdHlsZT0ic3Ryb2tlOiNDODI5MzA7c3Ryb2tlLXdpZHRoOjEuMDsiIHdpZHRoPSI2IiB4PSI2MjMiIHk9IjY4NC44MDQ3Ii8+PHRleHQgZmlsbD0iIzAwMDAwMCIgZm9udC1mYW1pbHk9InNhbnMtc2VyaWYiIGZvbnQtc2l6ZT0iMTQiIGxlbmd0aEFkanVzdD0ic3BhY2luZyIgdGV4dExlbmd0aD0iMTI4IiB4PSI2MzUiIHk9IjY5Mi4wNDY5Ij5pbnQgbWFwRGlzcGxheVRpbWU8L3RleHQ+PHJlY3QgZmlsbD0ibm9uZSIgaGVpZ2h0PSI2IiBzdHlsZT0ic3Ryb2tlOiNDODI5MzA7c3Ryb2tlLXdpZHRoOjEuMDsiIHdpZHRoPSI2IiB4PSI2MjMiIHk9IjY5OS43ODkxIi8+PHRleHQgZmlsbD0iIzAwMDAwMCIgZm9udC1mYW1pbHk9InNhbnMtc2VyaWYiIGZvbnQtc2l6ZT0iMTQiIGxlbmd0aEFkanVzdD0ic3BhY2luZyIgdGV4dExlbmd0aD0iMTI3IiB4PSI2MzUiIHk9IjcwNy4wMzEzIj5ib29sZWFuIHNob3dpbmdBZHM8L3RleHQ+PHJlY3QgZmlsbD0ibm9uZSIgaGVpZ2h0PSI2IiBzdHlsZT0ic3Ryb2tlOiNDODI5MzA7c3Ryb2tlLXdpZHRoOjEuMDsiIHdpZHRoPSI2IiB4PSI2MjMiIHk9IjcxNC43NzM0Ii8+PHRleHQgZmlsbD0iIzAwMDAwMCIgZm9udC1mYW1pbHk9InNhbnMtc2VyaWYiIGZvbnQtc2l6ZT0iMTQiIGxlbmd0aEFkanVzdD0ic3BhY2luZyIgdGV4dExlbmd0aD0iMTU2IiB4PSI2MzUiIHk9IjcyMi4wMTU2Ij5KUGFuZWwgc2ltdWxhdGlvblBhbmVsPC90ZXh0PjxyZWN0IGZpbGw9Im5vbmUiIGhlaWdodD0iNiIgc3R5bGU9InN0cm9rZTojQzgyOTMwO3N0cm9rZS13aWR0aDoxLjA7IiB3aWR0aD0iNiIgeD0iNjIzIiB5PSI3MjkuNzU3OCIvPjx0ZXh0IGZpbGw9IiMwMDAwMDAiIGZvbnQtZmFtaWx5PSJzYW5zLXNlcmlmIiBmb250LXNpemU9IjE0IiBsZW5ndGhBZGp1c3Q9InNwYWNpbmciIHRleHRMZW5ndGg9IjEwNyIgeD0iNjM1IiB5PSI3MzciPkpQYW5lbCBtYXBQYW5lbDwvdGV4dD48cmVjdCBmaWxsPSJub25lIiBoZWlnaHQ9IjYiIHN0eWxlPSJzdHJva2U6I0M4MjkzMDtzdHJva2Utd2lkdGg6MS4wOyIgd2lkdGg9IjYiIHg9IjYyMyIgeT0iNzQ0Ljc0MjIiLz48dGV4dCBmaWxsPSIjMDAwMDAwIiBmb250LWZhbWlseT0ic2Fucy1zZXJpZiIgZm9udC1zaXplPSIxNCIgbGVuZ3RoQWRqdXN0PSJzcGFjaW5nIiB0ZXh0TGVuZ3RoPSIyMzgiIHg9IjYzNSIgeT0iNzUxLjk4NDQiPlRyYWluU3RhdGlvbkRpc3BsYXkgc3RhdGlvbkRpc3BsYXk8L3RleHQ+PHJlY3QgZmlsbD0ibm9uZSIgaGVpZ2h0PSI2IiBzdHlsZT0ic3Ryb2tlOiNDODI5MzA7c3Ryb2tlLXdpZHRoOjEuMDsiIHdpZHRoPSI2IiB4PSI2MjMiIHk9Ijc1OS43MjY2Ii8+PHRleHQgZmlsbD0iIzAwMDAwMCIgZm9udC1mYW1pbHk9InNhbnMtc2VyaWYiIGZvbnQtc2l6ZT0iMTQiIGxlbmd0aEFkanVzdD0ic3BhY2luZyIgdGV4dExlbmd0aD0iMTcwIiB4PSI2MzUiIHk9Ijc2Ni45Njg4Ij5KU3BsaXRQYW5lIG1haW5TcGxpdFBhbmU8L3RleHQ+PHJlY3QgZmlsbD0ibm9uZSIgaGVpZ2h0PSI2IiBzdHlsZT0ic3Ryb2tlOiNDODI5MzA7c3Ryb2tlLXdpZHRoOjEuMDsiIHdpZHRoPSI2IiB4PSI2MjMiIHk9Ijc3NC43MTA5Ii8+PHRleHQgZmlsbD0iIzAwMDAwMCIgZm9udC1mYW1pbHk9InNhbnMtc2VyaWYiIGZvbnQtc2l6ZT0iMTQiIGxlbmd0aEFkanVzdD0ic3BhY2luZyIgdGV4dExlbmd0aD0iMTg0IiB4PSI2MzUiIHk9Ijc4MS45NTMxIj5KU3BsaXRQYW5lIGFkTmV3c1NwbGl0UGFuZTwvdGV4dD48bGluZSBzdHlsZT0ic3Ryb2tlOiMxODE4MTg7c3Ryb2tlLXdpZHRoOjAuNTsiIHgxPSI2MTYiIHgyPSI4ODAiIHkxPSI3ODcuNzAzMSIgeTI9Ijc4Ny43MDMxIi8+PGVsbGlwc2UgY3g9IjYyNiIgY3k9IjgwMC42OTUzIiBmaWxsPSIjODRCRTg0IiByeD0iMyIgcnk9IjMiIHN0eWxlPSJzdHJva2U6IzAzODA0ODtzdHJva2Utd2lkdGg6MS4wOyIvPjx0ZXh0IGZpbGw9IiMwMDAwMDAiIGZvbnQtZmFtaWx5PSJzYW5zLXNlcmlmIiBmb250LXNpemU9IjE0IiBsZW5ndGhBZGp1c3Q9InNwYWNpbmciIHRleHRMZW5ndGg9IjEyMiIgeD0iNjM1IiB5PSI4MDQuOTM3NSI+Q29tYmluZWREaXNwbGF5KCk8L3RleHQ+PC9nPjwhLS1jbGFzcyBNYXBQYW5lbC0tPjxnIGlkPSJlbGVtX01hcFBhbmVsIj48cmVjdCBjb2RlTGluZT0iNTkiIGZpbGw9IiNGMUYxRjEiIGhlaWdodD0iMTA3LjkzNzUiIGlkPSJNYXBQYW5lbCIgcng9IjIuNSIgcnk9IjIuNSIgc3R5bGU9InN0cm9rZTojMTgxODE4O3N0cm9rZS13aWR0aDowLjU7IiB3aWR0aD0iMzcxIiB4PSIxMDgxLjUiIHk9Ijg3MSIvPjxlbGxpcHNlIGN4PSIxMjM0Ljc1IiBjeT0iODg3IiBmaWxsPSIjQUREMUIyIiByeD0iMTEiIHJ5PSIxMSIgc3R5bGU9InN0cm9rZTojMTgxODE4O3N0cm9rZS13aWR0aDoxLjA7Ii8+PHBhdGggZD0iTTEyMzIuMzc1LDg5MS4yNSBMMTIzMi4zNzUsODkzIEwxMjM3LjMxMjUsODkzIEwxMjM3LjMxMjUsODkxLjI1IEwxMjMyLjM3NSw4OTEuMjUgWiBNMTIzMy4wNjI1LDg5MS45Mzc1IFExMjMzLjA2MjUsODkxLjkzNzUgMTIzMy4wNjI1LDg4Mi43NSBMMTIzMS4zMTI1LDg4Mi43NSBRMTIzMS4zMTI1LDg4Mi43NSAxMjMxLjMxMjUsODkxLjkzNzUgTDEyMzMuMDYyNSw4OTEuOTM3NSBaIE0xMjM2LjYyNSw4OTEuOTM3NSBMMTIzOC4zNzUsODkxLjkzNzUgUTEyMzguMzc1LDg5MS45Mzc1IDEyMzguMzc1LDg4OS4xMjUgTDEyMzYuNjI1LDg4OS4xMjUgUTEyMzYuNjI1LDg4OS4xMjUgMTIzNi42MjUsODkxLjkzNzUgWiBNMTIzNi42MjUsODgyLjc1IFExMjM2LjYyNSw4ODIuNzUgMTIzNi42MjUsODg1LjU2MjUgTDEyMzguMzc1LDg4NS41NjI1IFExMjM4LjM3NSw4ODUuNTYyNSAxMjM4LjM3NSw4ODIuNzUgTDEyMzYuNjI1LDg4Mi43NSBaIE0xMjMyLjM3NSw4ODMuNDM3NSBMMTIzNy4zMTI1LDg4My40Mzc1IEwxMjM3LjMxMjUsODgxLjY4NzUgTDEyMzIuMzc1LDg4MS42ODc1IEwxMjMyLjM3NSw4ODMuNDM3NSBaICIgZmlsbD0iIzAwMDAwMCIvPjx0ZXh0IGZpbGw9IiMwMDAwMDAiIGZvbnQtZmFtaWx5PSJzYW5zLXNlcmlmIiBmb250LXNpemU9IjE0IiBsZW5ndGhBZGp1c3Q9InNwYWNpbmciIHRleHRMZW5ndGg9IjU2IiB4PSIxMjU1LjI1IiB5PSI4OTIuNzQyMiI+TWFwUGFuZWw8L3RleHQ+PGxpbmUgc3R5bGU9InN0cm9rZTojMTgxODE4O3N0cm9rZS13aWR0aDowLjU7IiB4MT0iMTA4Mi41IiB4Mj0iMTQ1MS41IiB5MT0iOTAzIiB5Mj0iOTAzIi8+PHJlY3QgZmlsbD0ibm9uZSIgaGVpZ2h0PSI2IiBzdHlsZT0ic3Ryb2tlOiNDODI5MzA7c3Ryb2tlLXdpZHRoOjEuMDsiIHdpZHRoPSI2IiB4PSIxMDg5LjUiIHk9IjkxMi45OTIyIi8+PHRleHQgZmlsbD0iIzAwMDAwMCIgZm9udC1mYW1pbHk9InNhbnMtc2VyaWYiIGZvbnQtc2l6ZT0iMTQiIGxlbmd0aEFkanVzdD0ic3BhY2luZyIgdGV4dExlbmd0aD0iMjY3IiB4PSIxMTAxLjUiIHk9IjkyMC4yMzQ0Ij5NYXAmbHQ7U3RyaW5nLCBMaXN0Jmx0O1N0YXRpb24mZ3Q7Jmd0OyBzdWJ3YXlMaW5lczwvdGV4dD48cmVjdCBmaWxsPSJub25lIiBoZWlnaHQ9IjYiIHN0eWxlPSJzdHJva2U6I0M4MjkzMDtzdHJva2Utd2lkdGg6MS4wOyIgd2lkdGg9IjYiIHg9IjEwODkuNSIgeT0iOTI3Ljk3NjYiLz48dGV4dCBmaWxsPSIjMDAwMDAwIiBmb250LWZhbWlseT0ic2Fucy1zZXJpZiIgZm9udC1zaXplPSIxNCIgbGVuZ3RoQWRqdXN0PSJzcGFjaW5nIiB0ZXh0TGVuZ3RoPSIxMjYiIHg9IjExMDEuNSIgeT0iOTM1LjIxODgiPkxpc3QmbHQ7VHJhaW4mZ3Q7IHRyYWluczwvdGV4dD48bGluZSBzdHlsZT0ic3Ryb2tlOiMxODE4MTg7c3Ryb2tlLXdpZHRoOjAuNTsiIHgxPSIxMDgyLjUiIHgyPSIxNDUxLjUiIHkxPSI5NDAuOTY4OCIgeTI9Ijk0MC45Njg4Ii8+PGVsbGlwc2UgY3g9IjEwOTIuNSIgY3k9Ijk1My45NjA5IiBmaWxsPSIjODRCRTg0IiByeD0iMyIgcnk9IjMiIHN0eWxlPSJzdHJva2U6IzAzODA0ODtzdHJva2Utd2lkdGg6MS4wOyIvPjx0ZXh0IGZpbGw9IiMwMDAwMDAiIGZvbnQtZmFtaWx5PSJzYW5zLXNlcmlmIiBmb250LXNpemU9IjE0IiBsZW5ndGhBZGp1c3Q9InNwYWNpbmciIHRleHRMZW5ndGg9IjM0NSIgeD0iMTEwMS41IiB5PSI5NTguMjAzMSI+TWFwUGFuZWwoTWFwJmx0O1N0cmluZywgTGlzdCZsdDtTdGF0aW9uJmd0OyZndDssIExpc3QmbHQ7VHJhaW4mZ3Q7KTwvdGV4dD48ZWxsaXBzZSBjeD0iMTA5Mi41IiBjeT0iOTY4Ljk0NTMiIGZpbGw9IiM4NEJFODQiIHJ4PSIzIiByeT0iMyIgc3R5bGU9InN0cm9rZTojMDM4MDQ4O3N0cm9rZS13aWR0aDoxLjA7Ii8+PHRleHQgZmlsbD0iIzAwMDAwMCIgZm9udC1mYW1pbHk9InNhbnMtc2VyaWYiIGZvbnQtc2l6ZT0iMTQiIGxlbmd0aEFkanVzdD0ic3BhY2luZyIgdGV4dExlbmd0aD0iMTcxIiB4PSIxMTAxLjUiIHk9Ijk3My4xODc1Ij5wYWludENvbXBvbmVudChHcmFwaGljcyk8L3RleHQ+PC9nPjwhLS1jbGFzcyBTdGF0aW9uUGFyc2VyLS0+PGcgaWQ9ImVsZW1fU3RhdGlvblBhcnNlciI+PHJlY3QgY29kZUxpbmU9IjY2IiBmaWxsPSIjRjFGMUYxIiBoZWlnaHQ9IjYyLjk4NDQiIGlkPSJTdGF0aW9uUGFyc2VyIiByeD0iMi41IiByeT0iMi41IiBzdHlsZT0ic3Ryb2tlOiMxODE4MTg7c3Ryb2tlLXdpZHRoOjAuNTsiIHdpZHRoPSIzMTUiIHg9IjE2NjcuNSIgeT0iMTA2OSIvPjxlbGxpcHNlIGN4PSIxNzc1LjI1IiBjeT0iMTA4NSIgZmlsbD0iI0FERDFCMiIgcng9IjExIiByeT0iMTEiIHN0eWxlPSJzdHJva2U6IzE4MTgxODtzdHJva2Utd2lkdGg6MS4wOyIvPjxwYXRoIGQ9Ik0xNzcyLjg3NSwxMDg5LjI1IEwxNzcyLjg3NSwxMDkxIEwxNzc3LjgxMjUsMTA5MSBMMTc3Ny44MTI1LDEwODkuMjUgTDE3NzIuODc1LDEwODkuMjUgWiBNMTc3My41NjI1LDEwODkuOTM3NSBRMTc3My41NjI1LDEwODkuOTM3NSAxNzczLjU2MjUsMTA4MC43NSBMMTc3MS44MTI1LDEwODAuNzUgUTE3NzEuODEyNSwxMDgwLjc1IDE3NzEuODEyNSwxMDg5LjkzNzUgTDE3NzMuNTYyNSwxMDg5LjkzNzUgWiBNMTc3Ny4xMjUsMTA4OS45Mzc1IEwxNzc4Ljg3NSwxMDg5LjkzNzUgUTE3NzguODc1LDEwODkuOTM3NSAxNzc4Ljg3NSwxMDg3LjEyNSBMMTc3Ny4xMjUsMTA4Ny4xMjUgUTE3NzcuMTI1LDEwODcuMTI1IDE3NzcuMTI1LDEwODkuOTM3NSBaIE0xNzc3LjEyNSwxMDgwLjc1IFExNzc3LjEyNSwxMDgwLjc1IDE3NzcuMTI1LDEwODMuNTYyNSBMMTc3OC44NzUsMTA4My41NjI1IFExNzc4Ljg3NSwxMDgzLjU2MjUgMTc3OC44NzUsMTA4MC43NSBMMTc3Ny4xMjUsMTA4MC43NSBaIE0xNzcyLjg3NSwxMDgxLjQzNzUgTDE3NzcuODEyNSwxMDgxLjQzNzUgTDE3NzcuODEyNSwxMDc5LjY4NzUgTDE3NzIuODc1LDEwNzkuNjg3NSBMMTc3Mi44NzUsMTA4MS40Mzc1IFogIiBmaWxsPSIjMDAwMDAwIi8+PHRleHQgZmlsbD0iIzAwMDAwMCIgZm9udC1mYW1pbHk9InNhbnMtc2VyaWYiIGZvbnQtc2l6ZT0iMTQiIGxlbmd0aEFkanVzdD0ic3BhY2luZyIgdGV4dExlbmd0aD0iOTEiIHg9IjE3OTUuNzUiIHk9IjEwOTAuNzQyMiI+U3RhdGlvblBhcnNlcjwvdGV4dD48bGluZSBzdHlsZT0ic3Ryb2tlOiMxODE4MTg7c3Ryb2tlLXdpZHRoOjAuNTsiIHgxPSIxNjY4LjUiIHgyPSIxOTgxLjUiIHkxPSIxMTAxIiB5Mj0iMTEwMSIvPjxsaW5lIHN0eWxlPSJzdHJva2U6IzE4MTgxODtzdHJva2Utd2lkdGg6MC41OyIgeDE9IjE2NjguNSIgeDI9IjE5ODEuNSIgeTE9IjExMDkiIHkyPSIxMTA5Ii8+PGVsbGlwc2UgY3g9IjE2NzguNSIgY3k9IjExMjEuOTkyMiIgZmlsbD0iIzg0QkU4NCIgcng9IjMiIHJ5PSIzIiBzdHlsZT0ic3Ryb2tlOiMwMzgwNDg7c3Ryb2tlLXdpZHRoOjEuMDsiLz48dGV4dCBmaWxsPSIjMDAwMDAwIiBmb250LWZhbWlseT0ic2Fucy1zZXJpZiIgZm9udC1zaXplPSIxNCIgbGVuZ3RoQWRqdXN0PSJzcGFjaW5nIiB0ZXh0TGVuZ3RoPSIyODkiIHg9IjE2ODcuNSIgeT0iMTEyNi4yMzQ0Ij5NYXAmbHQ7U3RyaW5nLCBTdGF0aW9uSW5mbyZndDsgcGFyc2VDU1YoU3RyaW5nKTwvdGV4dD48L2c+PCEtLWNsYXNzIFN1YndheUxpbmUtLT48ZyBpZD0iZWxlbV9TdWJ3YXlMaW5lIj48cmVjdCBjb2RlTGluZT0iNzAiIGZpbGw9IiNGMUYxRjEiIGhlaWdodD0iMTIyLjkyMTkiIGlkPSJTdWJ3YXlMaW5lIiByeD0iMi41IiByeT0iMi41IiBzdHlsZT0ic3Ryb2tlOiMxODE4MTg7c3Ryb2tlLXdpZHRoOjAuNTsiIHdpZHRoPSIyMzkiIHg9Ijk3OS41IiB5PSI3Ii8+PGVsbGlwc2UgY3g9IjEwNTkuMjUiIGN5PSIyMyIgZmlsbD0iI0FERDFCMiIgcng9IjExIiByeT0iMTEiIHN0eWxlPSJzdHJva2U6IzE4MTgxODtzdHJva2Utd2lkdGg6MS4wOyIvPjxwYXRoIGQ9Ik0xMDU2Ljg3NSwyNy4yNSBMMTA1Ni44NzUsMjkgTDEwNjEuODEyNSwyOSBMMTA2MS44MTI1LDI3LjI1IEwxMDU2Ljg3NSwyNy4yNSBaIE0xMDU3LjU2MjUsMjcuOTM3NSBRMTA1Ny41NjI1LDI3LjkzNzUgMTA1Ny41NjI1LDE4Ljc1IEwxMDU1LjgxMjUsMTguNzUgUTEwNTUuODEyNSwxOC43NSAxMDU1LjgxMjUsMjcuOTM3NSBMMTA1Ny41NjI1LDI3LjkzNzUgWiBNMTA2MS4xMjUsMjcuOTM3NSBMMTA2Mi44NzUsMjcuOTM3NSBRMTA2Mi44NzUsMjcuOTM3NSAxMDYyLjg3NSwyNS4xMjUgTDEwNjEuMTI1LDI1LjEyNSBRMTA2MS4xMjUsMjUuMTI1IDEwNjEuMTI1LDI3LjkzNzUgWiBNMTA2MS4xMjUsMTguNzUgUTEwNjEuMTI1LDE4Ljc1IDEwNjEuMTI1LDIxLjU2MjUgTDEwNjIuODc1LDIxLjU2MjUgUTEwNjIuODc1LDIxLjU2MjUgMTA2Mi44NzUsMTguNzUgTDEwNjEuMTI1LDE4Ljc1IFogTTEwNTYuODc1LDE5LjQzNzUgTDEwNjEuODEyNSwxOS40Mzc1IEwxMDYxLjgxMjUsMTcuNjg3NSBMMTA1Ni44NzUsMTcuNjg3NSBMMTA1Ni44NzUsMTkuNDM3NSBaICIgZmlsbD0iIzAwMDAwMCIvPjx0ZXh0IGZpbGw9IiMwMDAwMDAiIGZvbnQtZmFtaWx5PSJzYW5zLXNlcmlmIiBmb250LXNpemU9IjE0IiBsZW5ndGhBZGp1c3Q9InNwYWNpbmciIHRleHRMZW5ndGg9IjcxIiB4PSIxMDc5Ljc1IiB5PSIyOC43NDIyIj5TdWJ3YXlMaW5lPC90ZXh0PjxsaW5lIHN0eWxlPSJzdHJva2U6IzE4MTgxODtzdHJva2Utd2lkdGg6MC41OyIgeDE9Ijk4MC41IiB4Mj0iMTIxNy41IiB5MT0iMzkiIHkyPSIzOSIvPjxyZWN0IGZpbGw9Im5vbmUiIGhlaWdodD0iNiIgc3R5bGU9InN0cm9rZTojQzgyOTMwO3N0cm9rZS13aWR0aDoxLjA7IiB3aWR0aD0iNiIgeD0iOTg3LjUiIHk9IjQ4Ljk5MjIiLz48dGV4dCBmaWxsPSIjMDAwMDAwIiBmb250LWZhbWlseT0ic2Fucy1zZXJpZiIgZm9udC1zaXplPSIxNCIgbGVuZ3RoQWRqdXN0PSJzcGFjaW5nIiB0ZXh0TGVuZ3RoPSIxMjYiIHg9Ijk5OS41IiB5PSI1Ni4yMzQ0Ij5MaXN0Jmx0O1BvaW50Jmd0OyBwb2ludHM8L3RleHQ+PHJlY3QgZmlsbD0ibm9uZSIgaGVpZ2h0PSI2IiBzdHlsZT0ic3Ryb2tlOiNDODI5MzA7c3Ryb2tlLXdpZHRoOjEuMDsiIHdpZHRoPSI2IiB4PSI5ODcuNSIgeT0iNjMuOTc2NiIvPjx0ZXh0IGZpbGw9IiMwMDAwMDAiIGZvbnQtZmFtaWx5PSJzYW5zLXNlcmlmIiBmb250LXNpemU9IjE0IiBsZW5ndGhBZGp1c3Q9InNwYWNpbmciIHRleHRMZW5ndGg9Ijc3IiB4PSI5OTkuNSIgeT0iNzEuMjE4OCI+Q29sb3IgY29sb3I8L3RleHQ+PGxpbmUgc3R5bGU9InN0cm9rZTojMTgxODE4O3N0cm9rZS13aWR0aDowLjU7IiB4MT0iOTgwLjUiIHgyPSIxMjE3LjUiIHkxPSI3Ni45Njg4IiB5Mj0iNzYuOTY4OCIvPjxlbGxpcHNlIGN4PSI5OTAuNSIgY3k9Ijg5Ljk2MDkiIGZpbGw9IiM4NEJFODQiIHJ4PSIzIiByeT0iMyIgc3R5bGU9InN0cm9rZTojMDM4MDQ4O3N0cm9rZS13aWR0aDoxLjA7Ii8+PHRleHQgZmlsbD0iIzAwMDAwMCIgZm9udC1mYW1pbHk9InNhbnMtc2VyaWYiIGZvbnQtc2l6ZT0iMTQiIGxlbmd0aEFkanVzdD0ic3BhY2luZyIgdGV4dExlbmd0aD0iMjEzIiB4PSI5OTkuNSIgeT0iOTQuMjAzMSI+U3Vid2F5TGluZShMaXN0Jmx0O1BvaW50Jmd0OywgQ29sb3IpPC90ZXh0PjxlbGxpcHNlIGN4PSI5OTAuNSIgY3k9IjEwNC45NDUzIiBmaWxsPSIjODRCRTg0IiByeD0iMyIgcnk9IjMiIHN0eWxlPSJzdHJva2U6IzAzODA0ODtzdHJva2Utd2lkdGg6MS4wOyIvPjx0ZXh0IGZpbGw9IiMwMDAwMDAiIGZvbnQtZmFtaWx5PSJzYW5zLXNlcmlmIiBmb250LXNpemU9IjE0IiBsZW5ndGhBZGp1c3Q9InNwYWNpbmciIHRleHRMZW5ndGg9IjE2MyIgeD0iOTk5LjUiIHk9IjEwOS4xODc1Ij5MaXN0Jmx0O1BvaW50Jmd0OyBnZXRQb2ludHMoKTwvdGV4dD48ZWxsaXBzZSBjeD0iOTkwLjUiIGN5PSIxMTkuOTI5NyIgZmlsbD0iIzg0QkU4NCIgcng9IjMiIHJ5PSIzIiBzdHlsZT0ic3Ryb2tlOiMwMzgwNDg7c3Ryb2tlLXdpZHRoOjEuMDsiLz48dGV4dCBmaWxsPSIjMDAwMDAwIiBmb250LWZhbWlseT0ic2Fucy1zZXJpZiIgZm9udC1zaXplPSIxNCIgbGVuZ3RoQWRqdXN0PSJzcGFjaW5nIiB0ZXh0TGVuZ3RoPSIxMTQiIHg9Ijk5OS41IiB5PSIxMjQuMTcxOSI+Q29sb3IgZ2V0Q29sb3IoKTwvdGV4dD48L2c+PCEtLWNsYXNzIFN0YXRpb24tLT48ZyBpZD0iZWxlbV9TdGF0aW9uIj48cmVjdCBjb2RlTGluZT0iNzgiIGZpbGw9IiNGMUYxRjEiIGhlaWdodD0iMTY3Ljg3NSIgaWQ9IlN0YXRpb24iIHJ4PSIyLjUiIHJ5PSIyLjUiIHN0eWxlPSJzdHJva2U6IzE4MTgxODtzdHJva2Utd2lkdGg6MC41OyIgd2lkdGg9IjQ0OCIgeD0iMTYwMSIgeT0iMTIyMiIvPjxlbGxpcHNlIGN4PSIxNzk2LjI1IiBjeT0iMTIzOCIgZmlsbD0iI0FERDFCMiIgcng9IjExIiByeT0iMTEiIHN0eWxlPSJzdHJva2U6IzE4MTgxODtzdHJva2Utd2lkdGg6MS4wOyIvPjxwYXRoIGQ9Ik0xNzkzLjg3NSwxMjQyLjI1IEwxNzkzLjg3NSwxMjQ0IEwxNzk4LjgxMjUsMTI0NCBMMTc5OC44MTI1LDEyNDIuMjUgTDE3OTMuODc1LDEyNDIuMjUgWiBNMTc5NC41NjI1LDEyNDIuOTM3NSBRMTc5NC41NjI1LDEyNDIuOTM3NSAxNzk0LjU2MjUsMTIzMy43NSBMMTc5Mi44MTI1LDEyMzMuNzUgUTE3OTIuODEyNSwxMjMzLjc1IDE3OTIuODEyNSwxMjQyLjkzNzUgTDE3OTQuNTYyNSwxMjQyLjkzNzUgWiBNMTc5OC4xMjUsMTI0Mi45Mzc1IEwxNzk5Ljg3NSwxMjQyLjkzNzUgUTE3OTkuODc1LDEyNDIuOTM3NSAxNzk5Ljg3NSwxMjQwLjEyNSBMMTc5OC4xMjUsMTI0MC4xMjUgUTE3OTguMTI1LDEyNDAuMTI1IDE3OTguMTI1LDEyNDIuOTM3NSBaIE0xNzk4LjEyNSwxMjMzLjc1IFExNzk4LjEyNSwxMjMzLjc1IDE3OTguMTI1LDEyMzYuNTYyNSBMMTc5OS44NzUsMTIzNi41NjI1IFExNzk5Ljg3NSwxMjM2LjU2MjUgMTc5OS44NzUsMTIzMy43NSBMMTc5OC4xMjUsMTIzMy43NSBaIE0xNzkzLjg3NSwxMjM0LjQzNzUgTDE3OTguODEyNSwxMjM0LjQzNzUgTDE3OTguODEyNSwxMjMyLjY4NzUgTDE3OTMuODc1LDEyMzIuNjg3NSBMMTc5My44NzUsMTIzNC40Mzc1IFogIiBmaWxsPSIjMDAwMDAwIi8+PHRleHQgZmlsbD0iIzAwMDAwMCIgZm9udC1mYW1pbHk9InNhbnMtc2VyaWYiIGZvbnQtc2l6ZT0iMTQiIGxlbmd0aEFkanVzdD0ic3BhY2luZyIgdGV4dExlbmd0aD0iNDkiIHg9IjE4MTYuNzUiIHk9IjEyNDMuNzQyMiI+U3RhdGlvbjwvdGV4dD48bGluZSBzdHlsZT0ic3Ryb2tlOiMxODE4MTg7c3Ryb2tlLXdpZHRoOjAuNTsiIHgxPSIxNjAyIiB4Mj0iMjA0OCIgeTE9IjEyNTQiIHkyPSIxMjU0Ii8+PHJlY3QgZmlsbD0ibm9uZSIgaGVpZ2h0PSI2IiBzdHlsZT0ic3Ryb2tlOiNDODI5MzA7c3Ryb2tlLXdpZHRoOjEuMDsiIHdpZHRoPSI2IiB4PSIxNjA5IiB5PSIxMjYzLjk5MjIiLz48dGV4dCBmaWxsPSIjMDAwMDAwIiBmb250LWZhbWlseT0ic2Fucy1zZXJpZiIgZm9udC1zaXplPSIxNCIgbGVuZ3RoQWRqdXN0PSJzcGFjaW5nIiB0ZXh0TGVuZ3RoPSI3MSIgeD0iMTYyMSIgeT0iMTI3MS4yMzQ0Ij5TdHJpbmcgcm93PC90ZXh0PjxyZWN0IGZpbGw9Im5vbmUiIGhlaWdodD0iNiIgc3R5bGU9InN0cm9rZTojQzgyOTMwO3N0cm9rZS13aWR0aDoxLjA7IiB3aWR0aD0iNiIgeD0iMTYwOSIgeT0iMTI3OC45NzY2Ii8+PHRleHQgZmlsbD0iIzAwMDAwMCIgZm9udC1mYW1pbHk9InNhbnMtc2VyaWYiIGZvbnQtc2l6ZT0iMTQiIGxlbmd0aEFkanVzdD0ic3BhY2luZyIgdGV4dExlbmd0aD0iNzciIHg9IjE2MjEiIHk9IjEyODYuMjE4OCI+U3RyaW5nIGxpbmU8L3RleHQ+PHJlY3QgZmlsbD0ibm9uZSIgaGVpZ2h0PSI2IiBzdHlsZT0ic3Ryb2tlOiNDODI5MzA7c3Ryb2tlLXdpZHRoOjEuMDsiIHdpZHRoPSI2IiB4PSIxNjA5IiB5PSIxMjkzLjk2MDkiLz48dGV4dCBmaWxsPSIjMDAwMDAwIiBmb250LWZhbWlseT0ic2Fucy1zZXJpZiIgZm9udC1zaXplPSIxNCIgbGVuZ3RoQWRqdXN0PSJzcGFjaW5nIiB0ZXh0TGVuZ3RoPSIxMjAiIHg9IjE2MjEiIHk9IjEzMDEuMjAzMSI+aW50IHN0YXRpb25OdW1iZXI8L3RleHQ+PHJlY3QgZmlsbD0ibm9uZSIgaGVpZ2h0PSI2IiBzdHlsZT0ic3Ryb2tlOiNDODI5MzA7c3Ryb2tlLXdpZHRoOjEuMDsiIHdpZHRoPSI2IiB4PSIxNjA5IiB5PSIxMzA4Ljk0NTMiLz48dGV4dCBmaWxsPSIjMDAwMDAwIiBmb250LWZhbWlseT0ic2Fucy1zZXJpZiIgZm9udC1zaXplPSIxNCIgbGVuZ3RoQWRqdXN0PSJzcGFjaW5nIiB0ZXh0TGVuZ3RoPSIxMjYiIHg9IjE2MjEiIHk9IjEzMTYuMTg3NSI+U3RyaW5nIHN0YXRpb25Db2RlPC90ZXh0PjxyZWN0IGZpbGw9Im5vbmUiIGhlaWdodD0iNiIgc3R5bGU9InN0cm9rZTojQzgyOTMwO3N0cm9rZS13aWR0aDoxLjA7IiB3aWR0aD0iNiIgeD0iMTYwOSIgeT0iMTMyMy45Mjk3Ii8+PHRleHQgZmlsbD0iIzAwMDAwMCIgZm9udC1mYW1pbHk9InNhbnMtc2VyaWYiIGZvbnQtc2l6ZT0iMTQiIGxlbmd0aEFkanVzdD0ic3BhY2luZyIgdGV4dExlbmd0aD0iMTI3IiB4PSIxNjIxIiB5PSIxMzMxLjE3MTkiPlN0cmluZyBzdGF0aW9uTmFtZTwvdGV4dD48cmVjdCBmaWxsPSJub25lIiBoZWlnaHQ9IjYiIHN0eWxlPSJzdHJva2U6I0M4MjkzMDtzdHJva2Utd2lkdGg6MS4wOyIgd2lkdGg9IjYiIHg9IjE2MDkiIHk9IjEzMzguOTE0MSIvPjx0ZXh0IGZpbGw9IiMwMDAwMDAiIGZvbnQtZmFtaWx5PSJzYW5zLXNlcmlmIiBmb250LXNpemU9IjE0IiBsZW5ndGhBZGp1c3Q9InNwYWNpbmciIHRleHRMZW5ndGg9IjU2IiB4PSIxNjIxIiB5PSIxMzQ2LjE1NjMiPmRvdWJsZSB4PC90ZXh0PjxyZWN0IGZpbGw9Im5vbmUiIGhlaWdodD0iNiIgc3R5bGU9InN0cm9rZTojQzgyOTMwO3N0cm9rZS13aWR0aDoxLjA7IiB3aWR0aD0iNiIgeD0iMTYwOSIgeT0iMTM1My44OTg0Ii8+PHRleHQgZmlsbD0iIzAwMDAwMCIgZm9udC1mYW1pbHk9InNhbnMtc2VyaWYiIGZvbnQtc2l6ZT0iMTQiIGxlbmd0aEFkanVzdD0ic3BhY2luZyIgdGV4dExlbmd0aD0iNTYiIHg9IjE2MjEiIHk9IjEzNjEuMTQwNiI+ZG91YmxlIHk8L3RleHQ+PGxpbmUgc3R5bGU9InN0cm9rZTojMTgxODE4O3N0cm9rZS13aWR0aDowLjU7IiB4MT0iMTYwMiIgeDI9IjIwNDgiIHkxPSIxMzY2Ljg5MDYiIHkyPSIxMzY2Ljg5MDYiLz48ZWxsaXBzZSBjeD0iMTYxMiIgY3k9IjEzNzkuODgyOCIgZmlsbD0iIzg0QkU4NCIgcng9IjMiIHJ5PSIzIiBzdHlsZT0ic3Ryb2tlOiMwMzgwNDg7c3Ryb2tlLXdpZHRoOjEuMDsiLz48dGV4dCBmaWxsPSIjMDAwMDAwIiBmb250LWZhbWlseT0ic2Fucy1zZXJpZiIgZm9udC1zaXplPSIxNCIgbGVuZ3RoQWRqdXN0PSJzcGFjaW5nIiB0ZXh0TGVuZ3RoPSI0MjIiIHg9IjE2MjEiIHk9IjEzODQuMTI1Ij5TdGF0aW9uKFN0cmluZywgU3RyaW5nLCBpbnQsIFN0cmluZywgU3RyaW5nLCBkb3VibGUsIGRvdWJsZSk8L3RleHQ+PC9nPjwhLS1jbGFzcyBTdWJ3YXlQYXJzZXItLT48ZyBpZD0iZWxlbV9TdWJ3YXlQYXJzZXIiPjxyZWN0IGNvZGVMaW5lPSI4OSIgZmlsbD0iI0YxRjFGMSIgaGVpZ2h0PSI2Mi45ODQ0IiBpZD0iU3Vid2F5UGFyc2VyIiByeD0iMi41IiByeT0iMi41IiBzdHlsZT0ic3Ryb2tlOiMxODE4MTg7c3Ryb2tlLXdpZHRoOjAuNTsiIHdpZHRoPSIzNTEiIHg9IjIwMTcuNSIgeT0iMTA2OSIvPjxlbGxpcHNlIGN4PSIyMTQ2LjI1IiBjeT0iMTA4NSIgZmlsbD0iI0FERDFCMiIgcng9IjExIiByeT0iMTEiIHN0eWxlPSJzdHJva2U6IzE4MTgxODtzdHJva2Utd2lkdGg6MS4wOyIvPjxwYXRoIGQ9Ik0yMTQzLjg3NSwxMDg5LjI1IEwyMTQzLjg3NSwxMDkxIEwyMTQ4LjgxMjUsMTA5MSBMMjE0OC44MTI1LDEwODkuMjUgTDIxNDMuODc1LDEwODkuMjUgWiBNMjE0NC41NjI1LDEwODkuOTM3NSBRMjE0NC41NjI1LDEwODkuOTM3NSAyMTQ0LjU2MjUsMTA4MC43NSBMMjE0Mi44MTI1LDEwODAuNzUgUTIxNDIuODEyNSwxMDgwLjc1IDIxNDIuODEyNSwxMDg5LjkzNzUgTDIxNDQuNTYyNSwxMDg5LjkzNzUgWiBNMjE0OC4xMjUsMTA4OS45Mzc1IEwyMTQ5Ljg3NSwxMDg5LjkzNzUgUTIxNDkuODc1LDEwODkuOTM3NSAyMTQ5Ljg3NSwxMDg3LjEyNSBMMjE0OC4xMjUsMTA4Ny4xMjUgUTIxNDguMTI1LDEwODcuMTI1IDIxNDguMTI1LDEwODkuOTM3NSBaIE0yMTQ4LjEyNSwxMDgwLjc1IFEyMTQ4LjEyNSwxMDgwLjc1IDIxNDguMTI1LDEwODMuNTYyNSBMMjE0OS44NzUsMTA4My41NjI1IFEyMTQ5Ljg3NSwxMDgzLjU2MjUgMjE0OS44NzUsMTA4MC43NSBMMjE0OC4xMjUsMTA4MC43NSBaIE0yMTQzLjg3NSwxMDgxLjQzNzUgTDIxNDguODEyNSwxMDgxLjQzNzUgTDIxNDguODEyNSwxMDc5LjY4NzUgTDIxNDMuODc1LDEwNzkuNjg3NSBMMjE0My44NzUsMTA4MS40Mzc1IFogIiBmaWxsPSIjMDAwMDAwIi8+PHRleHQgZmlsbD0iIzAwMDAwMCIgZm9udC1mYW1pbHk9InNhbnMtc2VyaWYiIGZvbnQtc2l6ZT0iMTQiIGxlbmd0aEFkanVzdD0ic3BhY2luZyIgdGV4dExlbmd0aD0iODUiIHg9IjIxNjYuNzUiIHk9IjEwOTAuNzQyMiI+U3Vid2F5UGFyc2VyPC90ZXh0PjxsaW5lIHN0eWxlPSJzdHJva2U6IzE4MTgxODtzdHJva2Utd2lkdGg6MC41OyIgeDE9IjIwMTguNSIgeDI9IjIzNjcuNSIgeTE9IjExMDEiIHkyPSIxMTAxIi8+PGxpbmUgc3R5bGU9InN0cm9rZTojMTgxODE4O3N0cm9rZS13aWR0aDowLjU7IiB4MT0iMjAxOC41IiB4Mj0iMjM2Ny41IiB5MT0iMTEwOSIgeTI9IjExMDkiLz48ZWxsaXBzZSBjeD0iMjAyOC41IiBjeT0iMTEyMS45OTIyIiBmaWxsPSIjODRCRTg0IiByeD0iMyIgcnk9IjMiIHN0eWxlPSJzdHJva2U6IzAzODA0ODtzdHJva2Utd2lkdGg6MS4wOyIvPjx0ZXh0IGZpbGw9IiMwMDAwMDAiIGZvbnQtZmFtaWx5PSJzYW5zLXNlcmlmIiBmb250LXNpemU9IjE0IiBsZW5ndGhBZGp1c3Q9InNwYWNpbmciIHRleHRMZW5ndGg9IjMyNSIgeD0iMjAzNy41IiB5PSIxMTI2LjIzNDQiPk1hcCZsdDtTdHJpbmcsIExpc3QmbHQ7U3RhdGlvbiZndDsmZ3Q7IHBhcnNlU3Vid2F5KFN0cmluZyk8L3RleHQ+PC9nPjwhLS1jbGFzcyBTdWJ3YXlTaW11bGF0b3ItLT48ZyBpZD0iZWxlbV9TdWJ3YXlTaW11bGF0b3IiPjxyZWN0IGNvZGVMaW5lPSI5MyIgZmlsbD0iI0YxRjFGMSIgaGVpZ2h0PSIxMzcuOTA2MyIgaWQ9IlN1YndheVNpbXVsYXRvciIgcng9IjIuNSIgcnk9IjIuNSIgc3R5bGU9InN0cm9rZTojMTgxODE4O3N0cm9rZS13aWR0aDowLjU7IiB3aWR0aD0iNDkyIiB4PSIxMDc5IiB5PSI1NjgiLz48ZWxsaXBzZSBjeD0iMTI2Ny4yNSIgY3k9IjU4NCIgZmlsbD0iI0FERDFCMiIgcng9IjExIiByeT0iMTEiIHN0eWxlPSJzdHJva2U6IzE4MTgxODtzdHJva2Utd2lkdGg6MS4wOyIvPjxwYXRoIGQ9Ik0xMjY0Ljg3NSw1ODguMjUgTDEyNjQuODc1LDU5MCBMMTI2OS44MTI1LDU5MCBMMTI2OS44MTI1LDU4OC4yNSBMMTI2NC44NzUsNTg4LjI1IFogTTEyNjUuNTYyNSw1ODguOTM3NSBRMTI2NS41NjI1LDU4OC45Mzc1IDEyNjUuNTYyNSw1NzkuNzUgTDEyNjMuODEyNSw1NzkuNzUgUTEyNjMuODEyNSw1NzkuNzUgMTI2My44MTI1LDU4OC45Mzc1IEwxMjY1LjU2MjUsNTg4LjkzNzUgWiBNMTI2OS4xMjUsNTg4LjkzNzUgTDEyNzAuODc1LDU4OC45Mzc1IFExMjcwLjg3NSw1ODguOTM3NSAxMjcwLjg3NSw1ODYuMTI1IEwxMjY5LjEyNSw1ODYuMTI1IFExMjY5LjEyNSw1ODYuMTI1IDEyNjkuMTI1LDU4OC45Mzc1IFogTTEyNjkuMTI1LDU3OS43NSBRMTI2OS4xMjUsNTc5Ljc1IDEyNjkuMTI1LDU4Mi41NjI1IEwxMjcwLjg3NSw1ODIuNTYyNSBRMTI3MC44NzUsNTgyLjU2MjUgMTI3MC44NzUsNTc5Ljc1IEwxMjY5LjEyNSw1NzkuNzUgWiBNMTI2NC44NzUsNTgwLjQzNzUgTDEyNjkuODEyNSw1ODAuNDM3NSBMMTI2OS44MTI1LDU3OC42ODc1IEwxMjY0Ljg3NSw1NzguNjg3NSBMMTI2NC44NzUsNTgwLjQzNzUgWiAiIGZpbGw9IiMwMDAwMDAiLz48dGV4dCBmaWxsPSIjMDAwMDAwIiBmb250LWZhbWlseT0ic2Fucy1zZXJpZiIgZm9udC1zaXplPSIxNCIgbGVuZ3RoQWRqdXN0PSJzcGFjaW5nIiB0ZXh0TGVuZ3RoPSIxMDciIHg9IjEyODcuNzUiIHk9IjU4OS43NDIyIj5TdWJ3YXlTaW11bGF0b3I8L3RleHQ+PGxpbmUgc3R5bGU9InN0cm9rZTojMTgxODE4O3N0cm9rZS13aWR0aDowLjU7IiB4MT0iMTA4MCIgeDI9IjE1NzAiIHkxPSI2MDAiIHkyPSI2MDAiLz48cmVjdCBmaWxsPSJub25lIiBoZWlnaHQ9IjYiIHN0eWxlPSJzdHJva2U6I0M4MjkzMDtzdHJva2Utd2lkdGg6MS4wOyIgd2lkdGg9IjYiIHg9IjEwODciIHk9IjYwOS45OTIyIi8+PHRleHQgZmlsbD0iIzAwMDAwMCIgZm9udC1mYW1pbHk9InNhbnMtc2VyaWYiIGZvbnQtc2l6ZT0iMTQiIGxlbmd0aEFkanVzdD0ic3BhY2luZyIgdGV4dExlbmd0aD0iMTI2IiB4PSIxMDk5IiB5PSI2MTcuMjM0NCI+TGlzdCZsdDtUcmFpbiZndDsgdHJhaW5zPC90ZXh0PjxyZWN0IGZpbGw9Im5vbmUiIGhlaWdodD0iNiIgc3R5bGU9InN0cm9rZTojQzgyOTMwO3N0cm9rZS13aWR0aDoxLjA7IiB3aWR0aD0iNiIgeD0iMTA4NyIgeT0iNjI0Ljk3NjYiLz48dGV4dCBmaWxsPSIjMDAwMDAwIiBmb250LWZhbWlseT0ic2Fucy1zZXJpZiIgZm9udC1zaXplPSIxNCIgbGVuZ3RoQWRqdXN0PSJzcGFjaW5nIiB0ZXh0TGVuZ3RoPSIyNjciIHg9IjEwOTkiIHk9IjYzMi4yMTg4Ij5NYXAmbHQ7U3RyaW5nLCBMaXN0Jmx0O1N0YXRpb24mZ3Q7Jmd0OyBzdWJ3YXlMaW5lczwvdGV4dD48cmVjdCBmaWxsPSJub25lIiBoZWlnaHQ9IjYiIHN0eWxlPSJzdHJva2U6I0M4MjkzMDtzdHJva2Utd2lkdGg6MS4wOyIgd2lkdGg9IjYiIHg9IjEwODciIHk9IjYzOS45NjA5Ii8+PHRleHQgZmlsbD0iIzAwMDAwMCIgZm9udC1mYW1pbHk9InNhbnMtc2VyaWYiIGZvbnQtc2l6ZT0iMTQiIGxlbmd0aEFkanVzdD0ic3BhY2luZyIgdGV4dExlbmd0aD0iNzkiIHg9IjEwOTkiIHk9IjY0Ny4yMDMxIj5UaW1lciB0aW1lcjwvdGV4dD48cmVjdCBmaWxsPSJub25lIiBoZWlnaHQ9IjYiIHN0eWxlPSJzdHJva2U6I0M4MjkzMDtzdHJva2Utd2lkdGg6MS4wOyIgd2lkdGg9IjYiIHg9IjEwODciIHk9IjY1NC45NDUzIi8+PHRleHQgZmlsbD0iIzAwMDAwMCIgZm9udC1mYW1pbHk9InNhbnMtc2VyaWYiIGZvbnQtc2l6ZT0iMTQiIGxlbmd0aEFkanVzdD0ic3BhY2luZyIgdGV4dExlbmd0aD0iMTIwIiB4PSIxMDk5IiB5PSI2NjIuMTg3NSI+TWFwUGFuZWwgbWFwUGFuZWw8L3RleHQ+PGxpbmUgc3R5bGU9InN0cm9rZTojMTgxODE4O3N0cm9rZS13aWR0aDowLjU7IiB4MT0iMTA4MCIgeDI9IjE1NzAiIHkxPSI2NjcuOTM3NSIgeTI9IjY2Ny45Mzc1Ii8+PGVsbGlwc2UgY3g9IjEwOTAiIGN5PSI2ODAuOTI5NyIgZmlsbD0iIzg0QkU4NCIgcng9IjMiIHJ5PSIzIiBzdHlsZT0ic3Ryb2tlOiMwMzgwNDg7c3Ryb2tlLXdpZHRoOjEuMDsiLz48dGV4dCBmaWxsPSIjMDAwMDAwIiBmb250LWZhbWlseT0ic2Fucy1zZXJpZiIgZm9udC1zaXplPSIxNCIgbGVuZ3RoQWRqdXN0PSJzcGFjaW5nIiB0ZXh0TGVuZ3RoPSI0NjYiIHg9IjEwOTkiIHk9IjY4NS4xNzE5Ij5TdWJ3YXlTaW11bGF0b3IoTGlzdCZsdDtUcmFpbiZndDssIE1hcCZsdDtTdHJpbmcsIExpc3QmbHQ7U3RhdGlvbiZndDsmZ3Q7LCBNYXBQYW5lbCk8L3RleHQ+PGVsbGlwc2UgY3g9IjEwOTAiIGN5PSI2OTUuOTE0MSIgZmlsbD0iIzg0QkU4NCIgcng9IjMiIHJ5PSIzIiBzdHlsZT0ic3Ryb2tlOiMwMzgwNDg7c3Ryb2tlLXdpZHRoOjEuMDsiLz48dGV4dCBmaWxsPSIjMDAwMDAwIiBmb250LWZhbWlseT0ic2Fucy1zZXJpZiIgZm9udC1zaXplPSIxNCIgbGVuZ3RoQWRqdXN0PSJzcGFjaW5nIiB0ZXh0TGVuZ3RoPSIxMjIiIHg9IjEwOTkiIHk9IjcwMC4xNTYzIj5zdGFydFNpbXVsYXRpb24oKTwvdGV4dD48L2c+PCEtLWNsYXNzIFRyYWluSW5pdGlhbGl6ZXItLT48ZyBpZD0iZWxlbV9UcmFpbkluaXRpYWxpemVyIj48cmVjdCBjb2RlTGluZT0iMTAyIiBmaWxsPSIjRjFGMUYxIiBoZWlnaHQ9IjYyLjk4NDQiIGlkPSJUcmFpbkluaXRpYWxpemVyIiByeD0iMi41IiByeT0iMi41IiBzdHlsZT0ic3Ryb2tlOiMxODE4MTg7c3Ryb2tlLXdpZHRoOjAuNTsiIHdpZHRoPSI0MjAiIHg9IjE1NTkiIHk9Ijg5My41Ii8+PGVsbGlwc2UgY3g9IjE3MDguNzUiIGN5PSI5MDkuNSIgZmlsbD0iI0FERDFCMiIgcng9IjExIiByeT0iMTEiIHN0eWxlPSJzdHJva2U6IzE4MTgxODtzdHJva2Utd2lkdGg6MS4wOyIvPjxwYXRoIGQ9Ik0xNzA2LjM3NSw5MTMuNzUgTDE3MDYuMzc1LDkxNS41IEwxNzExLjMxMjUsOTE1LjUgTDE3MTEuMzEyNSw5MTMuNzUgTDE3MDYuMzc1LDkxMy43NSBaIE0xNzA3LjA2MjUsOTE0LjQzNzUgUTE3MDcuMDYyNSw5MTQuNDM3NSAxNzA3LjA2MjUsOTA1LjI1IEwxNzA1LjMxMjUsOTA1LjI1IFExNzA1LjMxMjUsOTA1LjI1IDE3MDUuMzEyNSw5MTQuNDM3NSBMMTcwNy4wNjI1LDkxNC40Mzc1IFogTTE3MTAuNjI1LDkxNC40Mzc1IEwxNzEyLjM3NSw5MTQuNDM3NSBRMTcxMi4zNzUsOTE0LjQzNzUgMTcxMi4zNzUsOTExLjYyNSBMMTcxMC42MjUsOTExLjYyNSBRMTcxMC42MjUsOTExLjYyNSAxNzEwLjYyNSw5MTQuNDM3NSBaIE0xNzEwLjYyNSw5MDUuMjUgUTE3MTAuNjI1LDkwNS4yNSAxNzEwLjYyNSw5MDguMDYyNSBMMTcxMi4zNzUsOTA4LjA2MjUgUTE3MTIuMzc1LDkwOC4wNjI1IDE3MTIuMzc1LDkwNS4yNSBMMTcxMC42MjUsOTA1LjI1IFogTTE3MDYuMzc1LDkwNS45Mzc1IEwxNzExLjMxMjUsOTA1LjkzNzUgTDE3MTEuMzEyNSw5MDQuMTg3NSBMMTcwNi4zNzUsOTA0LjE4NzUgTDE3MDYuMzc1LDkwNS45Mzc1IFogIiBmaWxsPSIjMDAwMDAwIi8+PHRleHQgZmlsbD0iIzAwMDAwMCIgZm9udC1mYW1pbHk9InNhbnMtc2VyaWYiIGZvbnQtc2l6ZT0iMTQiIGxlbmd0aEFkanVzdD0ic3BhY2luZyIgdGV4dExlbmd0aD0iMTEyIiB4PSIxNzI5LjI1IiB5PSI5MTUuMjQyMiI+VHJhaW5Jbml0aWFsaXplcjwvdGV4dD48bGluZSBzdHlsZT0ic3Ryb2tlOiMxODE4MTg7c3Ryb2tlLXdpZHRoOjAuNTsiIHgxPSIxNTYwIiB4Mj0iMTk3OCIgeTE9IjkyNS41IiB5Mj0iOTI1LjUiLz48bGluZSBzdHlsZT0ic3Ryb2tlOiMxODE4MTg7c3Ryb2tlLXdpZHRoOjAuNTsiIHgxPSIxNTYwIiB4Mj0iMTk3OCIgeTE9IjkzMy41IiB5Mj0iOTMzLjUiLz48ZWxsaXBzZSBjeD0iMTU3MCIgY3k9Ijk0Ni40OTIyIiBmaWxsPSIjODRCRTg0IiByeD0iMyIgcnk9IjMiIHN0eWxlPSJzdHJva2U6IzAzODA0ODtzdHJva2Utd2lkdGg6MS4wOyIvPjx0ZXh0IGZpbGw9IiMwMDAwMDAiIGZvbnQtZmFtaWx5PSJzYW5zLXNlcmlmIiBmb250LXNpemU9IjE0IiBsZW5ndGhBZGp1c3Q9InNwYWNpbmciIHRleHRMZW5ndGg9IjM5NCIgeD0iMTU3OSIgeT0iOTUwLjczNDQiPkxpc3QmbHQ7VHJhaW4mZ3Q7IGluaXRpYWxpemVUcmFpbnMoTWFwJmx0O1N0cmluZywgTGlzdCZsdDtTdGF0aW9uJmd0OyZndDspPC90ZXh0PjwvZz48IS0tY2xhc3MgVHJhaW4tLT48ZyBpZD0iZWxlbV9UcmFpbiI+PHJlY3QgY29kZUxpbmU9IjEwNiIgZmlsbD0iI0YxRjFGMSIgaGVpZ2h0PSIxMjIuOTIxOSIgaWQ9IlRyYWluIiByeD0iMi41IiByeT0iMi41IiBzdHlsZT0ic3Ryb2tlOiMxODE4MTg7c3Ryb2tlLXdpZHRoOjAuNTsiIHdpZHRoPSIyNTMiIHg9IjEzNzkuNSIgeT0iMTAzOSIvPjxlbGxpcHNlIGN4PSIxNDg0LjI1IiBjeT0iMTA1NSIgZmlsbD0iI0FERDFCMiIgcng9IjExIiByeT0iMTEiIHN0eWxlPSJzdHJva2U6IzE4MTgxODtzdHJva2Utd2lkdGg6MS4wOyIvPjxwYXRoIGQ9Ik0xNDgxLjg3NSwxMDU5LjI1IEwxNDgxLjg3NSwxMDYxIEwxNDg2LjgxMjUsMTA2MSBMMTQ4Ni44MTI1LDEwNTkuMjUgTDE0ODEuODc1LDEwNTkuMjUgWiBNMTQ4Mi41NjI1LDEwNTkuOTM3NSBRMTQ4Mi41NjI1LDEwNTkuOTM3NSAxNDgyLjU2MjUsMTA1MC43NSBMMTQ4MC44MTI1LDEwNTAuNzUgUTE0ODAuODEyNSwxMDUwLjc1IDE0ODAuODEyNSwxMDU5LjkzNzUgTDE0ODIuNTYyNSwxMDU5LjkzNzUgWiBNMTQ4Ni4xMjUsMTA1OS45Mzc1IEwxNDg3Ljg3NSwxMDU5LjkzNzUgUTE0ODcuODc1LDEwNTkuOTM3NSAxNDg3Ljg3NSwxMDU3LjEyNSBMMTQ4Ni4xMjUsMTA1Ny4xMjUgUTE0ODYuMTI1LDEwNTcuMTI1IDE0ODYuMTI1LDEwNTkuOTM3NSBaIE0xNDg2LjEyNSwxMDUwLjc1IFExNDg2LjEyNSwxMDUwLjc1IDE0ODYuMTI1LDEwNTMuNTYyNSBMMTQ4Ny44NzUsMTA1My41NjI1IFExNDg3Ljg3NSwxMDUzLjU2MjUgMTQ4Ny44NzUsMTA1MC43NSBMMTQ4Ni4xMjUsMTA1MC43NSBaIE0xNDgxLjg3NSwxMDUxLjQzNzUgTDE0ODYuODEyNSwxMDUxLjQzNzUgTDE0ODYuODEyNSwxMDQ5LjY4NzUgTDE0ODEuODc1LDEwNDkuNjg3NSBMMTQ4MS44NzUsMTA1MS40Mzc1IFogIiBmaWxsPSIjMDAwMDAwIi8+PHRleHQgZmlsbD0iIzAwMDAwMCIgZm9udC1mYW1pbHk9InNhbnMtc2VyaWYiIGZvbnQtc2l6ZT0iMTQiIGxlbmd0aEFkanVzdD0ic3BhY2luZyIgdGV4dExlbmd0aD0iMzUiIHg9IjE1MDQuNzUiIHk9IjEwNjAuNzQyMiI+VHJhaW48L3RleHQ+PGxpbmUgc3R5bGU9InN0cm9rZTojMTgxODE4O3N0cm9rZS13aWR0aDowLjU7IiB4MT0iMTM4MC41IiB4Mj0iMTYzMS41IiB5MT0iMTA3MSIgeTI9IjEwNzEiLz48cmVjdCBmaWxsPSJub25lIiBoZWlnaHQ9IjYiIHN0eWxlPSJzdHJva2U6I0M4MjkzMDtzdHJva2Utd2lkdGg6MS4wOyIgd2lkdGg9IjYiIHg9IjEzODcuNSIgeT0iMTA4MC45OTIyIi8+PHRleHQgZmlsbD0iIzAwMDAwMCIgZm9udC1mYW1pbHk9InNhbnMtc2VyaWYiIGZvbnQtc2l6ZT0iMTQiIGxlbmd0aEFkanVzdD0ic3BhY2luZyIgdGV4dExlbmd0aD0iNzciIHg9IjEzOTkuNSIgeT0iMTA4OC4yMzQ0Ij5TdHJpbmcgbGluZTwvdGV4dD48cmVjdCBmaWxsPSJub25lIiBoZWlnaHQ9IjYiIHN0eWxlPSJzdHJva2U6I0M4MjkzMDtzdHJva2Utd2lkdGg6MS4wOyIgd2lkdGg9IjYiIHg9IjEzODcuNSIgeT0iMTA5NS45NzY2Ii8+PHRleHQgZmlsbD0iIzAwMDAwMCIgZm9udC1mYW1pbHk9InNhbnMtc2VyaWYiIGZvbnQtc2l6ZT0iMTQiIGxlbmd0aEFkanVzdD0ic3BhY2luZyIgdGV4dExlbmd0aD0iMTU0IiB4PSIxMzk5LjUiIHk9IjExMDMuMjE4OCI+U3RhdGlvbiBjdXJyZW50U3RhdGlvbjwvdGV4dD48cmVjdCBmaWxsPSJub25lIiBoZWlnaHQ9IjYiIHN0eWxlPSJzdHJva2U6I0M4MjkzMDtzdHJva2Utd2lkdGg6MS4wOyIgd2lkdGg9IjYiIHg9IjEzODcuNSIgeT0iMTExMC45NjA5Ii8+PHRleHQgZmlsbD0iIzAwMDAwMCIgZm9udC1mYW1pbHk9InNhbnMtc2VyaWYiIGZvbnQtc2l6ZT0iMTQiIGxlbmd0aEFkanVzdD0ic3BhY2luZyIgdGV4dExlbmd0aD0iOTEiIHg9IjEzOTkuNSIgeT0iMTExOC4yMDMxIj5pbnQgZGlyZWN0aW9uPC90ZXh0PjxsaW5lIHN0eWxlPSJzdHJva2U6IzE4MTgxODtzdHJva2Utd2lkdGg6MC41OyIgeDE9IjEzODAuNSIgeDI9IjE2MzEuNSIgeTE9IjExMjMuOTUzMSIgeTI9IjExMjMuOTUzMSIvPjxlbGxpcHNlIGN4PSIxMzkwLjUiIGN5PSIxMTM2Ljk0NTMiIGZpbGw9IiM4NEJFODQiIHJ4PSIzIiByeT0iMyIgc3R5bGU9InN0cm9rZTojMDM4MDQ4O3N0cm9rZS13aWR0aDoxLjA7Ii8+PHRleHQgZmlsbD0iIzAwMDAwMCIgZm9udC1mYW1pbHk9InNhbnMtc2VyaWYiIGZvbnQtc2l6ZT0iMTQiIGxlbmd0aEFkanVzdD0ic3BhY2luZyIgdGV4dExlbmd0aD0iMTkxIiB4PSIxMzk5LjUiIHk9IjExNDEuMTg3NSI+VHJhaW4oU3RyaW5nLCBTdGF0aW9uLCBpbnQpPC90ZXh0PjxlbGxpcHNlIGN4PSIxMzkwLjUiIGN5PSIxMTUxLjkyOTciIGZpbGw9IiM4NEJFODQiIHJ4PSIzIiByeT0iMyIgc3R5bGU9InN0cm9rZTojMDM4MDQ4O3N0cm9rZS13aWR0aDoxLjA7Ii8+PHRleHQgZmlsbD0iIzAwMDAwMCIgZm9udC1mYW1pbHk9InNhbnMtc2VyaWYiIGZvbnQtc2l6ZT0iMTQiIGxlbmd0aEFkanVzdD0ic3BhY2luZyIgdGV4dExlbmd0aD0iMjI3IiB4PSIxMzk5LjUiIHk9IjExNTYuMTcxOSI+bW92ZShNYXAmbHQ7U3RyaW5nLCBMaXN0Jmx0O1N0YXRpb24mZ3Q7Jmd0Oyk8L3RleHQ+PC9nPjwhLS1jbGFzcyBUcmFpblN0YXRpb25EaXNwbGF5LS0+PGcgaWQ9ImVsZW1fVHJhaW5TdGF0aW9uRGlzcGxheSI+PHJlY3QgY29kZUxpbmU9IjExNCIgZmlsbD0iI0YxRjFGMSIgaGVpZ2h0PSIxMDcuOTM3NSIgaWQ9IlRyYWluU3RhdGlvbkRpc3BsYXkiIHJ4PSIyLjUiIHJ5PSIyLjUiIHN0eWxlPSJzdHJva2U6IzE4MTgxODtzdHJva2Utd2lkdGg6MC41OyIgd2lkdGg9IjI4OCIgeD0iNyIgeT0iODcxIi8+PGVsbGlwc2UgY3g9IjgwLjI1IiBjeT0iODg3IiBmaWxsPSIjQUREMUIyIiByeD0iMTEiIHJ5PSIxMSIgc3R5bGU9InN0cm9rZTojMTgxODE4O3N0cm9rZS13aWR0aDoxLjA7Ii8+PHBhdGggZD0iTTc3Ljg3NSw4OTEuMjUgTDc3Ljg3NSw4OTMgTDgyLjgxMjUsODkzIEw4Mi44MTI1LDg5MS4yNSBMNzcuODc1LDg5MS4yNSBaIE03OC41NjI1LDg5MS45Mzc1IFE3OC41NjI1LDg5MS45Mzc1IDc4LjU2MjUsODgyLjc1IEw3Ni44MTI1LDg4Mi43NSBRNzYuODEyNSw4ODIuNzUgNzYuODEyNSw4OTEuOTM3NSBMNzguNTYyNSw4OTEuOTM3NSBaIE04Mi4xMjUsODkxLjkzNzUgTDgzLjg3NSw4OTEuOTM3NSBRODMuODc1LDg5MS45Mzc1IDgzLjg3NSw4ODkuMTI1IEw4Mi4xMjUsODg5LjEyNSBRODIuMTI1LDg4OS4xMjUgODIuMTI1LDg5MS45Mzc1IFogTTgyLjEyNSw4ODIuNzUgUTgyLjEyNSw4ODIuNzUgODIuMTI1LDg4NS41NjI1IEw4My44NzUsODg1LjU2MjUgUTgzLjg3NSw4ODUuNTYyNSA4My44NzUsODgyLjc1IEw4Mi4xMjUsODgyLjc1IFogTTc3Ljg3NSw4ODMuNDM3NSBMODIuODEyNSw4ODMuNDM3NSBMODIuODEyNSw4ODEuNjg3NSBMNzcuODc1LDg4MS42ODc1IEw3Ny44NzUsODgzLjQzNzUgWiAiIGZpbGw9IiMwMDAwMDAiLz48dGV4dCBmaWxsPSIjMDAwMDAwIiBmb250LWZhbWlseT0ic2Fucy1zZXJpZiIgZm9udC1zaXplPSIxNCIgbGVuZ3RoQWRqdXN0PSJzcGFjaW5nIiB0ZXh0TGVuZ3RoPSIxMzMiIHg9IjEwMC43NSIgeT0iODkyLjc0MjIiPlRyYWluU3RhdGlvbkRpc3BsYXk8L3RleHQ+PGxpbmUgc3R5bGU9InN0cm9rZTojMTgxODE4O3N0cm9rZS13aWR0aDowLjU7IiB4MT0iOCIgeDI9IjI5NCIgeTE9IjkwMyIgeTI9IjkwMyIvPjxyZWN0IGZpbGw9Im5vbmUiIGhlaWdodD0iNiIgc3R5bGU9InN0cm9rZTojQzgyOTMwO3N0cm9rZS13aWR0aDoxLjA7IiB3aWR0aD0iNiIgeD0iMTUiIHk9IjkxMi45OTIyIi8+PHRleHQgZmlsbD0iIzAwMDAwMCIgZm9udC1mYW1pbHk9InNhbnMtc2VyaWYiIGZvbnQtc2l6ZT0iMTQiIGxlbmd0aEFkanVzdD0ic3BhY2luZyIgdGV4dExlbmd0aD0iMTQ3IiB4PSIyNyIgeT0iOTIwLjIzNDQiPkxpc3QmbHQ7U3RyaW5nJmd0OyBzdGF0aW9uczwvdGV4dD48cmVjdCBmaWxsPSJub25lIiBoZWlnaHQ9IjYiIHN0eWxlPSJzdHJva2U6I0M4MjkzMDtzdHJva2Utd2lkdGg6MS4wOyIgd2lkdGg9IjYiIHg9IjE1IiB5PSI5MjcuOTc2NiIvPjx0ZXh0IGZpbGw9IiMwMDAwMDAiIGZvbnQtZmFtaWx5PSJzYW5zLXNlcmlmIiBmb250LXNpemU9IjE0IiBsZW5ndGhBZGp1c3Q9InNwYWNpbmciIHRleHRMZW5ndGg9IjE2MSIgeD0iMjciIHk9IjkzNS4yMTg4Ij5pbnQgY3VycmVudFN0YXRpb25JbmRleDwvdGV4dD48bGluZSBzdHlsZT0ic3Ryb2tlOiMxODE4MTg7c3Ryb2tlLXdpZHRoOjAuNTsiIHgxPSI4IiB4Mj0iMjk0IiB5MT0iOTQwLjk2ODgiIHkyPSI5NDAuOTY4OCIvPjxlbGxpcHNlIGN4PSIxOCIgY3k9Ijk1My45NjA5IiBmaWxsPSIjODRCRTg0IiByeD0iMyIgcnk9IjMiIHN0eWxlPSJzdHJva2U6IzAzODA0ODtzdHJva2Utd2lkdGg6MS4wOyIvPjx0ZXh0IGZpbGw9IiMwMDAwMDAiIGZvbnQtZmFtaWx5PSJzYW5zLXNlcmlmIiBmb250LXNpemU9IjE0IiBsZW5ndGhBZGp1c3Q9InNwYWNpbmciIHRleHRMZW5ndGg9IjE5MSIgeD0iMjciIHk9Ijk1OC4yMDMxIj5UcmFpblN0YXRpb25EaXNwbGF5KFN0cmluZyk8L3RleHQ+PGVsbGlwc2UgY3g9IjE4IiBjeT0iOTY4Ljk0NTMiIGZpbGw9IiM4NEJFODQiIHJ4PSIzIiByeT0iMyIgc3R5bGU9InN0cm9rZTojMDM4MDQ4O3N0cm9rZS13aWR0aDoxLjA7Ii8+PHRleHQgZmlsbD0iIzAwMDAwMCIgZm9udC1mYW1pbHk9InNhbnMtc2VyaWYiIGZvbnQtc2l6ZT0iMTQiIGxlbmd0aEFkanVzdD0ic3BhY2luZyIgdGV4dExlbmd0aD0iMjYyIiB4PSIyNyIgeT0iOTczLjE4NzUiPkxpc3QmbHQ7U3RyaW5nJmd0OyBsb2FkU3RhdGlvbk5hbWVzKFN0cmluZyk8L3RleHQ+PC9nPjwhLS1jbGFzcyBBZHZlcnRpc2VtZW50RGlzcGxheS0tPjxnIGlkPSJlbGVtX0FkdmVydGlzZW1lbnREaXNwbGF5Ij48cmVjdCBjb2RlTGluZT0iMTIxIiBmaWxsPSIjRjFGMUYxIiBoZWlnaHQ9IjEwNy45Mzc1IiBpZD0iQWR2ZXJ0aXNlbWVudERpc3BsYXkiIHJ4PSIyLjUiIHJ5PSIyLjUiIHN0eWxlPSJzdHJva2U6IzE4MTgxODtzdHJva2Utd2lkdGg6MC41OyIgd2lkdGg9IjI3NSIgeD0iMTI0LjUiIHk9IjEwNDYuNSIvPjxlbGxpcHNlIGN4PSIxODcuMjUiIGN5PSIxMDYyLjUiIGZpbGw9IiNBREQxQjIiIHJ4PSIxMSIgcnk9IjExIiBzdHlsZT0ic3Ryb2tlOiMxODE4MTg7c3Ryb2tlLXdpZHRoOjEuMDsiLz48cGF0aCBkPSJNMTg0Ljg3NSwxMDY2Ljc1IEwxODQuODc1LDEwNjguNSBMMTg5LjgxMjUsMTA2OC41IEwxODkuODEyNSwxMDY2Ljc1IEwxODQuODc1LDEwNjYuNzUgWiBNMTg1LjU2MjUsMTA2Ny40Mzc1IFExODUuNTYyNSwxMDY3LjQzNzUgMTg1LjU2MjUsMTA1OC4yNSBMMTgzLjgxMjUsMTA1OC4yNSBRMTgzLjgxMjUsMTA1OC4yNSAxODMuODEyNSwxMDY3LjQzNzUgTDE4NS41NjI1LDEwNjcuNDM3NSBaIE0xODkuMTI1LDEwNjcuNDM3NSBMMTkwLjg3NSwxMDY3LjQzNzUgUTE5MC44NzUsMTA2Ny40Mzc1IDE5MC44NzUsMTA2NC42MjUgTDE4OS4xMjUsMTA2NC42MjUgUTE4OS4xMjUsMTA2NC42MjUgMTg5LjEyNSwxMDY3LjQzNzUgWiBNMTg5LjEyNSwxMDU4LjI1IFExODkuMTI1LDEwNTguMjUgMTg5LjEyNSwxMDYxLjA2MjUgTDE5MC44NzUsMTA2MS4wNjI1IFExOTAuODc1LDEwNjEuMDYyNSAxOTAuODc1LDEwNTguMjUgTDE4OS4xMjUsMTA1OC4yNSBaIE0xODQuODc1LDEwNTguOTM3NSBMMTg5LjgxMjUsMTA1OC45Mzc1IEwxODkuODEyNSwxMDU3LjE4NzUgTDE4NC44NzUsMTA1Ny4xODc1IEwxODQuODc1LDEwNTguOTM3NSBaICIgZmlsbD0iIzAwMDAwMCIvPjx0ZXh0IGZpbGw9IiMwMDAwMDAiIGZvbnQtZmFtaWx5PSJzYW5zLXNlcmlmIiBmb250LXNpemU9IjE0IiBsZW5ndGhBZGp1c3Q9InNwYWNpbmciIHRleHRMZW5ndGg9IjE0MSIgeD0iMjA3Ljc1IiB5PSIxMDY4LjI0MjIiPkFkdmVydGlzZW1lbnREaXNwbGF5PC90ZXh0PjxsaW5lIHN0eWxlPSJzdHJva2U6IzE4MTgxODtzdHJva2Utd2lkdGg6MC41OyIgeDE9IjEyNS41IiB4Mj0iMzk4LjUiIHkxPSIxMDc4LjUiIHkyPSIxMDc4LjUiLz48cmVjdCBmaWxsPSJub25lIiBoZWlnaHQ9IjYiIHN0eWxlPSJzdHJva2U6I0M4MjkzMDtzdHJva2Utd2lkdGg6MS4wOyIgd2lkdGg9IjYiIHg9IjEzMi41IiB5PSIxMDg4LjQ5MjIiLz48dGV4dCBmaWxsPSIjMDAwMDAwIiBmb250LWZhbWlseT0ic2Fucy1zZXJpZiIgZm9udC1zaXplPSIxNCIgbGVuZ3RoQWRqdXN0PSJzcGFjaW5nIiB0ZXh0TGVuZ3RoPSIxOTEiIHg9IjE0NC41IiB5PSIxMDk1LjczNDQiPkFkdmVydGlzZW1lbnQgYWR2ZXJ0aXNlbWVudDwvdGV4dD48cmVjdCBmaWxsPSJub25lIiBoZWlnaHQ9IjYiIHN0eWxlPSJzdHJva2U6I0M4MjkzMDtzdHJva2Utd2lkdGg6MS4wOyIgd2lkdGg9IjYiIHg9IjEzMi41IiB5PSIxMTAzLjQ3NjYiLz48dGV4dCBmaWxsPSIjMDAwMDAwIiBmb250LWZhbWlseT0ic2Fucy1zZXJpZiIgZm9udC1zaXplPSIxNCIgbGVuZ3RoQWRqdXN0PSJzcGFjaW5nIiB0ZXh0TGVuZ3RoPSIxMzQiIHg9IjE0NC41IiB5PSIxMTEwLjcxODgiPkpQYW5lbCBkaXNwbGF5UGFuZWw8L3RleHQ+PGxpbmUgc3R5bGU9InN0cm9rZTojMTgxODE4O3N0cm9rZS13aWR0aDowLjU7IiB4MT0iMTI1LjUiIHgyPSIzOTguNSIgeTE9IjExMTYuNDY4OCIgeTI9IjExMTYuNDY4OCIvPjxlbGxpcHNlIGN4PSIxMzUuNSIgY3k9IjExMjkuNDYwOSIgZmlsbD0iIzg0QkU4NCIgcng9IjMiIHJ5PSIzIiBzdHlsZT0ic3Ryb2tlOiMwMzgwNDg7c3Ryb2tlLXdpZHRoOjEuMDsiLz48dGV4dCBmaWxsPSIjMDAwMDAwIiBmb250LWZhbWlseT0ic2Fucy1zZXJpZiIgZm9udC1zaXplPSIxNCIgbGVuZ3RoQWRqdXN0PSJzcGFjaW5nIiB0ZXh0TGVuZ3RoPSIyNDkiIHg9IjE0NC41IiB5PSIxMTMzLjcwMzEiPkFkdmVydGlzZW1lbnREaXNwbGF5KEFkdmVydGlzZW1lbnQpPC90ZXh0PjxlbGxpcHNlIGN4PSIxMzUuNSIgY3k9IjExNDQuNDQ1MyIgZmlsbD0iIzg0QkU4NCIgcng9IjMiIHJ5PSIzIiBzdHlsZT0ic3Ryb2tlOiMwMzgwNDg7c3Ryb2tlLXdpZHRoOjEuMDsiLz48dGV4dCBmaWxsPSIjMDAwMDAwIiBmb250LWZhbWlseT0ic2Fucy1zZXJpZiIgZm9udC1zaXplPSIxNCIgbGVuZ3RoQWRqdXN0PSJzcGFjaW5nIiB0ZXh0TGVuZ3RoPSI2NSIgeD0iMTQ0LjUiIHk9IjExNDguNjg3NSI+ZGlzcGxheSgpPC90ZXh0PjwvZz48IS0tY2xhc3MgRGF0YWJhc2VDb25uZWN0aW9uLS0+PGcgaWQ9ImVsZW1fRGF0YWJhc2VDb25uZWN0aW9uIj48cmVjdCBjb2RlTGluZT0iMTI4IiBmaWxsPSIjRjFGMUYxIiBoZWlnaHQ9IjkyLjk1MzEiIGlkPSJEYXRhYmFzZUNvbm5lY3Rpb24iIHJ4PSIyLjUiIHJ5PSIyLjUiIHN0eWxlPSJzdHJva2U6IzE4MTgxODtzdHJva2Utd2lkdGg6MC41OyIgd2lkdGg9IjIxNyIgeD0iNDAxLjUiIHk9Ijg3OC41Ii8+PGVsbGlwc2UgY3g9IjQ0My4wNSIgY3k9Ijg5NC41IiBmaWxsPSIjQUREMUIyIiByeD0iMTEiIHJ5PSIxMSIgc3R5bGU9InN0cm9rZTojMTgxODE4O3N0cm9rZS13aWR0aDoxLjA7Ii8+PHBhdGggZD0iTTQ0MC42NzUsODk4Ljc1IEw0NDAuNjc1LDkwMC41IEw0NDUuNjEyNSw5MDAuNSBMNDQ1LjYxMjUsODk4Ljc1IEw0NDAuNjc1LDg5OC43NSBaIE00NDEuMzYyNSw4OTkuNDM3NSBRNDQxLjM2MjUsODk5LjQzNzUgNDQxLjM2MjUsODkwLjI1IEw0MzkuNjEyNSw4OTAuMjUgUTQzOS42MTI1LDg5MC4yNSA0MzkuNjEyNSw4OTkuNDM3NSBMNDQxLjM2MjUsODk5LjQzNzUgWiBNNDQ0LjkyNSw4OTkuNDM3NSBMNDQ2LjY3NSw4OTkuNDM3NSBRNDQ2LjY3NSw4OTkuNDM3NSA0NDYuNjc1LDg5Ni42MjUgTDQ0NC45MjUsODk2LjYyNSBRNDQ0LjkyNSw4OTYuNjI1IDQ0NC45MjUsODk5LjQzNzUgWiBNNDQ0LjkyNSw4OTAuMjUgUTQ0NC45MjUsODkwLjI1IDQ0NC45MjUsODkzLjA2MjUgTDQ0Ni42NzUsODkzLjA2MjUgUTQ0Ni42NzUsODkzLjA2MjUgNDQ2LjY3NSw4OTAuMjUgTDQ0NC45MjUsODkwLjI1IFogTTQ0MC42NzUsODkwLjkzNzUgTDQ0NS42MTI1LDg5MC45Mzc1IEw0NDUuNjEyNSw4ODkuMTg3NSBMNDQwLjY3NSw4ODkuMTg3NSBMNDQwLjY3NSw4OTAuOTM3NSBaICIgZmlsbD0iIzAwMDAwMCIvPjx0ZXh0IGZpbGw9IiMwMDAwMDAiIGZvbnQtZmFtaWx5PSJzYW5zLXNlcmlmIiBmb250LXNpemU9IjE0IiBsZW5ndGhBZGp1c3Q9InNwYWNpbmciIHRleHRMZW5ndGg9IjEyNiIgeD0iNDYyLjk1IiB5PSI5MDAuMjQyMiI+RGF0YWJhc2VDb25uZWN0aW9uPC90ZXh0PjxsaW5lIHN0eWxlPSJzdHJva2U6IzE4MTgxODtzdHJva2Utd2lkdGg6MC41OyIgeDE9IjQwMi41IiB4Mj0iNjE3LjUiIHkxPSI5MTAuNSIgeTI9IjkxMC41Ii8+PHJlY3QgZmlsbD0ibm9uZSIgaGVpZ2h0PSI2IiBzdHlsZT0ic3Ryb2tlOiNDODI5MzA7c3Ryb2tlLXdpZHRoOjEuMDsiIHdpZHRoPSI2IiB4PSI0MDkuNSIgeT0iOTIwLjQ5MjIiLz48dGV4dCBmaWxsPSIjMDAwMDAwIiBmb250LWZhbWlseT0ic2Fucy1zZXJpZiIgZm9udC1zaXplPSIxNCIgbGVuZ3RoQWRqdXN0PSJzcGFjaW5nIiB0ZXh0TGVuZ3RoPSIxNDciIHg9IjQyMS41IiB5PSI5MjcuNzM0NCI+Q29ubmVjdGlvbiBjb25uZWN0aW9uPC90ZXh0PjxsaW5lIHN0eWxlPSJzdHJva2U6IzE4MTgxODtzdHJva2Utd2lkdGg6MC41OyIgeDE9IjQwMi41IiB4Mj0iNjE3LjUiIHkxPSI5MzMuNDg0NCIgeTI9IjkzMy40ODQ0Ii8+PGVsbGlwc2UgY3g9IjQxMi41IiBjeT0iOTQ2LjQ3NjYiIGZpbGw9IiM4NEJFODQiIHJ4PSIzIiByeT0iMyIgc3R5bGU9InN0cm9rZTojMDM4MDQ4O3N0cm9rZS13aWR0aDoxLjA7Ii8+PHRleHQgZmlsbD0iIzAwMDAwMCIgZm9udC1mYW1pbHk9InNhbnMtc2VyaWYiIGZvbnQtc2l6ZT0iMTQiIGxlbmd0aEFkanVzdD0ic3BhY2luZyIgdGV4dExlbmd0aD0iMTQyIiB4PSI0MjEuNSIgeT0iOTUwLjcxODgiPkRhdGFiYXNlQ29ubmVjdGlvbigpPC90ZXh0PjxlbGxpcHNlIGN4PSI0MTIuNSIgY3k9Ijk2MS40NjA5IiBmaWxsPSIjODRCRTg0IiByeD0iMyIgcnk9IjMiIHN0eWxlPSJzdHJva2U6IzAzODA0ODtzdHJva2Utd2lkdGg6MS4wOyIvPjx0ZXh0IGZpbGw9IiMwMDAwMDAiIGZvbnQtZmFtaWx5PSJzYW5zLXNlcmlmIiBmb250LXNpemU9IjE0IiBsZW5ndGhBZGp1c3Q9InNwYWNpbmciIHRleHRMZW5ndGg9IjE5MSIgeD0iNDIxLjUiIHk9Ijk2NS43MDMxIj5nZXRDb25uZWN0aW9uKCk6IENvbm5lY3Rpb248L3RleHQ+PC9nPjwhLS1jbGFzcyBBZHZlcnRpc2VtZW50LS0+PGcgaWQ9ImVsZW1fQWR2ZXJ0aXNlbWVudCI+PHJlY3QgY29kZUxpbmU9IjEzNCIgZmlsbD0iI0YxRjFGMSIgaGVpZ2h0PSIxNTIuODkwNiIgaWQ9IkFkdmVydGlzZW1lbnQiIHJ4PSIyLjUiIHJ5PSIyLjUiIHN0eWxlPSJzdHJva2U6IzE4MTgxODtzdHJva2Utd2lkdGg6MC41OyIgd2lkdGg9IjI2NyIgeD0iMjk2LjUiIHk9IjEyMjkuNSIvPjxlbGxpcHNlIGN4PSIzNzkuNzUiIGN5PSIxMjQ1LjUiIGZpbGw9IiNBREQxQjIiIHJ4PSIxMSIgcnk9IjExIiBzdHlsZT0ic3Ryb2tlOiMxODE4MTg7c3Ryb2tlLXdpZHRoOjEuMDsiLz48cGF0aCBkPSJNMzc3LjM3NSwxMjQ5Ljc1IEwzNzcuMzc1LDEyNTEuNSBMMzgyLjMxMjUsMTI1MS41IEwzODIuMzEyNSwxMjQ5Ljc1IEwzNzcuMzc1LDEyNDkuNzUgWiBNMzc4LjA2MjUsMTI1MC40Mzc1IFEzNzguMDYyNSwxMjUwLjQzNzUgMzc4LjA2MjUsMTI0MS4yNSBMMzc2LjMxMjUsMTI0MS4yNSBRMzc2LjMxMjUsMTI0MS4yNSAzNzYuMzEyNSwxMjUwLjQzNzUgTDM3OC4wNjI1LDEyNTAuNDM3NSBaIE0zODEuNjI1LDEyNTAuNDM3NSBMMzgzLjM3NSwxMjUwLjQzNzUgUTM4My4zNzUsMTI1MC40Mzc1IDM4My4zNzUsMTI0Ny42MjUgTDM4MS42MjUsMTI0Ny42MjUgUTM4MS42MjUsMTI0Ny42MjUgMzgxLjYyNSwxMjUwLjQzNzUgWiBNMzgxLjYyNSwxMjQxLjI1IFEzODEuNjI1LDEyNDEuMjUgMzgxLjYyNSwxMjQ0LjA2MjUgTDM4My4zNzUsMTI0NC4wNjI1IFEzODMuMzc1LDEyNDQuMDYyNSAzODMuMzc1LDEyNDEuMjUgTDM4MS42MjUsMTI0MS4yNSBaIE0zNzcuMzc1LDEyNDEuOTM3NSBMMzgyLjMxMjUsMTI0MS45Mzc1IEwzODIuMzEyNSwxMjQwLjE4NzUgTDM3Ny4zNzUsMTI0MC4xODc1IEwzNzcuMzc1LDEyNDEuOTM3NSBaICIgZmlsbD0iIzAwMDAwMCIvPjx0ZXh0IGZpbGw9IiMwMDAwMDAiIGZvbnQtZmFtaWx5PSJzYW5zLXNlcmlmIiBmb250LXNpemU9IjE0IiBsZW5ndGhBZGp1c3Q9InNwYWNpbmciIHRleHRMZW5ndGg9IjkyIiB4PSI0MDAuMjUiIHk9IjEyNTEuMjQyMiI+QWR2ZXJ0aXNlbWVudDwvdGV4dD48bGluZSBzdHlsZT0ic3Ryb2tlOiMxODE4MTg7c3Ryb2tlLXdpZHRoOjAuNTsiIHgxPSIyOTcuNSIgeDI9IjU2Mi41IiB5MT0iMTI2MS41IiB5Mj0iMTI2MS41Ii8+PHJlY3QgZmlsbD0ibm9uZSIgaGVpZ2h0PSI2IiBzdHlsZT0ic3Ryb2tlOiNDODI5MzA7c3Ryb2tlLXdpZHRoOjEuMDsiIHdpZHRoPSI2IiB4PSIzMDQuNSIgeT0iMTI3MS40OTIyIi8+PHRleHQgZmlsbD0iIzAwMDAwMCIgZm9udC1mYW1pbHk9InNhbnMtc2VyaWYiIGZvbnQtc2l6ZT0iMTQiIGxlbmd0aEFkanVzdD0ic3BhY2luZyIgdGV4dExlbmd0aD0iNDIiIHg9IjMxNi41IiB5PSIxMjc4LjczNDQiPmludCBpZDwvdGV4dD48cmVjdCBmaWxsPSJub25lIiBoZWlnaHQ9IjYiIHN0eWxlPSJzdHJva2U6I0M4MjkzMDtzdHJva2Utd2lkdGg6MS4wOyIgd2lkdGg9IjYiIHg9IjMwNC41IiB5PSIxMjg2LjQ3NjYiLz48dGV4dCBmaWxsPSIjMDAwMDAwIiBmb250LWZhbWlseT0ic2Fucy1zZXJpZiIgZm9udC1zaXplPSIxNCIgbGVuZ3RoQWRqdXN0PSJzcGFjaW5nIiB0ZXh0TGVuZ3RoPSI4NCIgeD0iMzE2LjUiIHk9IjEyOTMuNzE4OCI+U3RyaW5nIHRpdGxlPC90ZXh0PjxyZWN0IGZpbGw9Im5vbmUiIGhlaWdodD0iNiIgc3R5bGU9InN0cm9rZTojQzgyOTMwO3N0cm9rZS13aWR0aDoxLjA7IiB3aWR0aD0iNiIgeD0iMzA0LjUiIHk9IjEzMDEuNDYwOSIvPjx0ZXh0IGZpbGw9IiMwMDAwMDAiIGZvbnQtZmFtaWx5PSJzYW5zLXNlcmlmIiBmb250LXNpemU9IjE0IiBsZW5ndGhBZGp1c3Q9InNwYWNpbmciIHRleHRMZW5ndGg9IjExMyIgeD0iMzE2LjUiIHk9IjEzMDguNzAzMSI+U3RyaW5nIGltYWdlUGF0aDwvdGV4dD48bGluZSBzdHlsZT0ic3Ryb2tlOiMxODE4MTg7c3Ryb2tlLXdpZHRoOjAuNTsiIHgxPSIyOTcuNSIgeDI9IjU2Mi41IiB5MT0iMTMxNC40NTMxIiB5Mj0iMTMxNC40NTMxIi8+PGVsbGlwc2UgY3g9IjMwNy41IiBjeT0iMTMyNy40NDUzIiBmaWxsPSIjODRCRTg0IiByeD0iMyIgcnk9IjMiIHN0eWxlPSJzdHJva2U6IzAzODA0ODtzdHJva2Utd2lkdGg6MS4wOyIvPjx0ZXh0IGZpbGw9IiMwMDAwMDAiIGZvbnQtZmFtaWx5PSJzYW5zLXNlcmlmIiBmb250LXNpemU9IjE0IiBsZW5ndGhBZGp1c3Q9InNwYWNpbmciIHRleHRMZW5ndGg9IjI0MSIgeD0iMzE2LjUiIHk9IjEzMzEuNjg3NSI+QWR2ZXJ0aXNlbWVudChpbnQsIFN0cmluZywgU3RyaW5nKTwvdGV4dD48ZWxsaXBzZSBjeD0iMzA3LjUiIGN5PSIxMzQyLjQyOTciIGZpbGw9IiM4NEJFODQiIHJ4PSIzIiByeT0iMyIgc3R5bGU9InN0cm9rZTojMDM4MDQ4O3N0cm9rZS13aWR0aDoxLjA7Ii8+PHRleHQgZmlsbD0iIzAwMDAwMCIgZm9udC1mYW1pbHk9InNhbnMtc2VyaWYiIGZvbnQtc2l6ZT0iMTQiIGxlbmd0aEFkanVzdD0ic3BhY2luZyIgdGV4dExlbmd0aD0iNzkiIHg9IjMxNi41IiB5PSIxMzQ2LjY3MTkiPmludCBnZXRJZCgpPC90ZXh0PjxlbGxpcHNlIGN4PSIzMDcuNSIgY3k9IjEzNTcuNDE0MSIgZmlsbD0iIzg0QkU4NCIgcng9IjMiIHJ5PSIzIiBzdHlsZT0ic3Ryb2tlOiMwMzgwNDg7c3Ryb2tlLXdpZHRoOjEuMDsiLz48dGV4dCBmaWxsPSIjMDAwMDAwIiBmb250LWZhbWlseT0ic2Fucy1zZXJpZiIgZm9udC1zaXplPSIxNCIgbGVuZ3RoQWRqdXN0PSJzcGFjaW5nIiB0ZXh0TGVuZ3RoPSIxMjEiIHg9IjMxNi41IiB5PSIxMzYxLjY1NjMiPlN0cmluZyBnZXRUaXRsZSgpPC90ZXh0PjxlbGxpcHNlIGN4PSIzMDcuNSIgY3k9IjEzNzIuMzk4NCIgZmlsbD0iIzg0QkU4NCIgcng9IjMiIHJ5PSIzIiBzdHlsZT0ic3Ryb2tlOiMwMzgwNDg7c3Ryb2tlLXdpZHRoOjEuMDsiLz48dGV4dCBmaWxsPSIjMDAwMDAwIiBmb250LWZhbWlseT0ic2Fucy1zZXJpZiIgZm9udC1zaXplPSIxNCIgbGVuZ3RoQWRqdXN0PSJzcGFjaW5nIiB0ZXh0TGVuZ3RoPSIxNTAiIHg9IjMxNi41IiB5PSIxMzc2LjY0MDYiPlN0cmluZyBnZXRJbWFnZVBhdGgoKTwvdGV4dD48L2c+PCEtLWNsYXNzIEFkdmVydGlzZW1lbnREQU8tLT48ZyBpZD0iZWxlbV9BZHZlcnRpc2VtZW50REFPIj48cmVjdCBjb2RlTGluZT0iMTQ0IiBmaWxsPSIjRjFGMUYxIiBoZWlnaHQ9IjYyLjk4NDQiIGlkPSJBZHZlcnRpc2VtZW50REFPIiByeD0iMi41IiByeT0iMi41IiBzdHlsZT0ic3Ryb2tlOiMxODE4MTg7c3Ryb2tlLXdpZHRoOjAuNTsiIHdpZHRoPSIzMjQiIHg9IjQzNSIgeT0iMTA2OSIvPjxlbGxpcHNlIGN4PSI1MzYuMjUiIGN5PSIxMDg1IiBmaWxsPSIjQUREMUIyIiByeD0iMTEiIHJ5PSIxMSIgc3R5bGU9InN0cm9rZTojMTgxODE4O3N0cm9rZS13aWR0aDoxLjA7Ii8+PHBhdGggZD0iTTUzMy44NzUsMTA4OS4yNSBMNTMzLjg3NSwxMDkxIEw1MzguODEyNSwxMDkxIEw1MzguODEyNSwxMDg5LjI1IEw1MzMuODc1LDEwODkuMjUgWiBNNTM0LjU2MjUsMTA4OS45Mzc1IFE1MzQuNTYyNSwxMDg5LjkzNzUgNTM0LjU2MjUsMTA4MC43NSBMNTMyLjgxMjUsMTA4MC43NSBRNTMyLjgxMjUsMTA4MC43NSA1MzIuODEyNSwxMDg5LjkzNzUgTDUzNC41NjI1LDEwODkuOTM3NSBaIE01MzguMTI1LDEwODkuOTM3NSBMNTM5Ljg3NSwxMDg5LjkzNzUgUTUzOS44NzUsMTA4OS45Mzc1IDUzOS44NzUsMTA4Ny4xMjUgTDUzOC4xMjUsMTA4Ny4xMjUgUTUzOC4xMjUsMTA4Ny4xMjUgNTM4LjEyNSwxMDg5LjkzNzUgWiBNNTM4LjEyNSwxMDgwLjc1IFE1MzguMTI1LDEwODAuNzUgNTM4LjEyNSwxMDgzLjU2MjUgTDUzOS44NzUsMTA4My41NjI1IFE1MzkuODc1LDEwODMuNTYyNSA1MzkuODc1LDEwODAuNzUgTDUzOC4xMjUsMTA4MC43NSBaIE01MzMuODc1LDEwODEuNDM3NSBMNTM4LjgxMjUsMTA4MS40Mzc1IEw1MzguODEyNSwxMDc5LjY4NzUgTDUzMy44NzUsMTA3OS42ODc1IEw1MzMuODc1LDEwODEuNDM3NSBaICIgZmlsbD0iIzAwMDAwMCIvPjx0ZXh0IGZpbGw9IiMwMDAwMDAiIGZvbnQtZmFtaWx5PSJzYW5zLXNlcmlmIiBmb250LXNpemU9IjE0IiBsZW5ndGhBZGp1c3Q9InNwYWNpbmciIHRleHRMZW5ndGg9IjExMyIgeD0iNTU2Ljc1IiB5PSIxMDkwLjc0MjIiPkFkdmVydGlzZW1lbnREQU88L3RleHQ+PGxpbmUgc3R5bGU9InN0cm9rZTojMTgxODE4O3N0cm9rZS13aWR0aDowLjU7IiB4MT0iNDM2IiB4Mj0iNzU4IiB5MT0iMTEwMSIgeTI9IjExMDEiLz48bGluZSBzdHlsZT0ic3Ryb2tlOiMxODE4MTg7c3Ryb2tlLXdpZHRoOjAuNTsiIHgxPSI0MzYiIHgyPSI3NTgiIHkxPSIxMTA5IiB5Mj0iMTEwOSIvPjxlbGxpcHNlIGN4PSI0NDYiIGN5PSIxMTIxLjk5MjIiIGZpbGw9IiM4NEJFODQiIHJ4PSIzIiByeT0iMyIgc3R5bGU9InN0cm9rZTojMDM4MDQ4O3N0cm9rZS13aWR0aDoxLjA7Ii8+PHRleHQgZmlsbD0iIzAwMDAwMCIgZm9udC1mYW1pbHk9InNhbnMtc2VyaWYiIGZvbnQtc2l6ZT0iMTQiIGxlbmd0aEFkanVzdD0ic3BhY2luZyIgdGV4dExlbmd0aD0iMjk4IiB4PSI0NTUiIHk9IjExMjYuMjM0NCI+TGlzdCZsdDtBZHZlcnRpc2VtZW50Jmd0OyBnZXRBbGxBZHZlcnRpc2VtZW50cygpPC90ZXh0PjwvZz48IS0tY2xhc3MgU3Vid2F5TWFwUGFuZWwtLT48ZyBpZD0iZWxlbV9TdWJ3YXlNYXBQYW5lbCI+PHJlY3QgY29kZUxpbmU9IjE0OCIgZmlsbD0iI0YxRjFGMSIgaGVpZ2h0PSIxMDcuOTM3NSIgaWQ9IlN1YndheU1hcFBhbmVsIiByeD0iMi41IiByeT0iMi41IiBzdHlsZT0ic3Ryb2tlOiMxODE4MTg7c3Ryb2tlLXdpZHRoOjAuNTsiIHdpZHRoPSI0MTQiIHg9IjIxNTAiIHk9Ijg3MSIvPjxlbGxpcHNlIGN4PSIyMzAzLjI1IiBjeT0iODg3IiBmaWxsPSIjQUREMUIyIiByeD0iMTEiIHJ5PSIxMSIgc3R5bGU9InN0cm9rZTojMTgxODE4O3N0cm9rZS13aWR0aDoxLjA7Ii8+PHBhdGggZD0iTTIzMDAuODc1LDg5MS4yNSBMMjMwMC44NzUsODkzIEwyMzA1LjgxMjUsODkzIEwyMzA1LjgxMjUsODkxLjI1IEwyMzAwLjg3NSw4OTEuMjUgWiBNMjMwMS41NjI1LDg5MS45Mzc1IFEyMzAxLjU2MjUsODkxLjkzNzUgMjMwMS41NjI1LDg4Mi43NSBMMjI5OS44MTI1LDg4Mi43NSBRMjI5OS44MTI1LDg4Mi43NSAyMjk5LjgxMjUsODkxLjkzNzUgTDIzMDEuNTYyNSw4OTEuOTM3NSBaIE0yMzA1LjEyNSw4OTEuOTM3NSBMMjMwNi44NzUsODkxLjkzNzUgUTIzMDYuODc1LDg5MS45Mzc1IDIzMDYuODc1LDg4OS4xMjUgTDIzMDUuMTI1LDg4OS4xMjUgUTIzMDUuMTI1LDg4OS4xMjUgMjMwNS4xMjUsODkxLjkzNzUgWiBNMjMwNS4xMjUsODgyLjc1IFEyMzA1LjEyNSw4ODIuNzUgMjMwNS4xMjUsODg1LjU2MjUgTDIzMDYuODc1LDg4NS41NjI1IFEyMzA2Ljg3NSw4ODUuNTYyNSAyMzA2Ljg3NSw4ODIuNzUgTDIzMDUuMTI1LDg4Mi43NSBaIE0yMzAwLjg3NSw4ODMuNDM3NSBMMjMwNS44MTI1LDg4My40Mzc1IEwyMzA1LjgxMjUsODgxLjY4NzUgTDIzMDAuODc1LDg4MS42ODc1IEwyMzAwLjg3NSw4ODMuNDM3NSBaICIgZmlsbD0iIzAwMDAwMCIvPjx0ZXh0IGZpbGw9IiMwMDAwMDAiIGZvbnQtZmFtaWx5PSJzYW5zLXNlcmlmIiBmb250LXNpemU9IjE0IiBsZW5ndGhBZGp1c3Q9InNwYWNpbmciIHRleHRMZW5ndGg9Ijk5IiB4PSIyMzIzLjc1IiB5PSI4OTIuNzQyMiI+U3Vid2F5TWFwUGFuZWw8L3RleHQ+PGxpbmUgc3R5bGU9InN0cm9rZTojMTgxODE4O3N0cm9rZS13aWR0aDowLjU7IiB4MT0iMjE1MSIgeDI9IjI1NjMiIHkxPSI5MDMiIHkyPSI5MDMiLz48cmVjdCBmaWxsPSJub25lIiBoZWlnaHQ9IjYiIHN0eWxlPSJzdHJva2U6I0M4MjkzMDtzdHJva2Utd2lkdGg6MS4wOyIgd2lkdGg9IjYiIHg9IjIxNTgiIHk9IjkxMi45OTIyIi8+PHRleHQgZmlsbD0iIzAwMDAwMCIgZm9udC1mYW1pbHk9InNhbnMtc2VyaWYiIGZvbnQtc2l6ZT0iMTQiIGxlbmd0aEFkanVzdD0ic3BhY2luZyIgdGV4dExlbmd0aD0iMjY3IiB4PSIyMTcwIiB5PSI5MjAuMjM0NCI+TWFwJmx0O1N0cmluZywgTGlzdCZsdDtTdGF0aW9uJmd0OyZndDsgc3Vid2F5TGluZXM8L3RleHQ+PHJlY3QgZmlsbD0ibm9uZSIgaGVpZ2h0PSI2IiBzdHlsZT0ic3Ryb2tlOiNDODI5MzA7c3Ryb2tlLXdpZHRoOjEuMDsiIHdpZHRoPSI2IiB4PSIyMTU4IiB5PSI5MjcuOTc2NiIvPjx0ZXh0IGZpbGw9IiMwMDAwMDAiIGZvbnQtZmFtaWx5PSJzYW5zLXNlcmlmIiBmb250LXNpemU9IjE0IiBsZW5ndGhBZGp1c3Q9InNwYWNpbmciIHRleHRMZW5ndGg9IjEyNiIgeD0iMjE3MCIgeT0iOTM1LjIxODgiPkxpc3QmbHQ7VHJhaW4mZ3Q7IHRyYWluczwvdGV4dD48bGluZSBzdHlsZT0ic3Ryb2tlOiMxODE4MTg7c3Ryb2tlLXdpZHRoOjAuNTsiIHgxPSIyMTUxIiB4Mj0iMjU2MyIgeTE9Ijk0MC45Njg4IiB5Mj0iOTQwLjk2ODgiLz48ZWxsaXBzZSBjeD0iMjE2MSIgY3k9Ijk1My45NjA5IiBmaWxsPSIjODRCRTg0IiByeD0iMyIgcnk9IjMiIHN0eWxlPSJzdHJva2U6IzAzODA0ODtzdHJva2Utd2lkdGg6MS4wOyIvPjx0ZXh0IGZpbGw9IiMwMDAwMDAiIGZvbnQtZmFtaWx5PSJzYW5zLXNlcmlmIiBmb250LXNpemU9IjE0IiBsZW5ndGhBZGp1c3Q9InNwYWNpbmciIHRleHRMZW5ndGg9IjM4OCIgeD0iMjE3MCIgeT0iOTU4LjIwMzEiPlN1YndheU1hcFBhbmVsKE1hcCZsdDtTdHJpbmcsIExpc3QmbHQ7U3RhdGlvbiZndDsmZ3Q7LCBMaXN0Jmx0O1RyYWluJmd0Oyk8L3RleHQ+PGVsbGlwc2UgY3g9IjIxNjEiIGN5PSI5NjguOTQ1MyIgZmlsbD0iIzg0QkU4NCIgcng9IjMiIHJ5PSIzIiBzdHlsZT0ic3Ryb2tlOiMwMzgwNDg7c3Ryb2tlLXdpZHRoOjEuMDsiLz48dGV4dCBmaWxsPSIjMDAwMDAwIiBmb250LWZhbWlseT0ic2Fucy1zZXJpZiIgZm9udC1zaXplPSIxNCIgbGVuZ3RoQWRqdXN0PSJzcGFjaW5nIiB0ZXh0TGVuZ3RoPSIxNzEiIHg9IjIxNzAiIHk9Ijk3My4xODc1Ij5wYWludENvbXBvbmVudChHcmFwaGljcyk8L3RleHQ+PC9nPjwhLS1jbGFzcyBTdWJ3YXlTaW11bGF0aW9uLS0+PGcgaWQ9ImVsZW1fU3Vid2F5U2ltdWxhdGlvbiI+PHJlY3QgY29kZUxpbmU9IjE1NSIgZmlsbD0iI0YxRjFGMSIgaGVpZ2h0PSIxMzcuOTA2MyIgaWQ9IlN1YndheVNpbXVsYXRpb24iIHJ4PSIyLjUiIHJ5PSIyLjUiIHN0eWxlPSJzdHJva2U6IzE4MTgxODtzdHJva2Utd2lkdGg6MC41OyIgd2lkdGg9IjQ5OSIgeD0iMTcyMy41IiB5PSI1NjgiLz48ZWxsaXBzZSBjeD0iMTkxMS43NSIgY3k9IjU4NCIgZmlsbD0iI0FERDFCMiIgcng9IjExIiByeT0iMTEiIHN0eWxlPSJzdHJva2U6IzE4MTgxODtzdHJva2Utd2lkdGg6MS4wOyIvPjxwYXRoIGQ9Ik0xOTA5LjM3NSw1ODguMjUgTDE5MDkuMzc1LDU5MCBMMTkxNC4zMTI1LDU5MCBMMTkxNC4zMTI1LDU4OC4yNSBMMTkwOS4zNzUsNTg4LjI1IFogTTE5MTAuMDYyNSw1ODguOTM3NSBRMTkxMC4wNjI1LDU4OC45Mzc1IDE5MTAuMDYyNSw1NzkuNzUgTDE5MDguMzEyNSw1NzkuNzUgUTE5MDguMzEyNSw1NzkuNzUgMTkwOC4zMTI1LDU4OC45Mzc1IEwxOTEwLjA2MjUsNTg4LjkzNzUgWiBNMTkxMy42MjUsNTg4LjkzNzUgTDE5MTUuMzc1LDU4OC45Mzc1IFExOTE1LjM3NSw1ODguOTM3NSAxOTE1LjM3NSw1ODYuMTI1IEwxOTEzLjYyNSw1ODYuMTI1IFExOTEzLjYyNSw1ODYuMTI1IDE5MTMuNjI1LDU4OC45Mzc1IFogTTE5MTMuNjI1LDU3OS43NSBRMTkxMy42MjUsNTc5Ljc1IDE5MTMuNjI1LDU4Mi41NjI1IEwxOTE1LjM3NSw1ODIuNTYyNSBRMTkxNS4zNzUsNTgyLjU2MjUgMTkxNS4zNzUsNTc5Ljc1IEwxOTEzLjYyNSw1NzkuNzUgWiBNMTkwOS4zNzUsNTgwLjQzNzUgTDE5MTQuMzEyNSw1ODAuNDM3NSBMMTkxNC4zMTI1LDU3OC42ODc1IEwxOTA5LjM3NSw1NzguNjg3NSBMMTkwOS4zNzUsNTgwLjQzNzUgWiAiIGZpbGw9IiMwMDAwMDAiLz48dGV4dCBmaWxsPSIjMDAwMDAwIiBmb250LWZhbWlseT0ic2Fucy1zZXJpZiIgZm9udC1zaXplPSIxNCIgbGVuZ3RoQWRqdXN0PSJzcGFjaW5nIiB0ZXh0TGVuZ3RoPSIxMTQiIHg9IjE5MzIuMjUiIHk9IjU4OS43NDIyIj5TdWJ3YXlTaW11bGF0aW9uPC90ZXh0PjxsaW5lIHN0eWxlPSJzdHJva2U6IzE4MTgxODtzdHJva2Utd2lkdGg6MC41OyIgeDE9IjE3MjQuNSIgeDI9IjIyMjEuNSIgeTE9IjYwMCIgeTI9IjYwMCIvPjxyZWN0IGZpbGw9Im5vbmUiIGhlaWdodD0iNiIgc3R5bGU9InN0cm9rZTojQzgyOTMwO3N0cm9rZS13aWR0aDoxLjA7IiB3aWR0aD0iNiIgeD0iMTczMS41IiB5PSI2MDkuOTkyMiIvPjx0ZXh0IGZpbGw9IiMwMDAwMDAiIGZvbnQtZmFtaWx5PSJzYW5zLXNlcmlmIiBmb250LXNpemU9IjE0IiBsZW5ndGhBZGp1c3Q9InNwYWNpbmciIHRleHRMZW5ndGg9IjEyNiIgeD0iMTc0My41IiB5PSI2MTcuMjM0NCI+TGlzdCZsdDtUcmFpbiZndDsgdHJhaW5zPC90ZXh0PjxyZWN0IGZpbGw9Im5vbmUiIGhlaWdodD0iNiIgc3R5bGU9InN0cm9rZTojQzgyOTMwO3N0cm9rZS13aWR0aDoxLjA7IiB3aWR0aD0iNiIgeD0iMTczMS41IiB5PSI2MjQuOTc2NiIvPjx0ZXh0IGZpbGw9IiMwMDAwMDAiIGZvbnQtZmFtaWx5PSJzYW5zLXNlcmlmIiBmb250LXNpemU9IjE0IiBsZW5ndGhBZGp1c3Q9InNwYWNpbmciIHRleHRMZW5ndGg9IjI2NyIgeD0iMTc0My41IiB5PSI2MzIuMjE4OCI+TWFwJmx0O1N0cmluZywgTGlzdCZsdDtTdGF0aW9uJmd0OyZndDsgc3Vid2F5TGluZXM8L3RleHQ+PHJlY3QgZmlsbD0ibm9uZSIgaGVpZ2h0PSI2IiBzdHlsZT0ic3Ryb2tlOiNDODI5MzA7c3Ryb2tlLXdpZHRoOjEuMDsiIHdpZHRoPSI2IiB4PSIxNzMxLjUiIHk9IjYzOS45NjA5Ii8+PHRleHQgZmlsbD0iIzAwMDAwMCIgZm9udC1mYW1pbHk9InNhbnMtc2VyaWYiIGZvbnQtc2l6ZT0iMTQiIGxlbmd0aEFkanVzdD0ic3BhY2luZyIgdGV4dExlbmd0aD0iNzkiIHg9IjE3NDMuNSIgeT0iNjQ3LjIwMzEiPlRpbWVyIHRpbWVyPC90ZXh0PjxyZWN0IGZpbGw9Im5vbmUiIGhlaWdodD0iNiIgc3R5bGU9InN0cm9rZTojQzgyOTMwO3N0cm9rZS13aWR0aDoxLjA7IiB3aWR0aD0iNiIgeD0iMTczMS41IiB5PSI2NTQuOTQ1MyIvPjx0ZXh0IGZpbGw9IiMwMDAwMDAiIGZvbnQtZmFtaWx5PSJzYW5zLXNlcmlmIiBmb250LXNpemU9IjE0IiBsZW5ndGhBZGp1c3Q9InNwYWNpbmciIHRleHRMZW5ndGg9IjEyMCIgeD0iMTc0My41IiB5PSI2NjIuMTg3NSI+TWFwUGFuZWwgbWFwUGFuZWw8L3RleHQ+PGxpbmUgc3R5bGU9InN0cm9rZTojMTgxODE4O3N0cm9rZS13aWR0aDowLjU7IiB4MT0iMTcyNC41IiB4Mj0iMjIyMS41IiB5MT0iNjY3LjkzNzUiIHkyPSI2NjcuOTM3NSIvPjxlbGxpcHNlIGN4PSIxNzM0LjUiIGN5PSI2ODAuOTI5NyIgZmlsbD0iIzg0QkU4NCIgcng9IjMiIHJ5PSIzIiBzdHlsZT0ic3Ryb2tlOiMwMzgwNDg7c3Ryb2tlLXdpZHRoOjEuMDsiLz48dGV4dCBmaWxsPSIjMDAwMDAwIiBmb250LWZhbWlseT0ic2Fucy1zZXJpZiIgZm9udC1zaXplPSIxNCIgbGVuZ3RoQWRqdXN0PSJzcGFjaW5nIiB0ZXh0TGVuZ3RoPSI0NzMiIHg9IjE3NDMuNSIgeT0iNjg1LjE3MTkiPlN1YndheVNpbXVsYXRpb24oTGlzdCZsdDtUcmFpbiZndDssIE1hcCZsdDtTdHJpbmcsIExpc3QmbHQ7U3RhdGlvbiZndDsmZ3Q7LCBNYXBQYW5lbCk8L3RleHQ+PGVsbGlwc2UgY3g9IjE3MzQuNSIgY3k9IjY5NS45MTQxIiBmaWxsPSIjODRCRTg0IiByeD0iMyIgcnk9IjMiIHN0eWxlPSJzdHJva2U6IzAzODA0ODtzdHJva2Utd2lkdGg6MS4wOyIvPjx0ZXh0IGZpbGw9IiMwMDAwMDAiIGZvbnQtZmFtaWx5PSJzYW5zLXNlcmlmIiBmb250LXNpemU9IjE0IiBsZW5ndGhBZGp1c3Q9InNwYWNpbmciIHRleHRMZW5ndGg9IjEyMiIgeD0iMTc0My41IiB5PSI3MDAuMTU2MyI+c3RhcnRTaW11bGF0aW9uKCk8L3RleHQ+PC9nPjwhLS1jbGFzcyBXZWF0aGVyRmV0Y2hlci0tPjxnIGlkPSJlbGVtX1dlYXRoZXJGZXRjaGVyIj48cmVjdCBjb2RlTGluZT0iMTY0IiBmaWxsPSIjRjFGMUYxIiBoZWlnaHQ9IjYyLjk4NDQiIGlkPSJXZWF0aGVyRmV0Y2hlciIgcng9IjIuNSIgcnk9IjIuNSIgc3R5bGU9InN0cm9rZTojMTgxODE4O3N0cm9rZS13aWR0aDowLjU7IiB3aWR0aD0iMTg5IiB4PSI2NTMuNSIgeT0iODkzLjUiLz48ZWxsaXBzZSBjeD0iNjk1LjA1IiBjeT0iOTA5LjUiIGZpbGw9IiNBREQxQjIiIHJ4PSIxMSIgcnk9IjExIiBzdHlsZT0ic3Ryb2tlOiMxODE4MTg7c3Ryb2tlLXdpZHRoOjEuMDsiLz48cGF0aCBkPSJNNjkyLjY3NSw5MTMuNzUgTDY5Mi42NzUsOTE1LjUgTDY5Ny42MTI1LDkxNS41IEw2OTcuNjEyNSw5MTMuNzUgTDY5Mi42NzUsOTEzLjc1IFogTTY5My4zNjI1LDkxNC40Mzc1IFE2OTMuMzYyNSw5MTQuNDM3NSA2OTMuMzYyNSw5MDUuMjUgTDY5MS42MTI1LDkwNS4yNSBRNjkxLjYxMjUsOTA1LjI1IDY5MS42MTI1LDkxNC40Mzc1IEw2OTMuMzYyNSw5MTQuNDM3NSBaIE02OTYuOTI1LDkxNC40Mzc1IEw2OTguNjc1LDkxNC40Mzc1IFE2OTguNjc1LDkxNC40Mzc1IDY5OC42NzUsOTExLjYyNSBMNjk2LjkyNSw5MTEuNjI1IFE2OTYuOTI1LDkxMS42MjUgNjk2LjkyNSw5MTQuNDM3NSBaIE02OTYuOTI1LDkwNS4yNSBRNjk2LjkyNSw5MDUuMjUgNjk2LjkyNSw5MDguMDYyNSBMNjk4LjY3NSw5MDguMDYyNSBRNjk4LjY3NSw5MDguMDYyNSA2OTguNjc1LDkwNS4yNSBMNjk2LjkyNSw5MDUuMjUgWiBNNjkyLjY3NSw5MDUuOTM3NSBMNjk3LjYxMjUsOTA1LjkzNzUgTDY5Ny42MTI1LDkwNC4xODc1IEw2OTIuNjc1LDkwNC4xODc1IEw2OTIuNjc1LDkwNS45Mzc1IFogIiBmaWxsPSIjMDAwMDAwIi8+PHRleHQgZmlsbD0iIzAwMDAwMCIgZm9udC1mYW1pbHk9InNhbnMtc2VyaWYiIGZvbnQtc2l6ZT0iMTQiIGxlbmd0aEFkanVzdD0ic3BhY2luZyIgdGV4dExlbmd0aD0iOTgiIHg9IjcxNC45NSIgeT0iOTE1LjI0MjIiPldlYXRoZXJGZXRjaGVyPC90ZXh0PjxsaW5lIHN0eWxlPSJzdHJva2U6IzE4MTgxODtzdHJva2Utd2lkdGg6MC41OyIgeDE9IjY1NC41IiB4Mj0iODQxLjUiIHkxPSI5MjUuNSIgeTI9IjkyNS41Ii8+PGxpbmUgc3R5bGU9InN0cm9rZTojMTgxODE4O3N0cm9rZS13aWR0aDowLjU7IiB4MT0iNjU0LjUiIHgyPSI4NDEuNSIgeTE9IjkzMy41IiB5Mj0iOTMzLjUiLz48ZWxsaXBzZSBjeD0iNjY0LjUiIGN5PSI5NDYuNDkyMiIgZmlsbD0iIzg0QkU4NCIgcng9IjMiIHJ5PSIzIiBzdHlsZT0ic3Ryb2tlOiMwMzgwNDg7c3Ryb2tlLXdpZHRoOjEuMDsiLz48dGV4dCBmaWxsPSIjMDAwMDAwIiBmb250LWZhbWlseT0ic2Fucy1zZXJpZiIgZm9udC1zaXplPSIxNCIgbGVuZ3RoQWRqdXN0PSJzcGFjaW5nIiB0ZXh0TGVuZ3RoPSIxNjMiIHg9IjY3My41IiB5PSI5NTAuNzM0NCI+U3RyaW5nW10gZmV0Y2hXZWF0aGVyKCk8L3RleHQ+PC9nPjwhLS1jbGFzcyBOZXdzRmV0Y2hlci0tPjxnIGlkPSJlbGVtX05ld3NGZXRjaGVyIj48cmVjdCBjb2RlTGluZT0iMTY4IiBmaWxsPSIjRjFGMUYxIiBoZWlnaHQ9IjYyLjk4NDQiIGlkPSJOZXdzRmV0Y2hlciIgcng9IjIuNSIgcnk9IjIuNSIgc3R5bGU9InN0cm9rZTojMTgxODE4O3N0cm9rZS13aWR0aDowLjU7IiB3aWR0aD0iMTY5IiB4PSI4NzcuNSIgeT0iODkzLjUiLz48ZWxsaXBzZSBjeD0iOTE5LjA1IiBjeT0iOTA5LjUiIGZpbGw9IiNBREQxQjIiIHJ4PSIxMSIgcnk9IjExIiBzdHlsZT0ic3Ryb2tlOiMxODE4MTg7c3Ryb2tlLXdpZHRoOjEuMDsiLz48cGF0aCBkPSJNOTE2LjY3NSw5MTMuNzUgTDkxNi42NzUsOTE1LjUgTDkyMS42MTI1LDkxNS41IEw5MjEuNjEyNSw5MTMuNzUgTDkxNi42NzUsOTEzLjc1IFogTTkxNy4zNjI1LDkxNC40Mzc1IFE5MTcuMzYyNSw5MTQuNDM3NSA5MTcuMzYyNSw5MDUuMjUgTDkxNS42MTI1LDkwNS4yNSBROTE1LjYxMjUsOTA1LjI1IDkxNS42MTI1LDkxNC40Mzc1IEw5MTcuMzYyNSw5MTQuNDM3NSBaIE05MjAuOTI1LDkxNC40Mzc1IEw5MjIuNjc1LDkxNC40Mzc1IFE5MjIuNjc1LDkxNC40Mzc1IDkyMi42NzUsOTExLjYyNSBMOTIwLjkyNSw5MTEuNjI1IFE5MjAuOTI1LDkxMS42MjUgOTIwLjkyNSw5MTQuNDM3NSBaIE05MjAuOTI1LDkwNS4yNSBROTIwLjkyNSw5MDUuMjUgOTIwLjkyNSw5MDguMDYyNSBMOTIyLjY3NSw5MDguMDYyNSBROTIyLjY3NSw5MDguMDYyNSA5MjIuNjc1LDkwNS4yNSBMOTIwLjkyNSw5MDUuMjUgWiBNOTE2LjY3NSw5MDUuOTM3NSBMOTIxLjYxMjUsOTA1LjkzNzUgTDkyMS42MTI1LDkwNC4xODc1IEw5MTYuNjc1LDkwNC4xODc1IEw5MTYuNjc1LDkwNS45Mzc1IFogIiBmaWxsPSIjMDAwMDAwIi8+PHRleHQgZmlsbD0iIzAwMDAwMCIgZm9udC1mYW1pbHk9InNhbnMtc2VyaWYiIGZvbnQtc2l6ZT0iMTQiIGxlbmd0aEFkanVzdD0ic3BhY2luZyIgdGV4dExlbmd0aD0iNzgiIHg9IjkzOC45NSIgeT0iOTE1LjI0MjIiPk5ld3NGZXRjaGVyPC90ZXh0PjxsaW5lIHN0eWxlPSJzdHJva2U6IzE4MTgxODtzdHJva2Utd2lkdGg6MC41OyIgeDE9Ijg3OC41IiB4Mj0iMTA0NS41IiB5MT0iOTI1LjUiIHkyPSI5MjUuNSIvPjxsaW5lIHN0eWxlPSJzdHJva2U6IzE4MTgxODtzdHJva2Utd2lkdGg6MC41OyIgeDE9Ijg3OC41IiB4Mj0iMTA0NS41IiB5MT0iOTMzLjUiIHkyPSI5MzMuNSIvPjxlbGxpcHNlIGN4PSI4ODguNSIgY3k9Ijk0Ni40OTIyIiBmaWxsPSIjODRCRTg0IiByeD0iMyIgcnk9IjMiIHN0eWxlPSJzdHJva2U6IzAzODA0ODtzdHJva2Utd2lkdGg6MS4wOyIvPjx0ZXh0IGZpbGw9IiMwMDAwMDAiIGZvbnQtZmFtaWx5PSJzYW5zLXNlcmlmIiBmb250LXNpemU9IjE0IiBsZW5ndGhBZGp1c3Q9InNwYWNpbmciIHRleHRMZW5ndGg9IjE0MyIgeD0iODk3LjUiIHk9Ijk1MC43MzQ0Ij5TdHJpbmdbXSBmZXRjaE5ld3MoKTwvdGV4dD48L2c+PCEtLWNsYXNzIFN1YndheURhdGFMb2FkZXItLT48ZyBpZD0iZWxlbV9TdWJ3YXlEYXRhTG9hZGVyIj48cmVjdCBjb2RlTGluZT0iMTcyIiBmaWxsPSIjRjFGMUYxIiBoZWlnaHQ9IjYyLjk4NDQiIGlkPSJTdWJ3YXlEYXRhTG9hZGVyIiByeD0iMi41IiByeT0iMi41IiBzdHlsZT0ic3Ryb2tlOiMxODE4MTg7c3Ryb2tlLXdpZHRoOjAuNTsiIHdpZHRoPSIyOTQiIHg9IjEzMDYiIHk9IjM3Ii8+PGVsbGlwc2UgY3g9IjEzOTIuMjUiIGN5PSI1MyIgZmlsbD0iI0FERDFCMiIgcng9IjExIiByeT0iMTEiIHN0eWxlPSJzdHJva2U6IzE4MTgxODtzdHJva2Utd2lkdGg6MS4wOyIvPjxwYXRoIGQ9Ik0xMzg5Ljg3NSw1Ny4yNSBMMTM4OS44NzUsNTkgTDEzOTQuODEyNSw1OSBMMTM5NC44MTI1LDU3LjI1IEwxMzg5Ljg3NSw1Ny4yNSBaIE0xMzkwLjU2MjUsNTcuOTM3NSBRMTM5MC41NjI1LDU3LjkzNzUgMTM5MC41NjI1LDQ4Ljc1IEwxMzg4LjgxMjUsNDguNzUgUTEzODguODEyNSw0OC43NSAxMzg4LjgxMjUsNTcuOTM3NSBMMTM5MC41NjI1LDU3LjkzNzUgWiBNMTM5NC4xMjUsNTcuOTM3NSBMMTM5NS44NzUsNTcuOTM3NSBRMTM5NS44NzUsNTcuOTM3NSAxMzk1Ljg3NSw1NS4xMjUgTDEzOTQuMTI1LDU1LjEyNSBRMTM5NC4xMjUsNTUuMTI1IDEzOTQuMTI1LDU3LjkzNzUgWiBNMTM5NC4xMjUsNDguNzUgUTEzOTQuMTI1LDQ4Ljc1IDEzOTQuMTI1LDUxLjU2MjUgTDEzOTUuODc1LDUxLjU2MjUgUTEzOTUuODc1LDUxLjU2MjUgMTM5NS44NzUsNDguNzUgTDEzOTQuMTI1LDQ4Ljc1IFogTTEzODkuODc1LDQ5LjQzNzUgTDEzOTQuODEyNSw0OS40Mzc1IEwxMzk0LjgxMjUsNDcuNjg3NSBMMTM4OS44NzUsNDcuNjg3NSBMMTM4OS44NzUsNDkuNDM3NSBaICIgZmlsbD0iIzAwMDAwMCIvPjx0ZXh0IGZpbGw9IiMwMDAwMDAiIGZvbnQtZmFtaWx5PSJzYW5zLXNlcmlmIiBmb250LXNpemU9IjE0IiBsZW5ndGhBZGp1c3Q9InNwYWNpbmciIHRleHRMZW5ndGg9IjExMyIgeD0iMTQxMi43NSIgeT0iNTguNzQyMiI+U3Vid2F5RGF0YUxvYWRlcjwvdGV4dD48bGluZSBzdHlsZT0ic3Ryb2tlOiMxODE4MTg7c3Ryb2tlLXdpZHRoOjAuNTsiIHgxPSIxMzA3IiB4Mj0iMTU5OSIgeTE9IjY5IiB5Mj0iNjkiLz48bGluZSBzdHlsZT0ic3Ryb2tlOiMxODE4MTg7c3Ryb2tlLXdpZHRoOjAuNTsiIHgxPSIxMzA3IiB4Mj0iMTU5OSIgeTE9Ijc3IiB5Mj0iNzciLz48ZWxsaXBzZSBjeD0iMTMxNyIgY3k9Ijg5Ljk5MjIiIGZpbGw9IiM4NEJFODQiIHJ4PSIzIiByeT0iMyIgc3R5bGU9InN0cm9rZTojMDM4MDQ4O3N0cm9rZS13aWR0aDoxLjA7Ii8+PHRleHQgZmlsbD0iIzAwMDAwMCIgZm9udC1mYW1pbHk9InNhbnMtc2VyaWYiIGZvbnQtc2l6ZT0iMTQiIGxlbmd0aEFkanVzdD0ic3BhY2luZyIgdGV4dExlbmd0aD0iMjY4IiB4PSIxMzI2IiB5PSI5NC4yMzQ0Ij5MaXN0Jmx0O2RvdWJsZVtdJmd0OyBsb2FkQ29vcmRpbmF0ZXMoU3RyaW5nKTwvdGV4dD48L2c+PCEtLWNsYXNzIFN1YndheU1hcC0tPjxnIGlkPSJlbGVtX1N1YndheU1hcCI+PHJlY3QgY29kZUxpbmU9IjE3NiIgZmlsbD0iI0YxRjFGMSIgaGVpZ2h0PSIxNjcuODc1IiBpZD0iU3Vid2F5TWFwIiByeD0iMi41IiByeT0iMi41IiBzdHlsZT0ic3Ryb2tlOiMxODE4MTg7c3Ryb2tlLXdpZHRoOjAuNTsiIHdpZHRoPSIxODAiIHg9IjEzNjMiIHk9IjIxMi41Ii8+PGVsbGlwc2UgY3g9IjE0MTYuNzUiIGN5PSIyMjguNSIgZmlsbD0iI0FERDFCMiIgcng9IjExIiByeT0iMTEiIHN0eWxlPSJzdHJva2U6IzE4MTgxODtzdHJva2Utd2lkdGg6MS4wOyIvPjxwYXRoIGQ9Ik0xNDE0LjM3NSwyMzIuNzUgTDE0MTQuMzc1LDIzNC41IEwxNDE5LjMxMjUsMjM0LjUgTDE0MTkuMzEyNSwyMzIuNzUgTDE0MTQuMzc1LDIzMi43NSBaIE0xNDE1LjA2MjUsMjMzLjQzNzUgUTE0MTUuMDYyNSwyMzMuNDM3NSAxNDE1LjA2MjUsMjI0LjI1IEwxNDEzLjMxMjUsMjI0LjI1IFExNDEzLjMxMjUsMjI0LjI1IDE0MTMuMzEyNSwyMzMuNDM3NSBMMTQxNS4wNjI1LDIzMy40Mzc1IFogTTE0MTguNjI1LDIzMy40Mzc1IEwxNDIwLjM3NSwyMzMuNDM3NSBRMTQyMC4zNzUsMjMzLjQzNzUgMTQyMC4zNzUsMjMwLjYyNSBMMTQxOC42MjUsMjMwLjYyNSBRMTQxOC42MjUsMjMwLjYyNSAxNDE4LjYyNSwyMzMuNDM3NSBaIE0xNDE4LjYyNSwyMjQuMjUgUTE0MTguNjI1LDIyNC4yNSAxNDE4LjYyNSwyMjcuMDYyNSBMMTQyMC4zNzUsMjI3LjA2MjUgUTE0MjAuMzc1LDIyNy4wNjI1IDE0MjAuMzc1LDIyNC4yNSBMMTQxOC42MjUsMjI0LjI1IFogTTE0MTQuMzc1LDIyNC45Mzc1IEwxNDE5LjMxMjUsMjI0LjkzNzUgTDE0MTkuMzEyNSwyMjMuMTg3NSBMMTQxNC4zNzUsMjIzLjE4NzUgTDE0MTQuMzc1LDIyNC45Mzc1IFogIiBmaWxsPSIjMDAwMDAwIi8+PHRleHQgZmlsbD0iIzAwMDAwMCIgZm9udC1mYW1pbHk9InNhbnMtc2VyaWYiIGZvbnQtc2l6ZT0iMTQiIGxlbmd0aEFkanVzdD0ic3BhY2luZyIgdGV4dExlbmd0aD0iNjQiIHg9IjE0MzcuMjUiIHk9IjIzNC4yNDIyIj5TdWJ3YXlNYXA8L3RleHQ+PGxpbmUgc3R5bGU9InN0cm9rZTojMTgxODE4O3N0cm9rZS13aWR0aDowLjU7IiB4MT0iMTM2NCIgeDI9IjE1NDIiIHkxPSIyNDQuNSIgeTI9IjI0NC41Ii8+PHJlY3QgZmlsbD0ibm9uZSIgaGVpZ2h0PSI2IiBzdHlsZT0ic3Ryb2tlOiNDODI5MzA7c3Ryb2tlLXdpZHRoOjEuMDsiIHdpZHRoPSI2IiB4PSIxMzcxIiB5PSIyNTQuNDkyMiIvPjx0ZXh0IGZpbGw9IiMwMDAwMDAiIGZvbnQtZmFtaWx5PSJzYW5zLXNlcmlmIiBmb250LXNpemU9IjE0IiBsZW5ndGhBZGp1c3Q9InNwYWNpbmciIHRleHRMZW5ndGg9IjE0MCIgeD0iMTM4MyIgeT0iMjYxLjczNDQiPkxpc3QmbHQ7UG9pbnQmZ3Q7IGJsdWVMaW5lPC90ZXh0PjxyZWN0IGZpbGw9Im5vbmUiIGhlaWdodD0iNiIgc3R5bGU9InN0cm9rZTojQzgyOTMwO3N0cm9rZS13aWR0aDoxLjA7IiB3aWR0aD0iNiIgeD0iMTM3MSIgeT0iMjY5LjQ3NjYiLz48dGV4dCBmaWxsPSIjMDAwMDAwIiBmb250LWZhbWlseT0ic2Fucy1zZXJpZiIgZm9udC1zaXplPSIxNCIgbGVuZ3RoQWRqdXN0PSJzcGFjaW5nIiB0ZXh0TGVuZ3RoPSIxMzMiIHg9IjEzODMiIHk9IjI3Ni43MTg4Ij5MaXN0Jmx0O1BvaW50Jmd0OyByZWRMaW5lPC90ZXh0PjxyZWN0IGZpbGw9Im5vbmUiIGhlaWdodD0iNiIgc3R5bGU9InN0cm9rZTojQzgyOTMwO3N0cm9rZS13aWR0aDoxLjA7IiB3aWR0aD0iNiIgeD0iMTM3MSIgeT0iMjg0LjQ2MDkiLz48dGV4dCBmaWxsPSIjMDAwMDAwIiBmb250LWZhbWlseT0ic2Fucy1zZXJpZiIgZm9udC1zaXplPSIxNCIgbGVuZ3RoQWRqdXN0PSJzcGFjaW5nIiB0ZXh0TGVuZ3RoPSIxNDciIHg9IjEzODMiIHk9IjI5MS43MDMxIj5MaXN0Jmx0O1BvaW50Jmd0OyBncmVlbkxpbmU8L3RleHQ+PHJlY3QgZmlsbD0ibm9uZSIgaGVpZ2h0PSI2IiBzdHlsZT0ic3Ryb2tlOiNDODI5MzA7c3Ryb2tlLXdpZHRoOjEuMDsiIHdpZHRoPSI2IiB4PSIxMzcxIiB5PSIyOTkuNDQ1MyIvPjx0ZXh0IGZpbGw9IiMwMDAwMDAiIGZvbnQtZmFtaWx5PSJzYW5zLXNlcmlmIiBmb250LXNpemU9IjE0IiBsZW5ndGhBZGp1c3Q9InNwYWNpbmciIHRleHRMZW5ndGg9IjE1NCIgeD0iMTM4MyIgeT0iMzA2LjY4NzUiPkxpc3QmbHQ7U3RhdGlvbiZndDsgc3RhdGlvbnM8L3RleHQ+PHJlY3QgZmlsbD0ibm9uZSIgaGVpZ2h0PSI2IiBzdHlsZT0ic3Ryb2tlOiNDODI5MzA7c3Ryb2tlLXdpZHRoOjEuMDsiIHdpZHRoPSI2IiB4PSIxMzcxIiB5PSIzMTQuNDI5NyIvPjx0ZXh0IGZpbGw9IiMwMDAwMDAiIGZvbnQtZmFtaWx5PSJzYW5zLXNlcmlmIiBmb250LXNpemU9IjE0IiBsZW5ndGhBZGp1c3Q9InNwYWNpbmciIHRleHRMZW5ndGg9IjExMiIgeD0iMTM4MyIgeT0iMzIxLjY3MTkiPmludCBibHVlVHJhaW5Qb3M8L3RleHQ+PHJlY3QgZmlsbD0ibm9uZSIgaGVpZ2h0PSI2IiBzdHlsZT0ic3Ryb2tlOiNDODI5MzA7c3Ryb2tlLXdpZHRoOjEuMDsiIHdpZHRoPSI2IiB4PSIxMzcxIiB5PSIzMjkuNDE0MSIvPjx0ZXh0IGZpbGw9IiMwMDAwMDAiIGZvbnQtZmFtaWx5PSJzYW5zLXNlcmlmIiBmb250LXNpemU9IjE0IiBsZW5ndGhBZGp1c3Q9InNwYWNpbmciIHRleHRMZW5ndGg9IjEwNSIgeD0iMTM4MyIgeT0iMzM2LjY1NjMiPmludCByZWRUcmFpblBvczwvdGV4dD48cmVjdCBmaWxsPSJub25lIiBoZWlnaHQ9IjYiIHN0eWxlPSJzdHJva2U6I0M4MjkzMDtzdHJva2Utd2lkdGg6MS4wOyIgd2lkdGg9IjYiIHg9IjEzNzEiIHk9IjM0NC4zOTg0Ii8+PHRleHQgZmlsbD0iIzAwMDAwMCIgZm9udC1mYW1pbHk9InNhbnMtc2VyaWYiIGZvbnQtc2l6ZT0iMTQiIGxlbmd0aEFkanVzdD0ic3BhY2luZyIgdGV4dExlbmd0aD0iMTE5IiB4PSIxMzgzIiB5PSIzNTEuNjQwNiI+aW50IGdyZWVuVHJhaW5Qb3M8L3RleHQ+PGxpbmUgc3R5bGU9InN0cm9rZTojMTgxODE4O3N0cm9rZS13aWR0aDowLjU7IiB4MT0iMTM2NCIgeDI9IjE1NDIiIHkxPSIzNTcuMzkwNiIgeTI9IjM1Ny4zOTA2Ii8+PGVsbGlwc2UgY3g9IjEzNzQiIGN5PSIzNzAuMzgyOCIgZmlsbD0iIzg0QkU4NCIgcng9IjMiIHJ5PSIzIiBzdHlsZT0ic3Ryb2tlOiMwMzgwNDg7c3Ryb2tlLXdpZHRoOjEuMDsiLz48dGV4dCBmaWxsPSIjMDAwMDAwIiBmb250LWZhbWlseT0ic2Fucy1zZXJpZiIgZm9udC1zaXplPSIxNCIgbGVuZ3RoQWRqdXN0PSJzcGFjaW5nIiB0ZXh0TGVuZ3RoPSI4MCIgeD0iMTM4MyIgeT0iMzc0LjYyNSI+U3Vid2F5TWFwKCk8L3RleHQ+PC9nPjwhLS1yZXZlcnNlIGxpbmsgSkZyYW1lIHRvIE15QXBwMi0tPjxnIGlkPSJsaW5rX0pGcmFtZV9NeUFwcDIiPjxwYXRoIGQ9Ik03OTEuNDIyNCwxMTAuMzU1MSBDNzg0LjQ0MjQsMTQwLjEzNTEgNzc2LjEzLDE3NS41NiA3NjUuNzQsMjE5Ljg3ICIgZmlsbD0ibm9uZSIgaWQ9IkpGcmFtZS1iYWNrdG8tTXlBcHAyIiBzdHlsZT0ic3Ryb2tlOiMxODE4MTg7c3Ryb2tlLXdpZHRoOjEuMDsiLz48cG9seWdvbiBmaWxsPSJub25lIiBwb2ludHM9Ijc5NS41Myw5Mi44Myw3ODUuNTgwNywxMDguOTg1OCw3OTcuMjY0MSwxMTEuNzI0Myw3OTUuNTMsOTIuODMiIHN0eWxlPSJzdHJva2U6IzE4MTgxODtzdHJva2Utd2lkdGg6MS4wOyIvPjwvZz48IS0tcmV2ZXJzZSBsaW5rIEpGcmFtZSB0byBNeUFwcDMtLT48ZyBpZD0ibGlua19KRnJhbWVfTXlBcHAzIj48cGF0aCBkPSJNODQyLjQyOTgsMTA0LjE3NyBDODcwLjE3OTgsMTI3LjQxNyA5MDEuMTcsMTUzLjM1IDk0NC43NSwxODkuODIgIiBmaWxsPSJub25lIiBpZD0iSkZyYW1lLWJhY2t0by1NeUFwcDMiIHN0eWxlPSJzdHJva2U6IzE4MTgxODtzdHJva2Utd2lkdGg6MS4wOyIvPjxwb2x5Z29uIGZpbGw9Im5vbmUiIHBvaW50cz0iODI4LjYzLDkyLjYyLDgzOC41Nzc1LDEwOC43NzcsODQ2LjI4MjIsOTkuNTc3MSw4MjguNjMsOTIuNjIiIHN0eWxlPSJzdHJva2U6IzE4MTgxODtzdHJva2Utd2lkdGg6MS4wOyIvPjwvZz48IS0tbGluayBDb21iaW5lZERpc3BsYXkgdG8gVHJhaW5TdGF0aW9uRGlzcGxheS0tPjxnIGlkPSJsaW5rX0NvbWJpbmVkRGlzcGxheV9UcmFpblN0YXRpb25EaXNwbGF5Ij48cGF0aCBjb2RlTGluZT0iMTg3IiBkPSJNNjE0Ljc2LDcwMS44MyBDNTA4LjU4LDc1Mi43IDM2Ny4wNTExLDgyMC40OTc3IDI2Ny4yMzExLDg2OC4zMTc3ICIgZmlsbD0ibm9uZSIgaWQ9IkNvbWJpbmVkRGlzcGxheS10by1UcmFpblN0YXRpb25EaXNwbGF5IiBzdHlsZT0ic3Ryb2tlOiMxODE4MTg7c3Ryb2tlLXdpZHRoOjEuMDsiLz48cG9seWdvbiBmaWxsPSIjMTgxODE4IiBwb2ludHM9IjI2MS44Miw4NzAuOTEsMjcxLjY2NDgsODcwLjYyOSwyNjYuMzI5Myw4NjguNzQ5OCwyNjguMjA4NSw4NjMuNDE0MiwyNjEuODIsODcwLjkxIiBzdHlsZT0ic3Ryb2tlOiMxODE4MTg7c3Ryb2tlLXdpZHRoOjEuMDsiLz48L2c+PCEtLWxpbmsgQ29tYmluZWREaXNwbGF5IHRvIE1hcFBhbmVsLS0+PGcgaWQ9ImxpbmtfQ29tYmluZWREaXNwbGF5X01hcFBhbmVsIj48cGF0aCBjb2RlTGluZT0iMTg4IiBkPSJNODgxLjMyLDcxMS40NyBDOTcxLjcyLDc2MS4yOCAxMDgzLjg3NTMsODIzLjA4MzggMTE2NS4yODUzLDg2Ny45NTM4ICIgZmlsbD0ibm9uZSIgaWQ9IkNvbWJpbmVkRGlzcGxheS10by1NYXBQYW5lbCIgc3R5bGU9InN0cm9rZTojMTgxODE4O3N0cm9rZS13aWR0aDoxLjA7Ii8+PHBvbHlnb24gZmlsbD0iIzE4MTgxOCIgcG9pbnRzPSIxMTcwLjU0LDg3MC44NSwxMTY0LjU4ODcsODYzLjAwMjYsMTE2Ni4xNjExLDg2OC40MzY1LDExNjAuNzI3MSw4NzAuMDA4OSwxMTcwLjU0LDg3MC44NSIgc3R5bGU9InN0cm9rZTojMTgxODE4O3N0cm9rZS13aWR0aDoxLjA7Ii8+PC9nPjwhLS1saW5rIENvbWJpbmVkRGlzcGxheSB0byBBZHZlcnRpc2VtZW50RGlzcGxheS0tPjxnIGlkPSJsaW5rX0NvbWJpbmVkRGlzcGxheV9BZHZlcnRpc2VtZW50RGlzcGxheSI+PHBhdGggY29kZUxpbmU9IjE4OSIgZD0iTTYxNC44OCw3MDEuNiBDNTQwLjE4LDc0Mi4yMSA0NDkuMTgsODAwLjQ2IDM4NCw4NzEgQzM1OC40NCw4OTguNjYgMzE2LjY2Myw5ODIuNTI1IDI4OS4wNjMsMTA0MC45NDUgIiBmaWxsPSJub25lIiBpZD0iQ29tYmluZWREaXNwbGF5LXRvLUFkdmVydGlzZW1lbnREaXNwbGF5IiBzdHlsZT0ic3Ryb2tlOiMxODE4MTg7c3Ryb2tlLXdpZHRoOjEuMDsiLz48cG9seWdvbiBmaWxsPSIjMTgxODE4IiBwb2ludHM9IjI4Ni41LDEwNDYuMzcsMjkzLjk2MTIsMTAzOS45NDExLDI4OC42MzU4LDEwNDEuODQ5MSwyODYuNzI3OCwxMDM2LjUyMzgsMjg2LjUsMTA0Ni4zNyIgc3R5bGU9InN0cm9rZTojMTgxODE4O3N0cm9rZS13aWR0aDoxLjA7Ii8+PC9nPjwhLS1saW5rIENvbWJpbmVkRGlzcGxheSB0byBEYXRhYmFzZUNvbm5lY3Rpb24tLT48ZyBpZD0ibGlua19Db21iaW5lZERpc3BsYXlfRGF0YWJhc2VDb25uZWN0aW9uIj48cGF0aCBjb2RlTGluZT0iMTkwIiBkPSJNNjE0Ljc0LDc5OC4xNCBDNTkwLjMxLDgyNy41IDU3MC41MjgxLDg1MS4yNjgxIDU1MS45MjgxLDg3My42MTgxICIgZmlsbD0ibm9uZSIgaWQ9IkNvbWJpbmVkRGlzcGxheS10by1EYXRhYmFzZUNvbm5lY3Rpb24iIHN0eWxlPSJzdHJva2U6IzE4MTgxODtzdHJva2Utd2lkdGg6MS4wOyIvPjxwb2x5Z29uIGZpbGw9IiMxODE4MTgiIHBvaW50cz0iNTQ4LjA5LDg3OC4yMyw1NTYuOTIxNyw4NzMuODcwOSw1NTEuMjg4NCw4NzQuMzg2OCw1NTAuNzcyNSw4NjguNzUzNSw1NDguMDksODc4LjIzIiBzdHlsZT0ic3Ryb2tlOiMxODE4MTg7c3Ryb2tlLXdpZHRoOjEuMDsiLz48L2c+PCEtLWxpbmsgQ29tYmluZWREaXNwbGF5IHRvIFdlYXRoZXJGZXRjaGVyLS0+PGcgaWQ9ImxpbmtfQ29tYmluZWREaXNwbGF5X1dlYXRoZXJGZXRjaGVyIj48cGF0aCBjb2RlTGluZT0iMTkxIiBkPSJNNzM1LjUxLDgxMS4zOCBDNzM2LjA1LDg0Mi44MSA3MzYuODAzNyw4NjYuMjM0OSA3MzkuMDYzNyw4ODcuMDk0OSAiIGZpbGw9Im5vbmUiIGlkPSJDb21iaW5lZERpc3BsYXktdG8tV2VhdGhlckZldGNoZXIiIHN0eWxlPSJzdHJva2U6IzE4MTgxODtzdHJva2Utd2lkdGg6MS4wOyIvPjxwb2x5Z29uIGZpbGw9IiMxODE4MTgiIHBvaW50cz0iNzM5LjcxLDg5My4wNiw3NDIuNzE3Myw4ODMuNjgxNSw3MzkuMTcxNCw4ODguMDg5MSw3MzQuNzYzOSw4ODQuNTQzMiw3MzkuNzEsODkzLjA2IiBzdHlsZT0ic3Ryb2tlOiMxODE4MTg7c3Ryb2tlLXdpZHRoOjEuMDsiLz48L2c+PCEtLWxpbmsgV2VhdGhlckZldGNoZXIgdG8gQ29tYmluZWREaXNwbGF5LS0+PGcgaWQ9ImxpbmtfV2VhdGhlckZldGNoZXJfQ29tYmluZWREaXNwbGF5Ij48cGF0aCBjb2RlTGluZT0iMjA4IiBkPSJNNzU2Ljc4LDg5My4wNiBDNzU5LjE3LDg3Mi4yIDc2MC41MzkzLDg0OC44MDkgNzYxLjExOTMsODE3LjM3OSAiIGZpbGw9Im5vbmUiIGlkPSJXZWF0aGVyRmV0Y2hlci10by1Db21iaW5lZERpc3BsYXkiIHN0eWxlPSJzdHJva2U6IzE4MTgxODtzdHJva2Utd2lkdGg6MS4wOyIvPjxwb2x5Z29uIGZpbGw9IiMxODE4MTgiIHBvaW50cz0iNzYxLjIzLDgxMS4zOCw3NTcuMDY0Niw4MjAuMzA0Nyw3NjEuMTM3Nyw4MTYuMzc5MSw3NjUuMDYzMyw4MjAuNDUyMyw3NjEuMjMsODExLjM4IiBzdHlsZT0ic3Ryb2tlOiMxODE4MTg7c3Ryb2tlLXdpZHRoOjEuMDsiLz48L2c+PCEtLWxpbmsgQ29tYmluZWREaXNwbGF5IHRvIE5ld3NGZXRjaGVyLS0+PGcgaWQ9ImxpbmtfQ29tYmluZWREaXNwbGF5X05ld3NGZXRjaGVyIj48cGF0aCBjb2RlTGluZT0iMTkyIiBkPSJNODY1LjI0LDgxMS4zOCBDODg5LjMsODQyLjgxIDkwOC43ODY1LDg2Ny42NDM0IDkyNi42NTY1LDg4OC41MDM0ICIgZmlsbD0ibm9uZSIgaWQ9IkNvbWJpbmVkRGlzcGxheS10by1OZXdzRmV0Y2hlciIgc3R5bGU9InN0cm9rZTojMTgxODE4O3N0cm9rZS13aWR0aDoxLjA7Ii8+PHBvbHlnb24gZmlsbD0iIzE4MTgxOCIgcG9pbnRzPSI5MzAuNTYsODkzLjA2LDkyNy43NDI1LDg4My42MjI3LDkyNy4zMDcxLDg4OS4yNjI4LDkyMS42NjcsODg4LjgyNzQsOTMwLjU2LDg5My4wNiIgc3R5bGU9InN0cm9rZTojMTgxODE4O3N0cm9rZS13aWR0aDoxLjA7Ii8+PC9nPjwhLS1saW5rIE5ld3NGZXRjaGVyIHRvIENvbWJpbmVkRGlzcGxheS0tPjxnIGlkPSJsaW5rX05ld3NGZXRjaGVyX0NvbWJpbmVkRGlzcGxheSI+PHBhdGggY29kZUxpbmU9IjIwOSIgZD0iTTk0Ny44Niw4OTMuNDIgQzkzMi44MSw4NjkuNjQgOTExLjc0MjQsODM5LjQ3NzkgODg0LjgwMjQsODAyLjk2NzkgIiBmaWxsPSJub25lIiBpZD0iTmV3c0ZldGNoZXItdG8tQ29tYmluZWREaXNwbGF5IiBzdHlsZT0ic3Ryb2tlOiMxODE4MTg7c3Ryb2tlLXdpZHRoOjEuMDsiLz48cG9seWdvbiBmaWxsPSIjMTgxODE4IiBwb2ludHM9Ijg4MS4yNCw3OTguMTQsODgzLjM2NSw4MDcuNzU2OSw4ODQuMjA4Nyw4MDIuMTYzMyw4ODkuODAyMyw4MDMuMDA3LDg4MS4yNCw3OTguMTQiIHN0eWxlPSJzdHJva2U6IzE4MTgxODtzdHJva2Utd2lkdGg6MS4wOyIvPjwvZz48IS0tbGluayBNYXBQYW5lbCB0byBTdGF0aW9uLS0+PGcgaWQ9ImxpbmtfTWFwUGFuZWxfU3RhdGlvbiI+PHBhdGggY29kZUxpbmU9IjE5MyIgZD0iTTEyNzQuOTIsOTc5LjQ5IEMxMjg1LjU5LDEwMzIuOTIgMTMwOS42NywxMTEzLjg1IDEzNjIsMTE2MiBDMTQyNy4zMSwxMjIyLjEgMTUxMS41OTg3LDEyNTUuNTM3MyAxNTk0Ljk3ODcsMTI3NS43MzczICIgZmlsbD0ibm9uZSIgaWQ9Ik1hcFBhbmVsLXRvLVN0YXRpb24iIHN0eWxlPSJzdHJva2U6IzE4MTgxODtzdHJva2Utd2lkdGg6MS4wOyIvPjxwb2x5Z29uIGZpbGw9IiMxODE4MTgiIHBvaW50cz0iMTYwMC44MSwxMjc3LjE1LDE1OTMuMDA0OCwxMjcxLjE0MzQsMTU5NS45NTA2LDEyNzUuOTcyNywxNTkxLjEyMTIsMTI3OC45MTg1LDE2MDAuODEsMTI3Ny4xNSIgc3R5bGU9InN0cm9rZTojMTgxODE4O3N0cm9rZS13aWR0aDoxLjA7Ii8+PC9nPjwhLS1saW5rIE1hcFBhbmVsIHRvIFRyYWluLS0+PGcgaWQ9ImxpbmtfTWFwUGFuZWxfVHJhaW4iPjxwYXRoIGNvZGVMaW5lPSIxOTQiIGQ9Ik0xMzQwLjMzLDk3OS4yMyBDMTM2Ni4yNyw5OTguMDYgMTM5MC43NzQ4LDEwMTUuODU0OSAxNDE3LjQ5NDgsMTAzNS4yNTQ5ICIgZmlsbD0ibm9uZSIgaWQ9Ik1hcFBhbmVsLXRvLVRyYWluIiBzdHlsZT0ic3Ryb2tlOiMxODE4MTg7c3Ryb2tlLXdpZHRoOjEuMDsiLz48cG9seWdvbiBmaWxsPSIjMTgxODE4IiBwb2ludHM9IjE0MjIuMzUsMTAzOC43OCwxNDE3LjQxNzIsMTAzMC4yNTU1LDE0MTguMzA0LDEwMzUuODQyNCwxNDEyLjcxNywxMDM2LjcyOTEsMTQyMi4zNSwxMDM4Ljc4IiBzdHlsZT0ic3Ryb2tlOiMxODE4MTg7c3Ryb2tlLXdpZHRoOjEuMDsiLz48L2c+PCEtLWxpbmsgU3RhdGlvblBhcnNlciB0byBTdGF0aW9uLS0+PGcgaWQ9ImxpbmtfU3RhdGlvblBhcnNlcl9TdGF0aW9uIj48cGF0aCBjb2RlTGluZT0iMTk1IiBkPSJNMTgyNSwxMTMyLjQxIEMxODI1LDExNTYuMiAxODI1LDExODQuMjYgMTgyNSwxMjE1Ljg0ICIgZmlsbD0ibm9uZSIgaWQ9IlN0YXRpb25QYXJzZXItdG8tU3RhdGlvbiIgc3R5bGU9InN0cm9rZTojMTgxODE4O3N0cm9rZS13aWR0aDoxLjA7Ii8+PHBvbHlnb24gZmlsbD0iIzE4MTgxOCIgcG9pbnRzPSIxODI1LDEyMjEuODQsMTgyOSwxMjEyLjg0LDE4MjUsMTIxNi44NCwxODIxLDEyMTIuODQsMTgyNSwxMjIxLjg0IiBzdHlsZT0ic3Ryb2tlOiMxODE4MTg7c3Ryb2tlLXdpZHRoOjEuMDsiLz48L2c+PCEtLWxpbmsgU3Vid2F5UGFyc2VyIHRvIFN0YXRpb24tLT48ZyBpZD0ibGlua19TdWJ3YXlQYXJzZXJfU3RhdGlvbiI+PHBhdGggY29kZUxpbmU9IjE5NiIgZD0iTTIxMzcuNTEsMTEzMi4xOSBDMjA5NC40NCwxMTU2IDIwMzcuODYwOSwxMTg3LjI5NyAxOTgwLjU0MDksMTIxOC45ODcgIiBmaWxsPSJub25lIiBpZD0iU3Vid2F5UGFyc2VyLXRvLVN0YXRpb24iIHN0eWxlPSJzdHJva2U6IzE4MTgxODtzdHJva2Utd2lkdGg6MS4wOyIvPjxwb2x5Z29uIGZpbGw9IiMxODE4MTgiIHBvaW50cz0iMTk3NS4yOSwxMjIxLjg5LDE5ODUuMTAxOCwxMjIxLjAzNjEsMTk3OS42NjU4LDEyMTkuNDcwOCwxOTgxLjIzMSwxMjE0LjAzNDgsMTk3NS4yOSwxMjIxLjg5IiBzdHlsZT0ic3Ryb2tlOiMxODE4MTg7c3Ryb2tlLXdpZHRoOjEuMDsiLz48L2c+PCEtLWxpbmsgU3Vid2F5U2ltdWxhdG9yIHRvIE1hcFBhbmVsLS0+PGcgaWQ9ImxpbmtfU3Vid2F5U2ltdWxhdG9yX01hcFBhbmVsIj48cGF0aCBjb2RlTGluZT0iMTk3IiBkPSJNMTMxMS4xOCw3MDYuMTQgQzEzMDAuOTYsNzU2LjUzIDEyODguNDMzMiw4MTguMzE5OCAxMjc5LjAwMzIsODY0Ljc4OTggIiBmaWxsPSJub25lIiBpZD0iU3Vid2F5U2ltdWxhdG9yLXRvLU1hcFBhbmVsIiBzdHlsZT0ic3Ryb2tlOiMxODE4MTg7c3Ryb2tlLXdpZHRoOjEuMDsiLz48cG9seWdvbiBmaWxsPSIjMTgxODE4IiBwb2ludHM9IjEyNzcuODEsODcwLjY3LDEyODMuNTIsODYyLjY0NTMsMTI3OC44MDQ0LDg2NS43Njk5LDEyNzUuNjc5OCw4NjEuMDU0MywxMjc3LjgxLDg3MC42NyIgc3R5bGU9InN0cm9rZTojMTgxODE4O3N0cm9rZS13aWR0aDoxLjA7Ii8+PC9nPjwhLS1saW5rIFN1YndheVNpbXVsYXRvciB0byBUcmFpbi0tPjxnIGlkPSJsaW5rX1N1YndheVNpbXVsYXRvcl9UcmFpbiI+PHBhdGggY29kZUxpbmU9IjE5OCIgZD0iTTEzNzcuNTgsNzA2LjA1IEMxNDA5LjMzLDc1MC41OSAxNDQ3LjgsODExLjM5IDE0NzAsODcxIEMxNDkwLjMyLDkyNS41NyAxNDk4LjY3OTIsOTg1LjY1MDEgMTUwMi41MzkyLDEwMzIuNjgwMSAiIGZpbGw9Im5vbmUiIGlkPSJTdWJ3YXlTaW11bGF0b3ItdG8tVHJhaW4iIHN0eWxlPSJzdHJva2U6IzE4MTgxODtzdHJva2Utd2lkdGg6MS4wOyIvPjxwb2x5Z29uIGZpbGw9IiMxODE4MTgiIHBvaW50cz0iMTUwMy4wMywxMDM4LjY2LDE1MDYuMjgwNCwxMDI5LjM2MywxNTAyLjYyMSwxMDMzLjY3NjgsMTQ5OC4zMDcyLDEwMzAuMDE3NCwxNTAzLjAzLDEwMzguNjYiIHN0eWxlPSJzdHJva2U6IzE4MTgxODtzdHJva2Utd2lkdGg6MS4wOyIvPjwvZz48IS0tbGluayBUcmFpbkluaXRpYWxpemVyIHRvIFRyYWluLS0+PGcgaWQ9ImxpbmtfVHJhaW5Jbml0aWFsaXplcl9UcmFpbiI+PHBhdGggY29kZUxpbmU9IjE5OSIgZD0iTTE3MjIuNTksOTU2LjYyIEMxNjg4LjE1LDk3OS4zMyAxNjQ1LjA4ODMsMTAwNy43NDYgMTYwMi45NzgzLDEwMzUuNTI2ICIgZmlsbD0ibm9uZSIgaWQ9IlRyYWluSW5pdGlhbGl6ZXItdG8tVHJhaW4iIHN0eWxlPSJzdHJva2U6IzE4MTgxODtzdHJva2Utd2lkdGg6MS4wOyIvPjxwb2x5Z29uIGZpbGw9IiMxODE4MTgiIHBvaW50cz0iMTU5Ny45NywxMDM4LjgzLDE2MDcuNjg1MiwxMDM3LjIxMjksMTYwMi4xNDM2LDEwMzYuMDc2NywxNjAzLjI3OTgsMTAzMC41MzUxLDE1OTcuOTcsMTAzOC44MyIgc3R5bGU9InN0cm9rZTojMTgxODE4O3N0cm9rZS13aWR0aDoxLjA7Ii8+PC9nPjwhLS1saW5rIFRyYWluIHRvIFN0YXRpb24tLT48ZyBpZD0ibGlua19UcmFpbl9TdGF0aW9uIj48cGF0aCBjb2RlTGluZT0iMjAwIiBkPSJNMTYwMC44NSwxMTYyLjAxIEMxNjMwLjMyLDExODAuODEgMTY1OC4yOTE0LDExOTguNjUzNCAxNjg5Ljc0MTQsMTIxOC43MTM0ICIgZmlsbD0ibm9uZSIgaWQ9IlRyYWluLXRvLVN0YXRpb24iIHN0eWxlPSJzdHJva2U6IzE4MTgxODtzdHJva2Utd2lkdGg6MS4wOyIvPjxwb2x5Z29uIGZpbGw9IiMxODE4MTgiIHBvaW50cz0iMTY5NC44LDEyMjEuOTQsMTY4OS4zNjMyLDEyMTMuNzI3OCwxNjkwLjU4NDUsMTIxOS4yNTEyLDE2ODUuMDYxMSwxMjIwLjQ3MjYsMTY5NC44LDEyMjEuOTQiIHN0eWxlPSJzdHJva2U6IzE4MTgxODtzdHJva2Utd2lkdGg6MS4wOyIvPjwvZz48IS0tbGluayBBZHZlcnRpc2VtZW50RGlzcGxheSB0byBBZHZlcnRpc2VtZW50LS0+PGcgaWQ9ImxpbmtfQWR2ZXJ0aXNlbWVudERpc3BsYXlfQWR2ZXJ0aXNlbWVudCI+PHBhdGggY29kZUxpbmU9IjIwMSIgZD0iTTMwNS45MiwxMTU0LjcgQzMyNC42OCwxMTc3LjQzIDM0My4xMTAzLDExOTkuNzUzIDM2My41NTAzLDEyMjQuNTEzICIgZmlsbD0ibm9uZSIgaWQ9IkFkdmVydGlzZW1lbnREaXNwbGF5LXRvLUFkdmVydGlzZW1lbnQiIHN0eWxlPSJzdHJva2U6IzE4MTgxODtzdHJva2Utd2lkdGg6MS4wOyIvPjxwb2x5Z29uIGZpbGw9IiMxODE4MTgiIHBvaW50cz0iMzY3LjM3LDEyMjkuMTQsMzY0LjcyNTEsMTIxOS42NTI5LDM2NC4xODY5LDEyMjUuMjg0MSwzNTguNTU1NywxMjI0Ljc0NTksMzY3LjM3LDEyMjkuMTQiIHN0eWxlPSJzdHJva2U6IzE4MTgxODtzdHJva2Utd2lkdGg6MS4wOyIvPjwvZz48IS0tbGluayBEYXRhYmFzZUNvbm5lY3Rpb24gdG8gQWR2ZXJ0aXNlbWVudERBTy0tPjxnIGlkPSJsaW5rX0RhdGFiYXNlQ29ubmVjdGlvbl9BZHZlcnRpc2VtZW50REFPIj48cGF0aCBjb2RlTGluZT0iMjAyIiBkPSJNNTMyLjg2LDk3MS41OSBDNTQ4LjI2LDEwMDIuMzEgNTY1LjQ4MDQsMTAzNi42MzY2IDU3OS4wMDA0LDEwNjMuNTk2NiAiIGZpbGw9Im5vbmUiIGlkPSJEYXRhYmFzZUNvbm5lY3Rpb24tdG8tQWR2ZXJ0aXNlbWVudERBTyIgc3R5bGU9InN0cm9rZTojMTgxODE4O3N0cm9rZS13aWR0aDoxLjA7Ii8+PHBvbHlnb24gZmlsbD0iIzE4MTgxOCIgcG9pbnRzPSI1ODEuNjksMTA2OC45Niw1ODEuMjMxMSwxMDU5LjEyMTgsNTc5LjQ0ODYsMTA2NC40OTA1LDU3NC4wNzk5LDEwNjIuNzA4LDU4MS42OSwxMDY4Ljk2IiBzdHlsZT0ic3Ryb2tlOiMxODE4MTg7c3Ryb2tlLXdpZHRoOjEuMDsiLz48L2c+PCEtLWxpbmsgQWR2ZXJ0aXNlbWVudERBTyB0byBBZHZlcnRpc2VtZW50LS0+PGcgaWQ9ImxpbmtfQWR2ZXJ0aXNlbWVudERBT19BZHZlcnRpc2VtZW50Ij48cGF0aCBjb2RlTGluZT0iMjAzIiBkPSJNNTcxLjY0LDExMzIuNDEgQzU1MC41NiwxMTU4LjA5IDUyMy40NzY1LDExOTEuMDkyIDQ5NS45MTY1LDEyMjQuNjcyICIgZmlsbD0ibm9uZSIgaWQ9IkFkdmVydGlzZW1lbnREQU8tdG8tQWR2ZXJ0aXNlbWVudCIgc3R5bGU9InN0cm9rZTojMTgxODE4O3N0cm9rZS13aWR0aDoxLjA7Ii8+PHBvbHlnb24gZmlsbD0iIzE4MTgxOCIgcG9pbnRzPSI0OTIuMTEsMTIyOS4zMSw1MDAuOTExNywxMjI0Ljg5MDcsNDk1LjI4MjEsMTIyNS40NDUsNDk0LjcyNzgsMTIxOS44MTU0LDQ5Mi4xMSwxMjI5LjMxIiBzdHlsZT0ic3Ryb2tlOiMxODE4MTg7c3Ryb2tlLXdpZHRoOjEuMDsiLz48L2c+PCEtLWxpbmsgU3Vid2F5TWFwUGFuZWwgdG8gU3RhdGlvbi0tPjxnIGlkPSJsaW5rX1N1YndheU1hcFBhbmVsX1N0YXRpb24iPjxwYXRoIGNvZGVMaW5lPSIyMDQiIGQ9Ik0yMzgzLjQ4LDk3OS4xNiBDMjQwNS4yLDEwMzEuMTkgMjQyNi40LDExMTAuMDEgMjM4NiwxMTYyIEMyMzQzLjgzLDEyMTYuMjcgMjE5Mi41NDksMTI1Mi4zNzc1IDIwNTUuMjQ5LDEyNzUuMTY3NSAiIGZpbGw9Im5vbmUiIGlkPSJTdWJ3YXlNYXBQYW5lbC10by1TdGF0aW9uIiBzdHlsZT0ic3Ryb2tlOiMxODE4MTg7c3Ryb2tlLXdpZHRoOjEuMDsiLz48cG9seWdvbiBmaWxsPSIjMTgxODE4IiBwb2ludHM9IjIwNDkuMzMsMTI3Ni4xNSwyMDU4Ljg2MzUsMTI3OC42MjIzLDIwNTQuMjYyNSwxMjc1LjMzMTMsMjA1Ny41NTM1LDEyNzAuNzMwMywyMDQ5LjMzLDEyNzYuMTUiIHN0eWxlPSJzdHJva2U6IzE4MTgxODtzdHJva2Utd2lkdGg6MS4wOyIvPjwvZz48IS0tbGluayBTdWJ3YXlNYXBQYW5lbCB0byBUcmFpbi0tPjxnIGlkPSJsaW5rX1N1YndheU1hcFBhbmVsX1RyYWluIj48cGF0aCBjb2RlTGluZT0iMjA1IiBkPSJNMjE0OS42NCw5NjMuNTcgQzIxMTguOTQsOTY4LjkgMjA4Ny42Niw5NzQuMTkgMjA1OCw5NzkgQzE4NzcuMDgsMTAwOC4zMyAxODI2LjU1LDk4OS43OCAxNjUwLDEwMzkgQzE2NDQuMjUsMTA0MC42IDE2NDQuMTM1NiwxMDQwLjUyMzcgMTYzOC4yOTU2LDEwNDIuNDIzNyAiIGZpbGw9Im5vbmUiIGlkPSJTdWJ3YXlNYXBQYW5lbC10by1UcmFpbiIgc3R5bGU9InN0cm9rZTojMTgxODE4O3N0cm9rZS13aWR0aDoxLjA7Ii8+PHBvbHlnb24gZmlsbD0iIzE4MTgxOCIgcG9pbnRzPSIxNjMyLjU5LDEwNDQuMjgsMTY0Mi4zODYsMTA0NS4yOTkzLDE2MzcuMzQ0NywxMDQyLjczMzEsMTYzOS45MTA5LDEwMzcuNjkxOCwxNjMyLjU5LDEwNDQuMjgiIHN0eWxlPSJzdHJva2U6IzE4MTgxODtzdHJva2Utd2lkdGg6MS4wOyIvPjwvZz48IS0tbGluayBTdWJ3YXlTaW11bGF0aW9uIHRvIE1hcFBhbmVsLS0+PGcgaWQ9ImxpbmtfU3Vid2F5U2ltdWxhdGlvbl9NYXBQYW5lbCI+PHBhdGggY29kZUxpbmU9IjIwNiIgZD0iTTE4MjkuNzUsNzA2LjA2IEMxNzU4LjA4LDczOS4yMSAxNjY5LjYyLDc3OC43NiAxNTg5LDgxMSBDMTUzNi43NCw4MzEuOSAxNDg0LjU4NzgsODUwLjg4MTIgMTQzMi41Mzc4LDg2OC45NjEyICIgZmlsbD0ibm9uZSIgaWQ9IlN1YndheVNpbXVsYXRpb24tdG8tTWFwUGFuZWwiIHN0eWxlPSJzdHJva2U6IzE4MTgxODtzdHJva2Utd2lkdGg6MS4wOyIvPjxwb2x5Z29uIGZpbGw9IiMxODE4MTgiIHBvaW50cz0iMTQyNi44Nyw4NzAuOTMsMTQzNi42ODQyLDg3MS43NTU0LDE0MzEuNTkzMiw4NjkuMjg5NCwxNDM0LjA1OTIsODY0LjE5ODMsMTQyNi44Nyw4NzAuOTMiIHN0eWxlPSJzdHJva2U6IzE4MTgxODtzdHJva2Utd2lkdGg6MS4wOyIvPjwvZz48IS0tbGluayBTdWJ3YXlTaW11bGF0aW9uIHRvIFRyYWluLS0+PGcgaWQ9ImxpbmtfU3Vid2F5U2ltdWxhdGlvbl9UcmFpbiI+PHBhdGggY29kZUxpbmU9IjIwNyIgZD0iTTIwMDMuMDksNzA2LjE4IEMyMDMxLjM1LDc4MS45IDIwNjAuNjQsOTAzLjQxIDE5OTcsOTc5IEMxOTQ2LjYsMTAzOC44NiAxNzI1LjExLDEwMTcuMDQgMTY1MCwxMDM5IEMxNjQ0LjI3LDEwNDAuNjcgMTY0NC4xNjAxLDEwNDAuNjA2OCAxNjM4LjMzMDEsMTA0Mi41NTY4ICIgZmlsbD0ibm9uZSIgaWQ9IlN1YndheVNpbXVsYXRpb24tdG8tVHJhaW4iIHN0eWxlPSJzdHJva2U6IzE4MTgxODtzdHJva2Utd2lkdGg6MS4wOyIvPjxwb2x5Z29uIGZpbGw9IiMxODE4MTgiIHBvaW50cz0iMTYzMi42NCwxMDQ0LjQ2LDE2NDIuNDQ0LDEwNDUuMzk4NiwxNjM3LjM4MTgsMTA0Mi44NzQsMTYzOS45MDY0LDEwMzcuODExNywxNjMyLjY0LDEwNDQuNDYiIHN0eWxlPSJzdHJva2U6IzE4MTgxODtzdHJva2Utd2lkdGg6MS4wOyIvPjwvZz48IS0tbGluayBTdWJ3YXlEYXRhTG9hZGVyIHRvIFN1YndheU1hcC0tPjxnIGlkPSJsaW5rX1N1YndheURhdGFMb2FkZXJfU3Vid2F5TWFwIj48cGF0aCBjb2RlTGluZT0iMjEwIiBkPSJNMTQ1MywxMDAuNDUgQzE0NTMsMTI5LjIyIDE0NTMsMTY3LjM5IDE0NTMsMjA2LjQzICIgZmlsbD0ibm9uZSIgaWQ9IlN1YndheURhdGFMb2FkZXItdG8tU3Vid2F5TWFwIiBzdHlsZT0ic3Ryb2tlOiMxODE4MTg7c3Ryb2tlLXdpZHRoOjEuMDsiLz48cG9seWdvbiBmaWxsPSIjMTgxODE4IiBwb2ludHM9IjE0NTMsMjEyLjQzLDE0NTcsMjAzLjQzLDE0NTMsMjA3LjQzLDE0NDksMjAzLjQzLDE0NTMsMjEyLjQzIiBzdHlsZT0ic3Ryb2tlOiMxODE4MTg7c3Ryb2tlLXdpZHRoOjEuMDsiLz48L2c+PCEtLWxpbmsgTXlBcHAxIHRvIENvbWJpbmVkRGlzcGxheS0tPjxnIGlkPSJsaW5rX015QXBwMV9Db21iaW5lZERpc3BsYXkiPjxwYXRoIGNvZGVMaW5lPSIyMTEiIGQ9Ik01MjAuMjYsMzgwLjc0IEM1NDguODIsNDEyLjc1IDU3OC4zNjU2LDQ0NS44NjI4IDYxMC43OTU2LDQ4Mi4yMTI4ICIgZmlsbD0ibm9uZSIgaWQ9Ik15QXBwMS10by1Db21iaW5lZERpc3BsYXkiIHN0eWxlPSJzdHJva2U6IzE4MTgxODtzdHJva2Utd2lkdGg6MS4wOyIvPjxwb2x5Z29uIGZpbGw9IiMxODE4MTgiIHBvaW50cz0iNjE0Ljc5LDQ4Ni42OSw2MTEuNzgzMyw0NzcuMzExMyw2MTEuNDYxNCw0ODIuOTU5LDYwNS44MTM3LDQ4Mi42MzcxLDYxNC43OSw0ODYuNjkiIHN0eWxlPSJzdHJva2U6IzE4MTgxODtzdHJva2Utd2lkdGg6MS4wOyIvPjwvZz48IS0tbGluayBNeUFwcDIgdG8gQ29tYmluZWREaXNwbGF5LS0+PGcgaWQ9ImxpbmtfTXlBcHAyX0NvbWJpbmVkRGlzcGxheSI+PHBhdGggY29kZUxpbmU9IjIxMiIgZD0iTTc0OCwzNzMuMDQgQzc0OCwzOTkuODQgNzQ4LDQyNS4yIDc0OCw0NTYuNzUgIiBmaWxsPSJub25lIiBpZD0iTXlBcHAyLXRvLUNvbWJpbmVkRGlzcGxheSIgc3R5bGU9InN0cm9rZTojMTgxODE4O3N0cm9rZS13aWR0aDoxLjA7Ii8+PHBvbHlnb24gZmlsbD0iIzE4MTgxOCIgcG9pbnRzPSI3NDgsNDYyLjc1LDc1Miw0NTMuNzUsNzQ4LDQ1Ny43NSw3NDQsNDUzLjc1LDc0OCw0NjIuNzUiIHN0eWxlPSJzdHJva2U6IzE4MTgxODtzdHJva2Utd2lkdGg6MS4wOyIvPjwvZz48IS0tbGluayBNeUFwcDMgdG8gQ29tYmluZWREaXNwbGF5LS0+PGcgaWQ9ImxpbmtfTXlBcHAzX0NvbWJpbmVkRGlzcGxheSI+PHBhdGggY29kZUxpbmU9IjIxMyIgZD0iTTk3MC4xMyw0MDMuMjEgQzk0MS45OSw0MzIuNyA5MTUuMTMyNSw0NjAuODQ5NSA4ODUuNDMyNSw0OTEuOTY5NSAiIGZpbGw9Im5vbmUiIGlkPSJNeUFwcDMtdG8tQ29tYmluZWREaXNwbGF5IiBzdHlsZT0ic3Ryb2tlOiMxODE4MTg7c3Ryb2tlLXdpZHRoOjEuMDsiLz48cG9seWdvbiBmaWxsPSIjMTgxODE4IiBwb2ludHM9Ijg4MS4yOSw0OTYuMzEsODkwLjM5NzQsNDkyLjU2MDksODg0Ljc0Miw0OTIuNjkyOSw4ODQuNjEsNDg3LjAzNzYsODgxLjI5LDQ5Ni4zMSIgc3R5bGU9InN0cm9rZTojMTgxODE4O3N0cm9rZS13aWR0aDoxLjA7Ii8+PC9nPjwhLS1TUkM9W25MWEJSbml0NEJ4aExfMnVYa24zdXJpRzI1MlRmOTJYRVc5YWo4U1cxLXdJYmVaa2FXa0lBemlELWpfQnpfOGI4bXZXbjBUcEVUem1FM0Z5UGFZeHd3NEd1Q19kekpaLTFodWxXRmd2MGhWdC00Y2tFT1EwSk5BU2Y5enctRlQ5SWFRMWE2b3FkbXhPU1RQWFBNd3FldkZVaUE0YjVBRUZIOG16VjBQVEVkVFF6c0owNzRaenNxWU1wZ2RjbWFyeEVEN2trMlYzcjRGOVU3QzF0ZUNKOHlaMTBvSXFzS2pFd0U3aERtM3ZHR0k1X25RQlJXeHA3TDNITzhlNGtGdEN1TzFfT1RHa25kU1hIalg5bWtXRXltVjYxdW9RalBiX0VjNGcwVnhQV0F6X0RFMWdpOTNCOURmTmZrN0o0LXVjVExueHA0LWFteWVMRXR6emJndl9BYWljMEVUUUtzMWlGMEZ6STc5cHR0clFqcUo4M3NqcW1ibUlXR1ZickdoMFVFZnBTeGszNUZTQUN3Q05SYzVoWDlpMTdoMlB2Q1d6YU5xRGFOV09DT1RvdVpNcU9uR0hkUVc0cW5KR3NtRUE3dU1WZjBqUkhPal9MMkJrYjRReWJnWHFUbkZkQWc4cnNiMjRkdjlJcmR4d09sUW8wT3duSzVrMEZkeVFZRUhBakdIUW5kZUM1VmNFeDU1dmo0UFBBZU5qM2ZlVFNLZWpnMnA2cWRra3BkV2xaUk9fR2Y1Q19WQnpzMUVSOTRzQkMyalhZN0lFS2VMYnBYRDV1eGEtZEtrMUVxaG1tVEJrcWxCOEVSWFEwSjZyWl8xdmdvbzljNldjWjFNR1VYMi1OZnBQdmhvdm90WXJCd25ISlFIb1RzSEs3TWhwMXVWWmFOR1lTallqdHE0a3I3NS1kX1NCc3BZRDNOcldBc0xHd1R0aV90QWI1MWlBcVFIcmlzRDRyeWtlWHhjTHplbWhfbFJDTm10cHdZUFFUTWFyVkpJbmxHRU12YWs0OWNBREFoZHZRQ2VPV3JfTVR5M1BPb2hlMk9xOXd4WHBEbXJqOEJaSlREMERHeFdBdEM3MFNDSWNqaVZXQVB0d0hrWFNRLVBhc3I3akZxX3lRRFZ3aVNaejJzVU9DUy1TZWJycXhZMzNqUG9VUGFkRUxyOHlWbkxTcElNSmJGQ296d0U5emh5NEJ6TTFEdFdIdG5aeHE0WFlQWFhwNndnd0FFcDlscjdvdWMxOW04cjBsNTI0a1VjU1NYNzNGMmJUbXROSlk3dzhTRG01c1Q4UVJCQWdENHBuV0d4aVg1X1hORE9nYXRFczViUVVwd0F5OEs5UnlEVjRpY09ycTJqQWd4VlRDdVpzU3hzOGFlaDlkUGx4Y08zZlZQblU0eVdrWkJiTEN6bWFHa3luQWRseUhvWFgycktSUDlKUTRtZS1IUThrVjNmQnZSQkdrYXBKY2dObDhwamRhWDVzcjJWWTdaYzFQTDhfOXI4SHFNLUY3UEo3TVdBUUloVm5oY2R4b2hxRDJpdXdZcWZlZFlxTC1TUGxyZm16b19NTmpESW9ydktvaWt4eEgyWVFlYVV6cU1NUjZkLTNBcFRrUjM1eFZjYzdyU254WW5SeERyUDRtRm1wYmpxblFoM1hBVndXMFFTS2h6Q0ZodlNOUU9zSTVCaENqZ2dwdkN0U05mZlZsemMtU3lDT0h1SDJNTWl4V0czTGJxcFJKdFd4el80T3VYWVRHR3VTT3ZmWkZnNnJCZ2p0Q0lVbk94NU94TDJINmtrOUY2QW5KTDctanl0THJRaE1od2p3X2hJaE9Bc0xMWE5CX2JUTElfYklMT2NlaUdaU3JlMl9IMUVYWU5BSGxkRFp2VUpuTDBCcEdvWDlIR3NxRW5MbFlXbkF6Z1pVUzRMUTV2S2hmeXB6LWlrWVFCQWJnUW5yYlc3TmFmVHRoRkVmeUFYVGMxTV8xaDgzTlNIck5pRUJnWk9VVXF5TnhYelRqUE5rZHFEZGVVaVF6M3kwXS0tPjwvZz48L3N2Zz4=;" vertex="1" parent="1">
            <mxGeometry x="-1930" y="-950" width="2571" height="1396" as="geometry" />
          </mxCell>
        </UserObject>
      </root>
    </mxGraphModel>
  </diagram>
</mxfile>
